G75*
%MOIN*%
%OFA0B0*%
%FSLAX24Y24*%
%IPPOS*%
%LPD*%
%AMOC8*
5,1,8,0,0,1.08239X$1,22.5*
%
%ADD10R,0.0800X0.0260*%
%ADD11R,0.0480X0.0200*%
%ADD12R,0.0866X0.0236*%
%ADD13C,0.0560*%
%ADD14R,0.0945X0.0787*%
%ADD15R,0.0909X0.0197*%
%ADD16R,0.0787X0.0591*%
%ADD17OC8,0.0520*%
%ADD18C,0.0160*%
D10*
X006590Y011900D03*
X006590Y012400D03*
X006590Y012900D03*
X006590Y013400D03*
X006590Y013900D03*
X006590Y014400D03*
X006590Y014900D03*
X009010Y014900D03*
X009010Y014400D03*
X009010Y013900D03*
X009010Y013400D03*
X009010Y012900D03*
X009010Y012400D03*
X009010Y011900D03*
D11*
X002980Y010270D03*
X002980Y009900D03*
X002980Y009530D03*
X002020Y009530D03*
X002020Y010270D03*
D12*
X015576Y009650D03*
X015576Y009150D03*
X015576Y008650D03*
X015576Y008150D03*
X017624Y008150D03*
X017624Y008650D03*
X017624Y009150D03*
X017624Y009650D03*
D13*
X013500Y011420D02*
X013500Y011980D01*
X012500Y011980D02*
X012500Y011420D01*
X006480Y006400D02*
X005920Y006400D01*
X005920Y005400D02*
X006480Y005400D01*
X015500Y005220D02*
X015500Y005780D01*
X016500Y005780D02*
X016500Y005220D01*
X023500Y006820D02*
X023500Y007380D01*
X024500Y007380D02*
X024500Y006820D01*
X024520Y004200D02*
X025080Y004200D01*
X025080Y003200D02*
X024520Y003200D01*
D14*
X003378Y004832D03*
X001213Y004832D03*
X001213Y001368D03*
X003378Y001368D03*
D15*
X003600Y002470D03*
X003600Y002785D03*
X003600Y003100D03*
X003600Y003415D03*
X003600Y003730D03*
D16*
X006600Y003791D03*
X006600Y002609D03*
X008500Y002609D03*
X008500Y003791D03*
X010400Y003791D03*
X010400Y002609D03*
X012200Y002509D03*
X012200Y003691D03*
X014100Y003691D03*
X014100Y002509D03*
D17*
X021000Y005400D03*
X021000Y006400D03*
X020800Y008600D03*
X019800Y008600D03*
X011600Y012900D03*
X010600Y012900D03*
X010700Y014100D03*
X011700Y014100D03*
X011500Y015600D03*
X010500Y015600D03*
X005000Y013700D03*
X004000Y013700D03*
X003100Y012900D03*
X003100Y011900D03*
X004300Y010500D03*
X004300Y009500D03*
X003900Y015800D03*
X002900Y015800D03*
D18*
X000480Y005700D02*
X000480Y000480D01*
X027790Y000480D01*
X027790Y015700D01*
X013200Y015700D01*
X013233Y012355D01*
X013259Y012373D01*
X013323Y012406D01*
X013392Y012429D01*
X013464Y012440D01*
X013490Y012440D01*
X013490Y011710D01*
X013510Y011710D01*
X013510Y012440D01*
X013536Y012440D01*
X013608Y012429D01*
X013677Y012406D01*
X013741Y012373D01*
X013800Y012331D01*
X013851Y012280D01*
X013893Y012221D01*
X013926Y012157D01*
X013949Y012088D01*
X013960Y012016D01*
X013960Y011710D01*
X013510Y011710D01*
X013510Y011690D01*
X013960Y011690D01*
X013960Y011384D01*
X013949Y011312D01*
X013926Y011243D01*
X013893Y011179D01*
X013851Y011120D01*
X013800Y011069D01*
X013741Y011027D01*
X013677Y010994D01*
X013608Y010971D01*
X013536Y010960D01*
X013510Y010960D01*
X013510Y011690D01*
X013490Y011690D01*
X013490Y010960D01*
X013464Y010960D01*
X013392Y010971D01*
X013323Y010994D01*
X013259Y011027D01*
X013247Y011035D01*
X013300Y005700D01*
X009660Y005700D01*
X009660Y004051D01*
X009826Y004051D01*
X009826Y004160D01*
X009932Y004266D01*
X010868Y004266D01*
X010974Y004160D01*
X010974Y004051D01*
X011626Y004051D01*
X011626Y004060D01*
X011732Y004166D01*
X012668Y004166D01*
X012774Y004060D01*
X012774Y003951D01*
X013526Y003951D01*
X013526Y004060D01*
X013632Y004166D01*
X014568Y004166D01*
X014674Y004060D01*
X014674Y003951D01*
X014983Y003951D01*
X015240Y004208D01*
X015240Y004830D01*
X015239Y004830D01*
X015110Y004959D01*
X015040Y005128D01*
X015040Y005871D01*
X015110Y006041D01*
X015239Y006170D01*
X015240Y006170D01*
X015240Y006192D01*
X014153Y007280D01*
X014153Y007280D01*
X014080Y007353D01*
X014040Y007448D01*
X014040Y008052D01*
X014080Y008147D01*
X014180Y008247D01*
X014180Y008247D01*
X014253Y008320D01*
X014348Y008360D01*
X014981Y008360D01*
X015021Y008400D01*
X014963Y008457D01*
X014963Y008843D01*
X015021Y008900D01*
X014963Y008957D01*
X014963Y009343D01*
X015021Y009400D01*
X014963Y009457D01*
X014963Y009843D01*
X015069Y009948D01*
X016084Y009948D01*
X016189Y009843D01*
X016189Y009457D01*
X016132Y009400D01*
X016189Y009343D01*
X016189Y008957D01*
X016132Y008900D01*
X016189Y008843D01*
X016189Y008457D01*
X016132Y008400D01*
X016189Y008343D01*
X016189Y007957D01*
X016084Y007852D01*
X015607Y007852D01*
X015578Y007840D01*
X014560Y007840D01*
X014560Y007608D01*
X018624Y007608D01*
X018640Y007592D02*
X018640Y007148D01*
X018680Y007053D01*
X018753Y006980D01*
X020553Y005180D01*
X020630Y005147D01*
X020818Y004960D01*
X021182Y004960D01*
X021362Y005140D01*
X022392Y005140D01*
X023480Y004053D01*
X023480Y004053D01*
X023553Y003980D01*
X023648Y003940D01*
X024130Y003940D01*
X024130Y003939D01*
X024259Y003810D01*
X024428Y003740D01*
X025171Y003740D01*
X025341Y003810D01*
X025470Y003939D01*
X025540Y004108D01*
X025540Y004291D01*
X025470Y004461D01*
X025341Y004590D01*
X025171Y004660D01*
X024428Y004660D01*
X024259Y004590D01*
X024130Y004461D01*
X024130Y004460D01*
X023808Y004460D01*
X022647Y005620D01*
X022552Y005660D01*
X021362Y005660D01*
X021182Y005840D01*
X020818Y005840D01*
X020723Y005745D01*
X019160Y007308D01*
X019160Y007752D01*
X019120Y007847D01*
X018720Y008247D01*
X018647Y008320D01*
X018552Y008360D01*
X018219Y008360D01*
X018189Y008390D01*
X019388Y008390D01*
X019618Y008160D01*
X019982Y008160D01*
X020240Y008418D01*
X020240Y008782D01*
X019982Y009040D01*
X019618Y009040D01*
X019488Y008910D01*
X018189Y008910D01*
X018201Y008921D01*
X018224Y008962D01*
X018237Y009008D01*
X018237Y009150D01*
X018237Y009292D01*
X018224Y009338D01*
X018201Y009379D01*
X018179Y009400D01*
X018201Y009421D01*
X018224Y009462D01*
X018237Y009508D01*
X018237Y009650D01*
X018237Y009792D01*
X018224Y009838D01*
X018201Y009879D01*
X018167Y009912D01*
X018126Y009936D01*
X018080Y009948D01*
X017624Y009948D01*
X017624Y009650D01*
X018237Y009650D01*
X017624Y009650D01*
X017624Y009650D01*
X017624Y009650D01*
X017624Y009448D01*
X017624Y009150D01*
X018237Y009150D01*
X017624Y009150D01*
X017624Y009150D01*
X017624Y009150D01*
X017624Y009650D01*
X017624Y009650D01*
X017624Y009948D01*
X017167Y009948D01*
X017121Y009936D01*
X017080Y009912D01*
X017047Y009879D01*
X017023Y009838D01*
X017011Y009792D01*
X017011Y009650D01*
X017011Y009508D01*
X017023Y009462D01*
X017047Y009421D01*
X017068Y009400D01*
X017047Y009379D01*
X017023Y009338D01*
X017011Y009292D01*
X017011Y009150D01*
X017011Y009008D01*
X017023Y008962D01*
X017047Y008921D01*
X017068Y008900D01*
X017011Y008843D01*
X017011Y008457D01*
X017068Y008400D01*
X017011Y008343D01*
X017011Y007957D01*
X017116Y007852D01*
X017593Y007852D01*
X017622Y007840D01*
X018392Y007840D01*
X018640Y007592D01*
X018640Y007450D02*
X014718Y007450D01*
X014560Y007608D02*
X015647Y006520D01*
X015647Y006520D01*
X015720Y006447D01*
X015760Y006352D01*
X015760Y006170D01*
X015761Y006170D01*
X015890Y006041D01*
X015960Y005871D01*
X015960Y005128D01*
X015890Y004959D01*
X015761Y004830D01*
X015760Y004830D01*
X015760Y004048D01*
X015720Y003953D01*
X015647Y003880D01*
X015238Y003470D01*
X015142Y003431D01*
X014674Y003431D01*
X014674Y003321D01*
X014568Y003215D01*
X013632Y003215D01*
X013526Y003321D01*
X013526Y003431D01*
X012774Y003431D01*
X012774Y003321D01*
X012668Y003215D01*
X011732Y003215D01*
X011626Y003321D01*
X011626Y003531D01*
X010974Y003531D01*
X010974Y003421D01*
X010868Y003315D01*
X009932Y003315D01*
X009826Y003421D01*
X009826Y003531D01*
X009074Y003531D01*
X009074Y003421D01*
X008968Y003315D01*
X008032Y003315D01*
X007926Y003421D01*
X007926Y003531D01*
X007174Y003531D01*
X007174Y003421D01*
X007068Y003315D01*
X006132Y003315D01*
X006026Y003421D01*
X006026Y003470D01*
X004234Y003470D01*
X004234Y002612D01*
X004230Y002608D01*
X004234Y002592D01*
X004234Y002470D01*
X003600Y002470D01*
X003600Y002192D01*
X004078Y002192D01*
X004124Y002204D01*
X004165Y002228D01*
X004198Y002261D01*
X004222Y002302D01*
X004234Y002348D01*
X004234Y002470D01*
X003600Y002470D01*
X003600Y002470D01*
X003600Y002192D01*
X003122Y002192D01*
X003076Y002204D01*
X003071Y002207D01*
X003071Y002099D01*
X003005Y001941D01*
X003925Y001941D01*
X004030Y001836D01*
X004030Y000899D01*
X003925Y000794D01*
X002831Y000794D01*
X002726Y000899D01*
X002726Y001639D01*
X002528Y001557D01*
X002259Y001557D01*
X002010Y001660D01*
X001865Y001805D01*
X001865Y000899D01*
X001760Y000794D01*
X000666Y000794D01*
X000560Y000899D01*
X000560Y001836D01*
X000666Y001941D01*
X001760Y001941D01*
X001798Y001903D01*
X001717Y002099D01*
X001717Y002368D01*
X001820Y002617D01*
X002010Y002808D01*
X002259Y002911D01*
X002528Y002911D01*
X002777Y002808D01*
X002966Y002619D01*
X002966Y003581D01*
X002777Y003392D01*
X002528Y003289D01*
X002259Y003289D01*
X002010Y003392D01*
X001820Y003583D01*
X001717Y003832D01*
X001717Y004101D01*
X001798Y004297D01*
X001760Y004259D01*
X000666Y004259D01*
X000560Y004364D01*
X000560Y005301D01*
X000666Y005406D01*
X001760Y005406D01*
X001865Y005301D01*
X001865Y004395D01*
X002010Y004540D01*
X002259Y004643D01*
X002528Y004643D01*
X002726Y004561D01*
X002726Y005301D01*
X002831Y005406D01*
X003925Y005406D01*
X004030Y005301D01*
X004030Y004364D01*
X003925Y004259D01*
X003005Y004259D01*
X003071Y004101D01*
X003071Y004008D01*
X003071Y004008D01*
X004129Y004008D01*
X004147Y003990D01*
X006026Y003990D01*
X006026Y004160D01*
X006132Y004266D01*
X007068Y004266D01*
X007174Y004160D01*
X007174Y004051D01*
X007926Y004051D01*
X007926Y004160D01*
X008032Y004266D01*
X008968Y004266D01*
X009074Y004160D01*
X009074Y004051D01*
X009140Y004051D01*
X009140Y005700D01*
X006831Y005700D01*
X006831Y005700D01*
X006873Y005641D01*
X006906Y005577D01*
X006929Y005508D01*
X006940Y005436D01*
X006940Y005410D01*
X006210Y005410D01*
X006210Y005390D01*
X006940Y005390D01*
X006940Y005364D01*
X006929Y005292D01*
X006906Y005223D01*
X006873Y005159D01*
X006831Y005100D01*
X006780Y005049D01*
X006721Y005007D01*
X006657Y004974D01*
X006588Y004951D01*
X006516Y004940D01*
X006210Y004940D01*
X006210Y005390D01*
X006190Y005390D01*
X006190Y004940D01*
X005884Y004940D01*
X005812Y004951D01*
X005743Y004974D01*
X005679Y005007D01*
X005620Y005049D01*
X005569Y005100D01*
X005527Y005159D01*
X005494Y005223D01*
X005471Y005292D01*
X005460Y005364D01*
X005460Y005390D01*
X006190Y005390D01*
X006190Y005410D01*
X005460Y005410D01*
X005460Y005436D01*
X005471Y005508D01*
X005494Y005577D01*
X005527Y005641D01*
X005569Y005700D01*
X005569Y005700D01*
X000480Y005700D01*
X000480Y005548D02*
X005484Y005548D01*
X005460Y005389D02*
X003942Y005389D01*
X004030Y005231D02*
X005491Y005231D01*
X005597Y005072D02*
X004030Y005072D01*
X004030Y004914D02*
X009140Y004914D01*
X009140Y005072D02*
X006803Y005072D01*
X006909Y005231D02*
X009140Y005231D01*
X009140Y005389D02*
X006940Y005389D01*
X006916Y005548D02*
X009140Y005548D01*
X009120Y006000D02*
X006708Y006000D01*
X006721Y006007D01*
X006780Y006049D01*
X006831Y006100D01*
X006873Y006159D01*
X006906Y006223D01*
X006929Y006292D01*
X006940Y006364D01*
X006940Y006390D01*
X006210Y006390D01*
X006210Y006410D01*
X006190Y006410D01*
X006190Y006860D01*
X005884Y006860D01*
X005812Y006849D01*
X005743Y006826D01*
X005679Y006793D01*
X005620Y006751D01*
X005569Y006700D01*
X005527Y006641D01*
X005494Y006577D01*
X005471Y006508D01*
X005460Y006436D01*
X005460Y006410D01*
X006190Y006410D01*
X006190Y006390D01*
X005460Y006390D01*
X005460Y006364D01*
X005471Y006292D01*
X005494Y006223D01*
X005527Y006159D01*
X005569Y006100D01*
X005620Y006049D01*
X005679Y006007D01*
X005692Y006000D01*
X000480Y006000D01*
X000480Y016816D01*
X027790Y016816D01*
X027790Y016000D01*
X012800Y016000D01*
X012800Y012331D01*
X012741Y012373D01*
X012677Y012406D01*
X012608Y012429D01*
X012536Y012440D01*
X012510Y012440D01*
X012510Y011710D01*
X012490Y011710D01*
X012490Y012440D01*
X012464Y012440D01*
X012392Y012429D01*
X012323Y012406D01*
X012259Y012373D01*
X012200Y012331D01*
X012149Y012280D01*
X012107Y012221D01*
X012074Y012157D01*
X012051Y012088D01*
X012040Y012016D01*
X012040Y011710D01*
X012490Y011710D01*
X012490Y011690D01*
X012510Y011690D01*
X012510Y010960D01*
X012536Y010960D01*
X012608Y010971D01*
X012677Y010994D01*
X012741Y011027D01*
X012800Y011069D01*
X012800Y011069D01*
X012800Y006000D01*
X009680Y006000D01*
X009680Y006556D01*
X009637Y006659D01*
X009559Y006737D01*
X007396Y008900D01*
X007837Y009341D01*
X007880Y009444D01*
X007880Y010284D01*
X008037Y010441D01*
X008080Y010544D01*
X008080Y011620D01*
X008477Y011620D01*
X008527Y011570D01*
X009493Y011570D01*
X009610Y011687D01*
X009610Y012113D01*
X009603Y012120D01*
X009756Y012120D01*
X009859Y012163D01*
X010016Y012320D01*
X010356Y012320D01*
X010459Y012363D01*
X012245Y012363D01*
X012098Y012205D02*
X009900Y012205D01*
X009700Y012400D02*
X009900Y012600D01*
X010300Y012600D01*
X010600Y012900D01*
X010140Y012880D02*
X009844Y012880D01*
X009741Y012837D01*
X009663Y012759D01*
X009610Y012706D01*
X009610Y013113D01*
X009603Y013120D01*
X010056Y013120D01*
X010159Y013163D01*
X010636Y013640D01*
X010891Y013640D01*
X011160Y013909D01*
X011160Y014291D01*
X010891Y014560D01*
X010509Y014560D01*
X010240Y014291D01*
X010240Y014036D01*
X009884Y013680D01*
X009603Y013680D01*
X009610Y013687D01*
X009610Y014113D01*
X009603Y014120D01*
X009856Y014120D01*
X009959Y014163D01*
X010059Y014263D01*
X010137Y014341D01*
X010180Y014444D01*
X010180Y014884D01*
X010436Y015140D01*
X010691Y015140D01*
X010960Y015409D01*
X010960Y015791D01*
X010691Y016060D01*
X010309Y016060D01*
X010040Y015791D01*
X010040Y015536D01*
X009663Y015159D01*
X009620Y015056D01*
X009620Y014680D01*
X009566Y014680D01*
X009578Y014701D01*
X009590Y014746D01*
X009590Y014900D01*
X009590Y015054D01*
X009578Y015099D01*
X009554Y015141D01*
X009521Y015174D01*
X009479Y015198D01*
X009434Y015210D01*
X009010Y015210D01*
X009010Y014900D01*
X009010Y014900D01*
X009590Y014900D01*
X009010Y014900D01*
X009010Y014900D01*
X009010Y014900D01*
X008430Y014900D01*
X008430Y015054D01*
X008442Y015099D01*
X008466Y015141D01*
X008499Y015174D01*
X008541Y015198D01*
X008586Y015210D01*
X009010Y015210D01*
X009010Y014900D01*
X008430Y014900D01*
X008430Y014746D01*
X008442Y014701D01*
X008463Y014665D01*
X008410Y014613D01*
X008410Y014187D01*
X008417Y014180D01*
X008080Y014180D01*
X008080Y014356D01*
X008037Y014459D01*
X007959Y014537D01*
X007859Y014637D01*
X007756Y014680D01*
X007183Y014680D01*
X007190Y014687D01*
X007190Y015113D01*
X007073Y015230D01*
X006656Y015230D01*
X006649Y015237D01*
X006546Y015280D01*
X006434Y015280D01*
X006331Y015237D01*
X006324Y015230D01*
X006107Y015230D01*
X006057Y015180D01*
X005716Y015180D01*
X004859Y016037D01*
X004756Y016080D01*
X004271Y016080D01*
X004091Y016260D01*
X003709Y016260D01*
X003440Y015991D01*
X003440Y015609D01*
X003709Y015340D01*
X004091Y015340D01*
X004271Y015520D01*
X004584Y015520D01*
X005363Y014741D01*
X005441Y014663D01*
X005544Y014620D01*
X005997Y014620D01*
X005990Y014613D01*
X005990Y014187D01*
X005997Y014180D01*
X005744Y014180D01*
X005641Y014137D01*
X005563Y014059D01*
X005484Y013980D01*
X005371Y013980D01*
X005191Y014160D01*
X004809Y014160D01*
X004540Y013891D01*
X004540Y013509D01*
X004809Y013240D01*
X005191Y013240D01*
X005371Y013420D01*
X005656Y013420D01*
X005759Y013463D01*
X005916Y013620D01*
X005997Y013620D01*
X005990Y013613D01*
X005990Y013187D01*
X005997Y013180D01*
X003471Y013180D01*
X003291Y013360D01*
X002909Y013360D01*
X002640Y013091D01*
X002640Y012709D01*
X002909Y012440D01*
X003291Y012440D01*
X003471Y012620D01*
X005997Y012620D01*
X005990Y012613D01*
X005990Y012187D01*
X006027Y012150D01*
X005990Y012113D01*
X005990Y011687D01*
X006107Y011570D01*
X006310Y011570D01*
X006310Y009906D01*
X006184Y009780D01*
X004671Y009780D01*
X004491Y009960D01*
X004109Y009960D01*
X003929Y009780D01*
X003400Y009780D01*
X003400Y009900D01*
X003400Y009990D01*
X004126Y009990D01*
X004229Y010033D01*
X004236Y010040D01*
X004491Y010040D01*
X004760Y010309D01*
X004760Y010691D01*
X004491Y010960D01*
X004109Y010960D01*
X003840Y010691D01*
X003840Y010550D01*
X003323Y010550D01*
X003303Y010570D01*
X002657Y010570D01*
X002547Y010460D01*
X002542Y010466D01*
X002542Y010466D01*
X002379Y010533D01*
X002343Y010570D01*
X001697Y010570D01*
X001580Y010453D01*
X001580Y010087D01*
X001697Y009970D01*
X002220Y009970D01*
X002220Y009851D01*
X002229Y009830D01*
X001697Y009830D01*
X001677Y009810D01*
X001474Y009810D01*
X001371Y009767D01*
X000841Y009237D01*
X000763Y009159D01*
X000720Y009056D01*
X000720Y008444D01*
X000763Y008341D01*
X001263Y007841D01*
X001341Y007763D01*
X001444Y007720D01*
X006156Y007720D01*
X006259Y007763D01*
X007000Y008504D01*
X009120Y006384D01*
X009120Y006000D01*
X009120Y006023D02*
X006744Y006023D01*
X006885Y006182D02*
X009120Y006182D01*
X009120Y006340D02*
X006936Y006340D01*
X006940Y006410D02*
X006940Y006436D01*
X006929Y006508D01*
X006906Y006577D01*
X006873Y006641D01*
X006831Y006700D01*
X006780Y006751D01*
X006721Y006793D01*
X006657Y006826D01*
X006588Y006849D01*
X006516Y006860D01*
X006210Y006860D01*
X006210Y006410D01*
X006940Y006410D01*
X006930Y006499D02*
X009006Y006499D01*
X008847Y006657D02*
X006862Y006657D01*
X006678Y006816D02*
X008689Y006816D01*
X008530Y006974D02*
X000480Y006974D01*
X000480Y006816D02*
X005722Y006816D01*
X005538Y006657D02*
X000480Y006657D01*
X000480Y006499D02*
X005470Y006499D01*
X005464Y006340D02*
X000480Y006340D01*
X000480Y006182D02*
X005515Y006182D01*
X005656Y006023D02*
X000480Y006023D01*
X000480Y005389D02*
X000649Y005389D01*
X000560Y005231D02*
X000480Y005231D01*
X000480Y005072D02*
X000560Y005072D01*
X000560Y004914D02*
X000480Y004914D01*
X000480Y004755D02*
X000560Y004755D01*
X000560Y004597D02*
X000480Y004597D01*
X000480Y004438D02*
X000560Y004438D01*
X000480Y004280D02*
X000645Y004280D01*
X000480Y004121D02*
X001725Y004121D01*
X001717Y003963D02*
X000480Y003963D01*
X000480Y003804D02*
X001728Y003804D01*
X001794Y003646D02*
X000480Y003646D01*
X000480Y003487D02*
X001916Y003487D01*
X002164Y003329D02*
X000480Y003329D01*
X000480Y003170D02*
X002966Y003170D01*
X002966Y003012D02*
X000480Y003012D01*
X000480Y002853D02*
X002120Y002853D01*
X001897Y002695D02*
X000480Y002695D01*
X000480Y002536D02*
X001786Y002536D01*
X001721Y002378D02*
X000480Y002378D01*
X000480Y002219D02*
X001717Y002219D01*
X001733Y002061D02*
X000480Y002061D01*
X000480Y001902D02*
X000626Y001902D01*
X000560Y001744D02*
X000480Y001744D01*
X000480Y001585D02*
X000560Y001585D01*
X000560Y001427D02*
X000480Y001427D01*
X000480Y001268D02*
X000560Y001268D01*
X000560Y001110D02*
X000480Y001110D01*
X000480Y000951D02*
X000560Y000951D01*
X000480Y000793D02*
X027790Y000793D01*
X027790Y000951D02*
X004030Y000951D01*
X004030Y001110D02*
X027790Y001110D01*
X027790Y001268D02*
X004030Y001268D01*
X004030Y001427D02*
X027790Y001427D01*
X027790Y001585D02*
X004030Y001585D01*
X004030Y001744D02*
X027790Y001744D01*
X027790Y001902D02*
X003964Y001902D01*
X004150Y002219D02*
X006053Y002219D01*
X006062Y002204D02*
X006096Y002170D01*
X006137Y002146D01*
X006183Y002134D01*
X006532Y002134D01*
X006532Y002542D01*
X006026Y002542D01*
X006026Y002290D01*
X006039Y002245D01*
X006062Y002204D01*
X006026Y002378D02*
X004234Y002378D01*
X004234Y002536D02*
X006026Y002536D01*
X006026Y002677D02*
X006532Y002677D01*
X006532Y002542D01*
X006668Y002542D01*
X006668Y002677D01*
X007174Y002677D01*
X007174Y002928D01*
X007161Y002974D01*
X007138Y003015D01*
X007104Y003049D01*
X007063Y003072D01*
X007017Y003085D01*
X006668Y003085D01*
X006668Y002677D01*
X006532Y002677D01*
X006532Y003085D01*
X006183Y003085D01*
X006137Y003072D01*
X006096Y003049D01*
X006062Y003015D01*
X006039Y002974D01*
X006026Y002928D01*
X006026Y002677D01*
X006026Y002695D02*
X004234Y002695D01*
X004234Y002853D02*
X006026Y002853D01*
X006060Y003012D02*
X004234Y003012D01*
X004234Y003170D02*
X024060Y003170D01*
X024060Y003164D02*
X024071Y003092D01*
X024094Y003023D01*
X024127Y002959D01*
X024169Y002900D01*
X024220Y002849D01*
X024279Y002807D01*
X024343Y002774D01*
X024412Y002751D01*
X024484Y002740D01*
X024790Y002740D01*
X024790Y003190D01*
X024810Y003190D01*
X024810Y003210D01*
X024790Y003210D01*
X024790Y003660D01*
X024484Y003660D01*
X024412Y003649D01*
X024343Y003626D01*
X024279Y003593D01*
X024220Y003551D01*
X024169Y003500D01*
X024127Y003441D01*
X024094Y003377D01*
X024071Y003308D01*
X024060Y003236D01*
X024060Y003210D01*
X024790Y003210D01*
X024790Y003190D01*
X024060Y003190D01*
X024060Y003164D01*
X024100Y003012D02*
X010941Y003012D01*
X010974Y002979D02*
X010868Y003085D01*
X009932Y003085D01*
X009826Y002979D01*
X009826Y002240D01*
X009932Y002134D01*
X010868Y002134D01*
X010974Y002240D01*
X010974Y002979D01*
X010974Y002853D02*
X011633Y002853D01*
X011639Y002874D02*
X011626Y002828D01*
X011626Y002577D01*
X012132Y002577D01*
X012132Y002442D01*
X011626Y002442D01*
X011626Y002190D01*
X011639Y002145D01*
X011662Y002104D01*
X011696Y002070D01*
X011737Y002046D01*
X011783Y002034D01*
X012132Y002034D01*
X012132Y002442D01*
X012268Y002442D01*
X012268Y002577D01*
X012774Y002577D01*
X012774Y002828D01*
X012761Y002874D01*
X012738Y002915D01*
X012704Y002949D01*
X012663Y002972D01*
X012617Y002985D01*
X012268Y002985D01*
X012268Y002577D01*
X012132Y002577D01*
X012132Y002985D01*
X011783Y002985D01*
X011737Y002972D01*
X011696Y002949D01*
X011662Y002915D01*
X011639Y002874D01*
X011626Y002695D02*
X010974Y002695D01*
X010974Y002536D02*
X012132Y002536D01*
X012268Y002536D02*
X014032Y002536D01*
X014032Y002577D02*
X014032Y002442D01*
X013526Y002442D01*
X013526Y002190D01*
X013539Y002145D01*
X013562Y002104D01*
X013596Y002070D01*
X013637Y002046D01*
X013683Y002034D01*
X014032Y002034D01*
X014032Y002442D01*
X014168Y002442D01*
X014168Y002577D01*
X014674Y002577D01*
X014674Y002828D01*
X014661Y002874D01*
X014638Y002915D01*
X014604Y002949D01*
X014563Y002972D01*
X014517Y002985D01*
X014168Y002985D01*
X014168Y002577D01*
X014032Y002577D01*
X013526Y002577D01*
X013526Y002828D01*
X013539Y002874D01*
X013562Y002915D01*
X013596Y002949D01*
X013637Y002972D01*
X013683Y002985D01*
X014032Y002985D01*
X014032Y002577D01*
X014032Y002695D02*
X014168Y002695D01*
X014168Y002853D02*
X014032Y002853D01*
X014168Y002536D02*
X027790Y002536D01*
X027790Y002378D02*
X014674Y002378D01*
X014674Y002442D02*
X014674Y002190D01*
X014661Y002145D01*
X014638Y002104D01*
X014604Y002070D01*
X014563Y002046D01*
X014517Y002034D01*
X014168Y002034D01*
X014168Y002442D01*
X014674Y002442D01*
X014674Y002219D02*
X027790Y002219D01*
X027790Y002061D02*
X014588Y002061D01*
X014168Y002061D02*
X014032Y002061D01*
X014032Y002219D02*
X014168Y002219D01*
X014168Y002378D02*
X014032Y002378D01*
X013526Y002378D02*
X012774Y002378D01*
X012774Y002442D02*
X012774Y002190D01*
X012761Y002145D01*
X012738Y002104D01*
X012704Y002070D01*
X012663Y002046D01*
X012617Y002034D01*
X012268Y002034D01*
X012268Y002442D01*
X012774Y002442D01*
X012774Y002219D02*
X013526Y002219D01*
X013612Y002061D02*
X012688Y002061D01*
X012268Y002061D02*
X012132Y002061D01*
X012132Y002219D02*
X012268Y002219D01*
X012268Y002378D02*
X012132Y002378D01*
X012132Y002695D02*
X012268Y002695D01*
X012268Y002853D02*
X012132Y002853D01*
X012767Y002853D02*
X013533Y002853D01*
X013526Y002695D02*
X012774Y002695D01*
X012774Y003329D02*
X013526Y003329D01*
X014100Y003691D02*
X015091Y003691D01*
X015500Y004100D01*
X015500Y005500D01*
X015500Y006300D01*
X014300Y007500D01*
X014300Y008000D01*
X014400Y008100D01*
X015526Y008100D01*
X015576Y008150D01*
X015020Y008401D02*
X013273Y008401D01*
X013271Y008559D02*
X014963Y008559D01*
X014963Y008718D02*
X013270Y008718D01*
X013268Y008876D02*
X014997Y008876D01*
X014963Y009035D02*
X013267Y009035D01*
X013265Y009193D02*
X014963Y009193D01*
X014972Y009352D02*
X013263Y009352D01*
X013262Y009510D02*
X014963Y009510D01*
X014963Y009669D02*
X013260Y009669D01*
X013259Y009827D02*
X014963Y009827D01*
X016189Y009827D02*
X017020Y009827D01*
X017011Y009669D02*
X016189Y009669D01*
X016189Y009510D02*
X017011Y009510D01*
X017011Y009650D02*
X017624Y009650D01*
X017624Y009650D01*
X017011Y009650D01*
X017031Y009352D02*
X016181Y009352D01*
X016189Y009193D02*
X017011Y009193D01*
X017011Y009150D02*
X017624Y009150D01*
X017011Y009150D01*
X017011Y009035D02*
X016189Y009035D01*
X016156Y008876D02*
X017044Y008876D01*
X017011Y008718D02*
X016189Y008718D01*
X016189Y008559D02*
X017011Y008559D01*
X017067Y008401D02*
X016133Y008401D01*
X016189Y008242D02*
X017011Y008242D01*
X017011Y008084D02*
X016189Y008084D01*
X016157Y007925D02*
X017043Y007925D01*
X017624Y008150D02*
X017674Y008100D01*
X018500Y008100D01*
X018900Y007700D01*
X018900Y007200D01*
X020700Y005400D01*
X021000Y005400D01*
X022500Y005400D01*
X023700Y004200D01*
X024800Y004200D01*
X024275Y004597D02*
X023671Y004597D01*
X023513Y004755D02*
X027790Y004755D01*
X027790Y004597D02*
X025325Y004597D01*
X025479Y004438D02*
X027790Y004438D01*
X027790Y004280D02*
X025540Y004280D01*
X025540Y004121D02*
X027790Y004121D01*
X027790Y003963D02*
X025480Y003963D01*
X025326Y003804D02*
X027790Y003804D01*
X027790Y003646D02*
X025197Y003646D01*
X025188Y003649D02*
X025116Y003660D01*
X024810Y003660D01*
X024810Y003210D01*
X025540Y003210D01*
X025540Y003236D01*
X025529Y003308D01*
X025506Y003377D01*
X025473Y003441D01*
X025431Y003500D01*
X025380Y003551D01*
X025321Y003593D01*
X025257Y003626D01*
X025188Y003649D01*
X025440Y003487D02*
X027790Y003487D01*
X027790Y003329D02*
X025522Y003329D01*
X025540Y003190D02*
X024810Y003190D01*
X024810Y002740D01*
X025116Y002740D01*
X025188Y002751D01*
X025257Y002774D01*
X025321Y002807D01*
X025380Y002849D01*
X025431Y002900D01*
X025473Y002959D01*
X025506Y003023D01*
X025529Y003092D01*
X025540Y003164D01*
X025540Y003190D01*
X025540Y003170D02*
X027790Y003170D01*
X027790Y003012D02*
X025500Y003012D01*
X025384Y002853D02*
X027790Y002853D01*
X027790Y002695D02*
X014674Y002695D01*
X014667Y002853D02*
X024216Y002853D01*
X024078Y003329D02*
X014674Y003329D01*
X014100Y003691D02*
X012200Y003691D01*
X012100Y003791D01*
X010400Y003791D01*
X009400Y003791D01*
X009400Y006500D01*
X006400Y009500D01*
X006300Y009500D01*
X006590Y009790D01*
X006590Y011900D01*
X006590Y012400D02*
X007700Y012400D01*
X007800Y012300D01*
X007800Y011900D01*
X009010Y011900D01*
X009010Y012400D02*
X009700Y012400D01*
X009610Y012046D02*
X012045Y012046D01*
X012040Y011888D02*
X009610Y011888D01*
X009610Y011729D02*
X012040Y011729D01*
X012040Y011690D02*
X012040Y011384D01*
X012051Y011312D01*
X012074Y011243D01*
X012107Y011179D01*
X012149Y011120D01*
X012200Y011069D01*
X012259Y011027D01*
X012323Y010994D01*
X012392Y010971D01*
X012464Y010960D01*
X012490Y010960D01*
X012490Y011690D01*
X012040Y011690D01*
X012040Y011571D02*
X009493Y011571D01*
X008527Y011571D02*
X008080Y011571D01*
X008080Y011412D02*
X012040Y011412D01*
X012070Y011254D02*
X008080Y011254D01*
X008080Y011095D02*
X012174Y011095D01*
X012490Y011095D02*
X012510Y011095D01*
X012510Y011254D02*
X012490Y011254D01*
X012490Y011412D02*
X012510Y011412D01*
X012510Y011571D02*
X012490Y011571D01*
X012490Y011729D02*
X012510Y011729D01*
X012510Y011888D02*
X012490Y011888D01*
X012490Y012046D02*
X012510Y012046D01*
X012510Y012205D02*
X012490Y012205D01*
X012490Y012363D02*
X012510Y012363D01*
X012755Y012363D02*
X012800Y012363D01*
X012800Y012331D02*
X012800Y012331D01*
X012800Y012522D02*
X011844Y012522D01*
X011782Y012460D02*
X012040Y012718D01*
X012040Y012900D01*
X012040Y013082D01*
X011782Y013340D01*
X011600Y013340D01*
X011600Y012900D01*
X012040Y012900D01*
X011600Y012900D01*
X011600Y012900D01*
X011600Y012900D01*
X011600Y012460D01*
X011782Y012460D01*
X011600Y012460D02*
X011600Y012900D01*
X011600Y012900D01*
X011600Y012900D01*
X011160Y012900D01*
X011160Y013082D01*
X011418Y013340D01*
X011600Y013340D01*
X011600Y012900D01*
X011160Y012900D01*
X011160Y012718D01*
X011418Y012460D01*
X011600Y012460D01*
X011600Y012522D02*
X011600Y012522D01*
X011600Y012680D02*
X011600Y012680D01*
X011600Y012839D02*
X011600Y012839D01*
X011600Y012997D02*
X011600Y012997D01*
X011600Y013156D02*
X011600Y013156D01*
X011600Y013314D02*
X011600Y013314D01*
X011808Y013314D02*
X012800Y013314D01*
X012800Y013156D02*
X011967Y013156D01*
X012040Y012997D02*
X012800Y012997D01*
X012800Y012839D02*
X012040Y012839D01*
X012002Y012680D02*
X012800Y012680D01*
X013230Y012680D02*
X027790Y012680D01*
X027790Y012522D02*
X013232Y012522D01*
X013233Y012363D02*
X013245Y012363D01*
X013490Y012363D02*
X013510Y012363D01*
X013510Y012205D02*
X013490Y012205D01*
X013490Y012046D02*
X013510Y012046D01*
X013510Y011888D02*
X013490Y011888D01*
X013490Y011729D02*
X013510Y011729D01*
X013510Y011571D02*
X013490Y011571D01*
X013490Y011412D02*
X013510Y011412D01*
X013510Y011254D02*
X013490Y011254D01*
X013490Y011095D02*
X013510Y011095D01*
X013248Y010937D02*
X027790Y010937D01*
X027790Y011095D02*
X013826Y011095D01*
X013930Y011254D02*
X027790Y011254D01*
X027790Y011412D02*
X013960Y011412D01*
X013960Y011571D02*
X027790Y011571D01*
X027790Y011729D02*
X013960Y011729D01*
X013960Y011888D02*
X027790Y011888D01*
X027790Y012046D02*
X013955Y012046D01*
X013902Y012205D02*
X027790Y012205D01*
X027790Y012363D02*
X013755Y012363D01*
X013229Y012839D02*
X027790Y012839D01*
X027790Y012997D02*
X013227Y012997D01*
X013225Y013156D02*
X027790Y013156D01*
X027790Y013314D02*
X013224Y013314D01*
X013222Y013473D02*
X027790Y013473D01*
X027790Y013631D02*
X013221Y013631D01*
X013219Y013790D02*
X027790Y013790D01*
X027790Y013948D02*
X013218Y013948D01*
X013216Y014107D02*
X027790Y014107D01*
X027790Y014265D02*
X013214Y014265D01*
X013213Y014424D02*
X027790Y014424D01*
X027790Y014582D02*
X013211Y014582D01*
X013210Y014741D02*
X027790Y014741D01*
X027790Y014899D02*
X013208Y014899D01*
X013206Y015058D02*
X027790Y015058D01*
X027790Y015216D02*
X013205Y015216D01*
X013203Y015375D02*
X027790Y015375D01*
X027790Y015533D02*
X013202Y015533D01*
X013200Y015692D02*
X027790Y015692D01*
X027790Y016009D02*
X011714Y016009D01*
X011682Y016040D02*
X011500Y016040D01*
X011500Y015600D01*
X011940Y015600D01*
X011940Y015782D01*
X011682Y016040D01*
X011500Y016040D02*
X011318Y016040D01*
X011060Y015782D01*
X011060Y015600D01*
X011500Y015600D01*
X011500Y015600D01*
X011500Y015600D01*
X011940Y015600D01*
X011940Y015418D01*
X011682Y015160D01*
X011500Y015160D01*
X011500Y015600D01*
X011500Y015600D01*
X011500Y015600D01*
X011500Y016040D01*
X011500Y016009D02*
X011500Y016009D01*
X011500Y015850D02*
X011500Y015850D01*
X011500Y015692D02*
X011500Y015692D01*
X011500Y015600D02*
X011060Y015600D01*
X011060Y015418D01*
X011318Y015160D01*
X011500Y015160D01*
X011500Y015600D01*
X011500Y015533D02*
X011500Y015533D01*
X011500Y015375D02*
X011500Y015375D01*
X011500Y015216D02*
X011500Y015216D01*
X011738Y015216D02*
X012800Y015216D01*
X012800Y015058D02*
X010354Y015058D01*
X010195Y014899D02*
X012800Y014899D01*
X012800Y014741D02*
X010180Y014741D01*
X010180Y014582D02*
X012800Y014582D01*
X012800Y014424D02*
X011999Y014424D01*
X011882Y014540D02*
X012140Y014282D01*
X012140Y014100D01*
X011700Y014100D01*
X011700Y014100D01*
X011700Y014100D01*
X011700Y014540D01*
X011882Y014540D01*
X011700Y014540D02*
X011518Y014540D01*
X011260Y014282D01*
X011260Y014100D01*
X011700Y014100D01*
X012140Y014100D01*
X012140Y013918D01*
X011882Y013660D01*
X011700Y013660D01*
X011700Y014100D01*
X011700Y014100D01*
X011700Y014100D01*
X011700Y014540D01*
X011700Y014424D02*
X011700Y014424D01*
X011700Y014265D02*
X011700Y014265D01*
X011700Y014107D02*
X011700Y014107D01*
X011700Y014100D02*
X011260Y014100D01*
X011260Y013918D01*
X011518Y013660D01*
X011700Y013660D01*
X011700Y014100D01*
X011700Y013948D02*
X011700Y013948D01*
X011700Y013790D02*
X011700Y013790D01*
X012012Y013790D02*
X012800Y013790D01*
X012800Y013948D02*
X012140Y013948D01*
X012140Y014107D02*
X012800Y014107D01*
X012800Y014265D02*
X012140Y014265D01*
X011401Y014424D02*
X011027Y014424D01*
X011160Y014265D02*
X011260Y014265D01*
X011260Y014107D02*
X011160Y014107D01*
X011160Y013948D02*
X011260Y013948D01*
X011388Y013790D02*
X011040Y013790D01*
X010627Y013631D02*
X012800Y013631D01*
X012800Y013473D02*
X010468Y013473D01*
X010409Y013360D02*
X010140Y013091D01*
X010140Y012880D01*
X010140Y012997D02*
X009610Y012997D01*
X009610Y012839D02*
X009744Y012839D01*
X010141Y013156D02*
X010205Y013156D01*
X010310Y013314D02*
X010363Y013314D01*
X010409Y013360D02*
X010791Y013360D01*
X011060Y013091D01*
X011060Y012709D01*
X010791Y012440D01*
X010536Y012440D01*
X010459Y012363D01*
X010872Y012522D02*
X011356Y012522D01*
X011198Y012680D02*
X011031Y012680D01*
X011060Y012839D02*
X011160Y012839D01*
X011160Y012997D02*
X011060Y012997D01*
X010995Y013156D02*
X011233Y013156D01*
X011392Y013314D02*
X010837Y013314D01*
X010700Y014100D02*
X010000Y013400D01*
X009010Y013400D01*
X009010Y012900D02*
X008200Y012900D01*
X008100Y012800D01*
X008100Y012700D01*
X007800Y012400D01*
X007800Y012300D01*
X007800Y012400D02*
X007800Y013000D01*
X007650Y013150D01*
X007800Y013300D01*
X007800Y013600D01*
X008100Y013900D01*
X009010Y013900D01*
X009010Y014400D02*
X009800Y014400D01*
X009900Y014500D01*
X009900Y015000D01*
X010500Y015600D01*
X010960Y015533D02*
X011060Y015533D01*
X011060Y015692D02*
X010960Y015692D01*
X010901Y015850D02*
X011128Y015850D01*
X011286Y016009D02*
X010742Y016009D01*
X010258Y016009D02*
X004887Y016009D01*
X005046Y015850D02*
X010099Y015850D01*
X010040Y015692D02*
X005204Y015692D01*
X005363Y015533D02*
X010037Y015533D01*
X009879Y015375D02*
X005521Y015375D01*
X005680Y015216D02*
X006093Y015216D01*
X006490Y015000D02*
X006590Y014900D01*
X005600Y014900D01*
X004700Y015800D01*
X003900Y015800D01*
X003440Y015850D02*
X003340Y015850D01*
X003340Y015800D02*
X003340Y015982D01*
X003082Y016240D01*
X002900Y016240D01*
X002900Y015800D01*
X003340Y015800D01*
X002900Y015800D01*
X002900Y015800D01*
X002900Y015800D01*
X002900Y015360D01*
X003082Y015360D01*
X003340Y015618D01*
X003340Y015800D01*
X003340Y015692D02*
X003440Y015692D01*
X003516Y015533D02*
X003255Y015533D01*
X003097Y015375D02*
X003675Y015375D01*
X004125Y015375D02*
X004729Y015375D01*
X004888Y015216D02*
X000480Y015216D01*
X000480Y015058D02*
X005046Y015058D01*
X005205Y014899D02*
X000480Y014899D01*
X000480Y014741D02*
X005363Y014741D01*
X005244Y014107D02*
X005611Y014107D01*
X005800Y013900D02*
X006590Y013900D01*
X006490Y014000D01*
X006590Y014400D02*
X007700Y014400D01*
X007800Y014300D01*
X007800Y013600D01*
X007400Y013400D02*
X007650Y013150D01*
X007400Y013400D02*
X006590Y013400D01*
X006590Y012900D02*
X003100Y012900D01*
X002640Y012839D02*
X000480Y012839D01*
X000480Y012997D02*
X002640Y012997D01*
X002705Y013156D02*
X000480Y013156D01*
X000480Y013314D02*
X002863Y013314D01*
X003337Y013314D02*
X003764Y013314D01*
X003818Y013260D02*
X004000Y013260D01*
X004182Y013260D01*
X004440Y013518D01*
X004440Y013700D01*
X004440Y013882D01*
X004182Y014140D01*
X004000Y014140D01*
X004000Y013700D01*
X004440Y013700D01*
X004000Y013700D01*
X004000Y013700D01*
X004000Y013700D01*
X004000Y013260D01*
X004000Y013700D01*
X004000Y013700D01*
X004000Y013700D01*
X003560Y013700D01*
X003560Y013882D01*
X003818Y014140D01*
X004000Y014140D01*
X004000Y013700D01*
X003560Y013700D01*
X003560Y013518D01*
X003818Y013260D01*
X004000Y013314D02*
X004000Y013314D01*
X004000Y013473D02*
X004000Y013473D01*
X004000Y013631D02*
X004000Y013631D01*
X004000Y013790D02*
X004000Y013790D01*
X004000Y013948D02*
X004000Y013948D01*
X004000Y014107D02*
X004000Y014107D01*
X004216Y014107D02*
X004756Y014107D01*
X004597Y013948D02*
X004374Y013948D01*
X004440Y013790D02*
X004540Y013790D01*
X004540Y013631D02*
X004440Y013631D01*
X004395Y013473D02*
X004577Y013473D01*
X004735Y013314D02*
X004236Y013314D01*
X003605Y013473D02*
X000480Y013473D01*
X000480Y013631D02*
X003560Y013631D01*
X003560Y013790D02*
X000480Y013790D01*
X000480Y013948D02*
X003626Y013948D01*
X003784Y014107D02*
X000480Y014107D01*
X000480Y014265D02*
X005990Y014265D01*
X005990Y014424D02*
X000480Y014424D01*
X000480Y014582D02*
X005990Y014582D01*
X005800Y013900D02*
X005600Y013700D01*
X005000Y013700D01*
X005265Y013314D02*
X005990Y013314D01*
X005990Y013473D02*
X005769Y013473D01*
X005990Y012522D02*
X003372Y012522D01*
X003282Y012340D02*
X003100Y012340D01*
X003100Y011900D01*
X003100Y011900D01*
X003540Y011900D01*
X003540Y012082D01*
X003282Y012340D01*
X003100Y012340D02*
X002918Y012340D01*
X002660Y012082D01*
X002660Y011900D01*
X003100Y011900D01*
X003100Y011900D01*
X003100Y011900D01*
X003100Y012340D01*
X003100Y012205D02*
X003100Y012205D01*
X003100Y012046D02*
X003100Y012046D01*
X003100Y011900D02*
X002660Y011900D01*
X002660Y011718D01*
X002918Y011460D01*
X003100Y011460D01*
X003282Y011460D01*
X003540Y011718D01*
X003540Y011900D01*
X003100Y011900D01*
X003100Y011460D01*
X003100Y011900D01*
X003100Y011900D01*
X003100Y011888D02*
X003100Y011888D01*
X003100Y011729D02*
X003100Y011729D01*
X003100Y011571D02*
X003100Y011571D01*
X003393Y011571D02*
X006107Y011571D01*
X005990Y011729D02*
X003540Y011729D01*
X003540Y011888D02*
X005990Y011888D01*
X005990Y012046D02*
X003540Y012046D01*
X003418Y012205D02*
X005990Y012205D01*
X005990Y012363D02*
X000480Y012363D01*
X000480Y012205D02*
X002782Y012205D01*
X002660Y012046D02*
X000480Y012046D01*
X000480Y011888D02*
X002660Y011888D01*
X002660Y011729D02*
X000480Y011729D01*
X000480Y011571D02*
X002807Y011571D01*
X002828Y012522D02*
X000480Y012522D01*
X000480Y012680D02*
X002669Y012680D01*
X004086Y010937D02*
X000480Y010937D01*
X000480Y011095D02*
X006310Y011095D01*
X006310Y010937D02*
X004514Y010937D01*
X004673Y010778D02*
X006310Y010778D01*
X006310Y010620D02*
X004760Y010620D01*
X004760Y010461D02*
X006310Y010461D01*
X006310Y010303D02*
X004753Y010303D01*
X004595Y010144D02*
X006310Y010144D01*
X006310Y009986D02*
X003400Y009986D01*
X003400Y009900D02*
X002980Y009900D01*
X002980Y009900D01*
X003400Y009900D01*
X003400Y009827D02*
X003976Y009827D01*
X004070Y010270D02*
X004300Y010500D01*
X004070Y010270D02*
X002980Y010270D01*
X002500Y010000D02*
X002502Y009959D01*
X002507Y009918D01*
X002516Y009878D01*
X002528Y009839D01*
X002544Y009801D01*
X002563Y009765D01*
X002585Y009730D01*
X002610Y009698D01*
X002638Y009668D01*
X002668Y009640D01*
X002700Y009615D01*
X002735Y009593D01*
X002771Y009574D01*
X002809Y009558D01*
X002848Y009546D01*
X002888Y009537D01*
X002929Y009532D01*
X002970Y009530D01*
X002980Y009530D01*
X003010Y009500D01*
X004300Y009500D01*
X006300Y009500D01*
X006231Y009827D02*
X004624Y009827D01*
X003840Y010620D02*
X000480Y010620D01*
X000480Y010778D02*
X003927Y010778D01*
X002548Y010461D02*
X002547Y010461D01*
X002230Y010270D02*
X002020Y010270D01*
X002230Y010270D02*
X002260Y010268D01*
X002290Y010263D01*
X002319Y010255D01*
X002347Y010243D01*
X002374Y010229D01*
X002398Y010211D01*
X002421Y010191D01*
X002441Y010168D01*
X002459Y010144D01*
X002473Y010117D01*
X002485Y010089D01*
X002493Y010060D01*
X002498Y010030D01*
X002500Y010000D01*
X002020Y009530D02*
X001530Y009530D01*
X001000Y009000D01*
X001000Y008500D01*
X001500Y008000D01*
X006100Y008000D01*
X007600Y009500D01*
X007600Y010400D01*
X007800Y010600D01*
X007800Y011900D01*
X008080Y010937D02*
X012800Y010937D01*
X012800Y010778D02*
X008080Y010778D01*
X008080Y010620D02*
X012800Y010620D01*
X012800Y010461D02*
X008045Y010461D01*
X007898Y010303D02*
X012800Y010303D01*
X012800Y010144D02*
X007880Y010144D01*
X007880Y009986D02*
X012800Y009986D01*
X012800Y009827D02*
X007880Y009827D01*
X007880Y009669D02*
X012800Y009669D01*
X012800Y009510D02*
X007880Y009510D01*
X007842Y009352D02*
X012800Y009352D01*
X012800Y009193D02*
X007689Y009193D01*
X007530Y009035D02*
X012800Y009035D01*
X012800Y008876D02*
X007420Y008876D01*
X007578Y008718D02*
X012800Y008718D01*
X012800Y008559D02*
X007737Y008559D01*
X007895Y008401D02*
X012800Y008401D01*
X012800Y008242D02*
X008054Y008242D01*
X008212Y008084D02*
X012800Y008084D01*
X012800Y007925D02*
X008371Y007925D01*
X008529Y007767D02*
X012800Y007767D01*
X012800Y007608D02*
X008688Y007608D01*
X008846Y007450D02*
X012800Y007450D01*
X012800Y007291D02*
X009005Y007291D01*
X009163Y007133D02*
X012800Y007133D01*
X012800Y006974D02*
X009322Y006974D01*
X009480Y006816D02*
X012800Y006816D01*
X012800Y006657D02*
X009638Y006657D01*
X009680Y006499D02*
X012800Y006499D01*
X012800Y006340D02*
X009680Y006340D01*
X009680Y006182D02*
X012800Y006182D01*
X012800Y006023D02*
X009680Y006023D01*
X009660Y005548D02*
X015040Y005548D01*
X015040Y005706D02*
X013300Y005706D01*
X013298Y005865D02*
X015040Y005865D01*
X015103Y006023D02*
X013297Y006023D01*
X013295Y006182D02*
X015240Y006182D01*
X015092Y006340D02*
X013294Y006340D01*
X013292Y006499D02*
X014934Y006499D01*
X014775Y006657D02*
X013290Y006657D01*
X013289Y006816D02*
X014617Y006816D01*
X014458Y006974D02*
X013287Y006974D01*
X013286Y007133D02*
X014300Y007133D01*
X014141Y007291D02*
X013284Y007291D01*
X013283Y007450D02*
X014040Y007450D01*
X014040Y007608D02*
X013281Y007608D01*
X013279Y007767D02*
X014040Y007767D01*
X014040Y007925D02*
X013278Y007925D01*
X013276Y008084D02*
X014053Y008084D01*
X014174Y008242D02*
X013275Y008242D01*
X014560Y007767D02*
X018466Y007767D01*
X018884Y008084D02*
X020540Y008084D01*
X020540Y008238D02*
X020360Y008418D01*
X020360Y008782D01*
X020618Y009040D01*
X020982Y009040D01*
X021240Y008782D01*
X021240Y008418D01*
X021060Y008238D01*
X021060Y006840D01*
X021182Y006840D01*
X021362Y006660D01*
X022652Y006660D01*
X022680Y006648D01*
X023040Y007008D01*
X023040Y007471D01*
X023110Y007641D01*
X023239Y007770D01*
X023408Y007840D01*
X023591Y007840D01*
X023761Y007770D01*
X023890Y007641D01*
X023960Y007471D01*
X023960Y006728D01*
X023890Y006559D01*
X023761Y006430D01*
X023591Y006360D01*
X023408Y006360D01*
X023239Y006430D01*
X023219Y006451D01*
X022847Y006080D01*
X022752Y006040D01*
X022648Y006040D01*
X022553Y006080D01*
X022492Y006140D01*
X021362Y006140D01*
X021182Y005960D01*
X020818Y005960D01*
X020560Y006218D01*
X020560Y006500D01*
X020540Y006548D01*
X020540Y008238D01*
X020536Y008242D02*
X020064Y008242D01*
X020223Y008401D02*
X020377Y008401D01*
X020360Y008559D02*
X020240Y008559D01*
X020240Y008718D02*
X020360Y008718D01*
X020454Y008876D02*
X020146Y008876D01*
X019988Y009035D02*
X020612Y009035D01*
X020988Y009035D02*
X027790Y009035D01*
X027790Y009193D02*
X018237Y009193D01*
X018237Y009035D02*
X019612Y009035D01*
X019750Y008650D02*
X019800Y008600D01*
X019750Y008650D02*
X017624Y008650D01*
X017624Y009150D02*
X017624Y009150D01*
X017624Y009193D02*
X017624Y009193D01*
X017624Y009352D02*
X017624Y009352D01*
X017624Y009510D02*
X017624Y009510D01*
X017624Y009669D02*
X017624Y009669D01*
X017624Y009827D02*
X017624Y009827D01*
X018227Y009827D02*
X027790Y009827D01*
X027790Y009669D02*
X018237Y009669D01*
X018237Y009510D02*
X027790Y009510D01*
X027790Y009352D02*
X018216Y009352D01*
X018726Y008242D02*
X019536Y008242D01*
X019043Y007925D02*
X020540Y007925D01*
X020540Y007767D02*
X019154Y007767D01*
X019160Y007608D02*
X020540Y007608D01*
X020540Y007450D02*
X019160Y007450D01*
X019177Y007291D02*
X020540Y007291D01*
X020540Y007133D02*
X019335Y007133D01*
X019494Y006974D02*
X020540Y006974D01*
X020540Y006816D02*
X019652Y006816D01*
X019811Y006657D02*
X020540Y006657D01*
X020560Y006499D02*
X019969Y006499D01*
X020128Y006340D02*
X020560Y006340D01*
X020596Y006182D02*
X020286Y006182D01*
X020445Y006023D02*
X020755Y006023D01*
X020603Y005865D02*
X027790Y005865D01*
X027790Y006023D02*
X021245Y006023D01*
X021316Y005706D02*
X027790Y005706D01*
X027790Y005548D02*
X022720Y005548D01*
X022879Y005389D02*
X027790Y005389D01*
X027790Y005231D02*
X023037Y005231D01*
X023196Y005072D02*
X027790Y005072D01*
X027790Y004914D02*
X023354Y004914D01*
X022936Y004597D02*
X015760Y004597D01*
X015760Y004755D02*
X022777Y004755D01*
X022619Y004914D02*
X016844Y004914D01*
X016851Y004920D02*
X016893Y004979D01*
X016926Y005043D01*
X016949Y005112D01*
X016960Y005184D01*
X016960Y005490D01*
X016510Y005490D01*
X016510Y005510D01*
X016490Y005510D01*
X016490Y006240D01*
X016464Y006240D01*
X016392Y006229D01*
X016323Y006206D01*
X016259Y006173D01*
X016200Y006131D01*
X016149Y006080D01*
X016107Y006021D01*
X016074Y005957D01*
X016051Y005888D01*
X016040Y005816D01*
X016040Y005510D01*
X016490Y005510D01*
X016490Y005490D01*
X016040Y005490D01*
X016040Y005184D01*
X016051Y005112D01*
X016074Y005043D01*
X016107Y004979D01*
X016149Y004920D01*
X016200Y004869D01*
X016259Y004827D01*
X016323Y004794D01*
X016392Y004771D01*
X016464Y004760D01*
X016490Y004760D01*
X016490Y005490D01*
X016510Y005490D01*
X016510Y004760D01*
X016536Y004760D01*
X016608Y004771D01*
X016677Y004794D01*
X016741Y004827D01*
X016800Y004869D01*
X016851Y004920D01*
X016936Y005072D02*
X020706Y005072D01*
X020502Y005231D02*
X016960Y005231D01*
X016960Y005389D02*
X020343Y005389D01*
X020185Y005548D02*
X016960Y005548D01*
X016960Y005510D02*
X016960Y005816D01*
X016949Y005888D01*
X016926Y005957D01*
X016893Y006021D01*
X016851Y006080D01*
X016800Y006131D01*
X016741Y006173D01*
X016677Y006206D01*
X016608Y006229D01*
X016536Y006240D01*
X016510Y006240D01*
X016510Y005510D01*
X016960Y005510D01*
X016960Y005706D02*
X020026Y005706D01*
X019868Y005865D02*
X016952Y005865D01*
X016892Y006023D02*
X019709Y006023D01*
X019551Y006182D02*
X016725Y006182D01*
X016510Y006182D02*
X016490Y006182D01*
X016490Y006023D02*
X016510Y006023D01*
X016510Y005865D02*
X016490Y005865D01*
X016490Y005706D02*
X016510Y005706D01*
X016510Y005548D02*
X016490Y005548D01*
X016490Y005389D02*
X016510Y005389D01*
X016510Y005231D02*
X016490Y005231D01*
X016490Y005072D02*
X016510Y005072D01*
X016510Y004914D02*
X016490Y004914D01*
X016156Y004914D02*
X015844Y004914D01*
X015937Y005072D02*
X016064Y005072D01*
X016040Y005231D02*
X015960Y005231D01*
X015960Y005389D02*
X016040Y005389D01*
X016040Y005548D02*
X015960Y005548D01*
X015960Y005706D02*
X016040Y005706D01*
X016048Y005865D02*
X015960Y005865D01*
X015897Y006023D02*
X016108Y006023D01*
X016275Y006182D02*
X015760Y006182D01*
X015760Y006340D02*
X019392Y006340D01*
X019234Y006499D02*
X015669Y006499D01*
X015511Y006657D02*
X019075Y006657D01*
X018917Y006816D02*
X015352Y006816D01*
X015194Y006974D02*
X018758Y006974D01*
X018647Y007133D02*
X015035Y007133D01*
X014877Y007291D02*
X018640Y007291D01*
X020800Y006600D02*
X020800Y008600D01*
X021240Y008559D02*
X027790Y008559D01*
X027790Y008401D02*
X021223Y008401D01*
X021064Y008242D02*
X027790Y008242D01*
X027790Y008084D02*
X021060Y008084D01*
X021060Y007925D02*
X027790Y007925D01*
X027790Y007767D02*
X024751Y007767D01*
X024741Y007773D02*
X024677Y007806D01*
X024608Y007829D01*
X024536Y007840D01*
X024510Y007840D01*
X024510Y007110D01*
X024960Y007110D01*
X024960Y007416D01*
X024949Y007488D01*
X024926Y007557D01*
X024893Y007621D01*
X024851Y007680D01*
X024800Y007731D01*
X024741Y007773D01*
X024900Y007608D02*
X027790Y007608D01*
X027790Y007450D02*
X024955Y007450D01*
X024960Y007291D02*
X027790Y007291D01*
X027790Y007133D02*
X024960Y007133D01*
X024960Y007090D02*
X024510Y007090D01*
X024510Y007110D01*
X024490Y007110D01*
X024490Y007840D01*
X024464Y007840D01*
X024392Y007829D01*
X024323Y007806D01*
X024259Y007773D01*
X024200Y007731D01*
X024149Y007680D01*
X024107Y007621D01*
X024074Y007557D01*
X024051Y007488D01*
X024040Y007416D01*
X024040Y007110D01*
X024490Y007110D01*
X024490Y007090D01*
X024510Y007090D01*
X024510Y006360D01*
X024536Y006360D01*
X024608Y006371D01*
X024677Y006394D01*
X024741Y006427D01*
X024800Y006469D01*
X024851Y006520D01*
X024893Y006579D01*
X024926Y006643D01*
X024949Y006712D01*
X024960Y006784D01*
X024960Y007090D01*
X024960Y006974D02*
X027790Y006974D01*
X027790Y006816D02*
X024960Y006816D01*
X024931Y006657D02*
X027790Y006657D01*
X027790Y006499D02*
X024829Y006499D01*
X024510Y006499D02*
X024490Y006499D01*
X024490Y006360D02*
X024490Y007090D01*
X024040Y007090D01*
X024040Y006784D01*
X024051Y006712D01*
X024074Y006643D01*
X024107Y006579D01*
X024149Y006520D01*
X024200Y006469D01*
X024259Y006427D01*
X024323Y006394D01*
X024392Y006371D01*
X024464Y006360D01*
X024490Y006360D01*
X024490Y006657D02*
X024510Y006657D01*
X024510Y006816D02*
X024490Y006816D01*
X024490Y006974D02*
X024510Y006974D01*
X024510Y007133D02*
X024490Y007133D01*
X024490Y007291D02*
X024510Y007291D01*
X024510Y007450D02*
X024490Y007450D01*
X024490Y007608D02*
X024510Y007608D01*
X024510Y007767D02*
X024490Y007767D01*
X024249Y007767D02*
X023764Y007767D01*
X023903Y007608D02*
X024100Y007608D01*
X024045Y007450D02*
X023960Y007450D01*
X023960Y007291D02*
X024040Y007291D01*
X024040Y007133D02*
X023960Y007133D01*
X023960Y006974D02*
X024040Y006974D01*
X024040Y006816D02*
X023960Y006816D01*
X023930Y006657D02*
X024069Y006657D01*
X024171Y006499D02*
X023829Y006499D01*
X023500Y007100D02*
X022700Y006300D01*
X022600Y006400D01*
X021000Y006400D01*
X020800Y006600D01*
X021060Y006974D02*
X023006Y006974D01*
X023040Y007133D02*
X021060Y007133D01*
X021060Y007291D02*
X023040Y007291D01*
X023040Y007450D02*
X021060Y007450D01*
X021060Y007608D02*
X023097Y007608D01*
X023236Y007767D02*
X021060Y007767D01*
X021240Y008718D02*
X027790Y008718D01*
X027790Y008876D02*
X021146Y008876D01*
X021207Y006816D02*
X022848Y006816D01*
X022689Y006657D02*
X022659Y006657D01*
X023108Y006340D02*
X027790Y006340D01*
X027790Y006182D02*
X022949Y006182D01*
X022460Y005072D02*
X021294Y005072D01*
X023094Y004438D02*
X015760Y004438D01*
X015760Y004280D02*
X023253Y004280D01*
X023411Y004121D02*
X015760Y004121D01*
X015724Y003963D02*
X023594Y003963D01*
X024160Y003487D02*
X015255Y003487D01*
X015413Y003646D02*
X024403Y003646D01*
X024274Y003804D02*
X015572Y003804D01*
X015153Y004121D02*
X014613Y004121D01*
X014674Y003963D02*
X014995Y003963D01*
X015240Y004280D02*
X009660Y004280D01*
X009660Y004438D02*
X015240Y004438D01*
X015240Y004597D02*
X009660Y004597D01*
X009660Y004755D02*
X015240Y004755D01*
X015156Y004914D02*
X009660Y004914D01*
X009660Y005072D02*
X015063Y005072D01*
X015040Y005231D02*
X009660Y005231D01*
X009660Y005389D02*
X015040Y005389D01*
X013587Y004121D02*
X012713Y004121D01*
X012774Y003963D02*
X013526Y003963D01*
X011687Y004121D02*
X010974Y004121D01*
X010974Y003487D02*
X011626Y003487D01*
X011626Y003329D02*
X010881Y003329D01*
X009919Y003329D02*
X008981Y003329D01*
X009074Y003487D02*
X009826Y003487D01*
X009400Y003791D02*
X008500Y003791D01*
X006600Y003791D01*
X006539Y003730D01*
X003600Y003730D01*
X002966Y003487D02*
X002872Y003487D01*
X002966Y003329D02*
X002623Y003329D01*
X002668Y002853D02*
X002966Y002853D01*
X002966Y002695D02*
X002890Y002695D01*
X003055Y002061D02*
X011712Y002061D01*
X011626Y002219D02*
X010953Y002219D01*
X010974Y002378D02*
X011626Y002378D01*
X009847Y002219D02*
X009047Y002219D01*
X009038Y002204D02*
X009061Y002245D01*
X009074Y002290D01*
X009074Y002542D01*
X008568Y002542D01*
X008568Y002677D01*
X009074Y002677D01*
X009074Y002928D01*
X009061Y002974D01*
X009038Y003015D01*
X009004Y003049D01*
X008963Y003072D01*
X008917Y003085D01*
X008568Y003085D01*
X008568Y002677D01*
X008432Y002677D01*
X008432Y002542D01*
X007926Y002542D01*
X007926Y002290D01*
X007939Y002245D01*
X007962Y002204D01*
X007996Y002170D01*
X008037Y002146D01*
X008083Y002134D01*
X008432Y002134D01*
X008432Y002542D01*
X008568Y002542D01*
X008568Y002134D01*
X008917Y002134D01*
X008963Y002146D01*
X009004Y002170D01*
X009038Y002204D01*
X009074Y002378D02*
X009826Y002378D01*
X009826Y002536D02*
X009074Y002536D01*
X009074Y002695D02*
X009826Y002695D01*
X009826Y002853D02*
X009074Y002853D01*
X009040Y003012D02*
X009859Y003012D01*
X008568Y003012D02*
X008432Y003012D01*
X008432Y003085D02*
X008083Y003085D01*
X008037Y003072D01*
X007996Y003049D01*
X007962Y003015D01*
X007939Y002974D01*
X007926Y002928D01*
X007926Y002677D01*
X008432Y002677D01*
X008432Y003085D01*
X008432Y002853D02*
X008568Y002853D01*
X008568Y002695D02*
X008432Y002695D01*
X008432Y002536D02*
X008568Y002536D01*
X008568Y002378D02*
X008432Y002378D01*
X008432Y002219D02*
X008568Y002219D01*
X007953Y002219D02*
X007147Y002219D01*
X007138Y002204D02*
X007161Y002245D01*
X007174Y002290D01*
X007174Y002542D01*
X006668Y002542D01*
X006668Y002134D01*
X007017Y002134D01*
X007063Y002146D01*
X007104Y002170D01*
X007138Y002204D01*
X007174Y002378D02*
X007926Y002378D01*
X007926Y002536D02*
X007174Y002536D01*
X007174Y002695D02*
X007926Y002695D01*
X007926Y002853D02*
X007174Y002853D01*
X007140Y003012D02*
X007960Y003012D01*
X008019Y003329D02*
X007081Y003329D01*
X007174Y003487D02*
X007926Y003487D01*
X007926Y004121D02*
X007174Y004121D01*
X006026Y004121D02*
X003062Y004121D01*
X002726Y004597D02*
X002641Y004597D01*
X002726Y004755D02*
X001865Y004755D01*
X001865Y004597D02*
X002147Y004597D01*
X001908Y004438D02*
X001865Y004438D01*
X001791Y004280D02*
X001781Y004280D01*
X001865Y004914D02*
X002726Y004914D01*
X002726Y005072D02*
X001865Y005072D01*
X001865Y005231D02*
X002726Y005231D01*
X002814Y005389D02*
X001777Y005389D01*
X004030Y004755D02*
X009140Y004755D01*
X009140Y004597D02*
X004030Y004597D01*
X004030Y004438D02*
X009140Y004438D01*
X009140Y004280D02*
X003946Y004280D01*
X004234Y003329D02*
X006119Y003329D01*
X006532Y003012D02*
X006668Y003012D01*
X006668Y002853D02*
X006532Y002853D01*
X006532Y002695D02*
X006668Y002695D01*
X006668Y002536D02*
X006532Y002536D01*
X006532Y002378D02*
X006668Y002378D01*
X006668Y002219D02*
X006532Y002219D01*
X003600Y002219D02*
X003600Y002219D01*
X003600Y002378D02*
X003600Y002378D01*
X003600Y002470D02*
X003600Y002470D01*
X002726Y001585D02*
X002596Y001585D01*
X002726Y001427D02*
X001865Y001427D01*
X001865Y001585D02*
X002191Y001585D01*
X001927Y001744D02*
X001865Y001744D01*
X001865Y001268D02*
X002726Y001268D01*
X002726Y001110D02*
X001865Y001110D01*
X001865Y000951D02*
X002726Y000951D01*
X000480Y000634D02*
X027790Y000634D01*
X024810Y002853D02*
X024790Y002853D01*
X024790Y003012D02*
X024810Y003012D01*
X024810Y003170D02*
X024790Y003170D01*
X024790Y003329D02*
X024810Y003329D01*
X024810Y003487D02*
X024790Y003487D01*
X024790Y003646D02*
X024810Y003646D01*
X027790Y009986D02*
X013257Y009986D01*
X013256Y010144D02*
X027790Y010144D01*
X027790Y010303D02*
X013254Y010303D01*
X013252Y010461D02*
X027790Y010461D01*
X027790Y010620D02*
X013251Y010620D01*
X013249Y010778D02*
X027790Y010778D01*
X027790Y016167D02*
X004184Y016167D01*
X003616Y016167D02*
X003155Y016167D01*
X003314Y016009D02*
X003458Y016009D01*
X002900Y016009D02*
X002900Y016009D01*
X002900Y016167D02*
X002900Y016167D01*
X002900Y016240D02*
X002718Y016240D01*
X002460Y015982D01*
X002460Y015800D01*
X002900Y015800D01*
X002900Y015800D01*
X002900Y015800D01*
X002900Y016240D01*
X002645Y016167D02*
X000480Y016167D01*
X000480Y016009D02*
X002486Y016009D01*
X002460Y015850D02*
X000480Y015850D01*
X000480Y015692D02*
X002460Y015692D01*
X002460Y015618D02*
X002718Y015360D01*
X002900Y015360D01*
X002900Y015800D01*
X002460Y015800D01*
X002460Y015618D01*
X002545Y015533D02*
X000480Y015533D01*
X000480Y015375D02*
X002703Y015375D01*
X002900Y015375D02*
X002900Y015375D01*
X002900Y015533D02*
X002900Y015533D01*
X002900Y015692D02*
X002900Y015692D01*
X002900Y015850D02*
X002900Y015850D01*
X000480Y016326D02*
X027790Y016326D01*
X027790Y016484D02*
X000480Y016484D01*
X000480Y016643D02*
X027790Y016643D01*
X027790Y016801D02*
X000480Y016801D01*
X007087Y015216D02*
X009720Y015216D01*
X009621Y015058D02*
X009589Y015058D01*
X009590Y014899D02*
X009620Y014899D01*
X009620Y014741D02*
X009588Y014741D01*
X009610Y014107D02*
X010240Y014107D01*
X010240Y014265D02*
X010061Y014265D01*
X010171Y014424D02*
X010373Y014424D01*
X010152Y013948D02*
X009610Y013948D01*
X009610Y013790D02*
X009994Y013790D01*
X009010Y015058D02*
X009010Y015058D01*
X008431Y015058D02*
X007190Y015058D01*
X007190Y014899D02*
X008430Y014899D01*
X008432Y014741D02*
X007190Y014741D01*
X007914Y014582D02*
X008410Y014582D01*
X008410Y014424D02*
X008052Y014424D01*
X008080Y014265D02*
X008410Y014265D01*
X010767Y015216D02*
X011262Y015216D01*
X011103Y015375D02*
X010925Y015375D01*
X011897Y015375D02*
X012800Y015375D01*
X012800Y015533D02*
X011940Y015533D01*
X011940Y015692D02*
X012800Y015692D01*
X012800Y015850D02*
X011872Y015850D01*
X006310Y011412D02*
X000480Y011412D01*
X000480Y011254D02*
X006310Y011254D01*
X006896Y008401D02*
X007104Y008401D01*
X007262Y008242D02*
X006738Y008242D01*
X006579Y008084D02*
X007421Y008084D01*
X007579Y007925D02*
X006421Y007925D01*
X006262Y007767D02*
X007738Y007767D01*
X007896Y007608D02*
X000480Y007608D01*
X000480Y007450D02*
X008055Y007450D01*
X008213Y007291D02*
X000480Y007291D01*
X000480Y007133D02*
X008372Y007133D01*
X006210Y006816D02*
X006190Y006816D01*
X006190Y006657D02*
X006210Y006657D01*
X006210Y006499D02*
X006190Y006499D01*
X006190Y005389D02*
X006210Y005389D01*
X006210Y005231D02*
X006190Y005231D01*
X006190Y005072D02*
X006210Y005072D01*
X009074Y004121D02*
X009140Y004121D01*
X009660Y004121D02*
X009826Y004121D01*
X001694Y009827D02*
X000480Y009827D01*
X000480Y009669D02*
X001273Y009669D01*
X001114Y009510D02*
X000480Y009510D01*
X000480Y009352D02*
X000956Y009352D01*
X000797Y009193D02*
X000480Y009193D01*
X000480Y009035D02*
X000720Y009035D01*
X000720Y008876D02*
X000480Y008876D01*
X000480Y008718D02*
X000720Y008718D01*
X000720Y008559D02*
X000480Y008559D01*
X000480Y008401D02*
X000738Y008401D01*
X000862Y008242D02*
X000480Y008242D01*
X000480Y008084D02*
X001021Y008084D01*
X001179Y007925D02*
X000480Y007925D01*
X000480Y007767D02*
X001338Y007767D01*
X001682Y009986D02*
X000480Y009986D01*
X000480Y010144D02*
X001580Y010144D01*
X001580Y010303D02*
X000480Y010303D01*
X000480Y010461D02*
X001588Y010461D01*
M02*
