%
M48
M72
T01C0.0320
T02C0.0360
T03C0.0394
%
T01
X12663Y10080
X12663Y11080
X11463Y12480
X11463Y13480
X12363Y14280
X13363Y14280
X12263Y16380
X11263Y16380
X18863Y16180
X19863Y16180
X20063Y14680
X19063Y14680
X18963Y13480
X19963Y13480
X28163Y9180
X29163Y9180
X29363Y6980
X29363Y5980
T02
X31863Y7680
X32863Y7680
X33163Y4780
X33163Y3780
X24863Y6080
X23863Y6080
X21863Y12280
X20863Y12280
X14563Y6980
X14563Y5980
T03
X10757Y2814
X10757Y4546
M30
