G75*
%MOIN*%
%OFA0B0*%
%FSLAX24Y24*%
%IPPOS*%
%LPD*%
%AMOC8*
5,1,8,0,0,1.08239X$1,22.5*
%
%ADD10C,0.0000*%
D10*
X000000Y000000D02*
X000000Y017296D01*
X028270Y017296D01*
X028270Y000000D01*
X000000Y000000D01*
X002197Y002234D02*
X002199Y002261D01*
X002205Y002288D01*
X002214Y002314D01*
X002227Y002338D01*
X002243Y002361D01*
X002262Y002380D01*
X002284Y002397D01*
X002308Y002411D01*
X002333Y002421D01*
X002360Y002428D01*
X002387Y002431D01*
X002415Y002430D01*
X002442Y002425D01*
X002468Y002417D01*
X002492Y002405D01*
X002515Y002389D01*
X002536Y002371D01*
X002553Y002350D01*
X002568Y002326D01*
X002579Y002301D01*
X002587Y002275D01*
X002591Y002248D01*
X002591Y002220D01*
X002587Y002193D01*
X002579Y002167D01*
X002568Y002142D01*
X002553Y002118D01*
X002536Y002097D01*
X002515Y002079D01*
X002493Y002063D01*
X002468Y002051D01*
X002442Y002043D01*
X002415Y002038D01*
X002387Y002037D01*
X002360Y002040D01*
X002333Y002047D01*
X002308Y002057D01*
X002284Y002071D01*
X002262Y002088D01*
X002243Y002107D01*
X002227Y002130D01*
X002214Y002154D01*
X002205Y002180D01*
X002199Y002207D01*
X002197Y002234D01*
X002197Y003966D02*
X002199Y003993D01*
X002205Y004020D01*
X002214Y004046D01*
X002227Y004070D01*
X002243Y004093D01*
X002262Y004112D01*
X002284Y004129D01*
X002308Y004143D01*
X002333Y004153D01*
X002360Y004160D01*
X002387Y004163D01*
X002415Y004162D01*
X002442Y004157D01*
X002468Y004149D01*
X002492Y004137D01*
X002515Y004121D01*
X002536Y004103D01*
X002553Y004082D01*
X002568Y004058D01*
X002579Y004033D01*
X002587Y004007D01*
X002591Y003980D01*
X002591Y003952D01*
X002587Y003925D01*
X002579Y003899D01*
X002568Y003874D01*
X002553Y003850D01*
X002536Y003829D01*
X002515Y003811D01*
X002493Y003795D01*
X002468Y003783D01*
X002442Y003775D01*
X002415Y003770D01*
X002387Y003769D01*
X002360Y003772D01*
X002333Y003779D01*
X002308Y003789D01*
X002284Y003803D01*
X002262Y003820D01*
X002243Y003839D01*
X002227Y003862D01*
X002214Y003886D01*
X002205Y003912D01*
X002199Y003939D01*
X002197Y003966D01*
M02*
