G75*
%MOIN*%
%OFA0B0*%
%FSLAX24Y24*%
%IPPOS*%
%LPD*%
%AMOC8*
5,1,8,0,0,1.08239X$1,22.5*
%
%ADD10C,0.0000*%
D10*
X008363Y000580D02*
X008363Y017876D01*
X036633Y017876D01*
X036633Y000580D01*
X008363Y000580D01*
X010560Y002814D02*
X010562Y002841D01*
X010568Y002868D01*
X010577Y002894D01*
X010590Y002918D01*
X010606Y002941D01*
X010625Y002960D01*
X010647Y002977D01*
X010671Y002991D01*
X010696Y003001D01*
X010723Y003008D01*
X010750Y003011D01*
X010778Y003010D01*
X010805Y003005D01*
X010831Y002997D01*
X010855Y002985D01*
X010878Y002969D01*
X010899Y002951D01*
X010916Y002930D01*
X010931Y002906D01*
X010942Y002881D01*
X010950Y002855D01*
X010954Y002828D01*
X010954Y002800D01*
X010950Y002773D01*
X010942Y002747D01*
X010931Y002722D01*
X010916Y002698D01*
X010899Y002677D01*
X010878Y002659D01*
X010856Y002643D01*
X010831Y002631D01*
X010805Y002623D01*
X010778Y002618D01*
X010750Y002617D01*
X010723Y002620D01*
X010696Y002627D01*
X010671Y002637D01*
X010647Y002651D01*
X010625Y002668D01*
X010606Y002687D01*
X010590Y002710D01*
X010577Y002734D01*
X010568Y002760D01*
X010562Y002787D01*
X010560Y002814D01*
X010560Y004546D02*
X010562Y004573D01*
X010568Y004600D01*
X010577Y004626D01*
X010590Y004650D01*
X010606Y004673D01*
X010625Y004692D01*
X010647Y004709D01*
X010671Y004723D01*
X010696Y004733D01*
X010723Y004740D01*
X010750Y004743D01*
X010778Y004742D01*
X010805Y004737D01*
X010831Y004729D01*
X010855Y004717D01*
X010878Y004701D01*
X010899Y004683D01*
X010916Y004662D01*
X010931Y004638D01*
X010942Y004613D01*
X010950Y004587D01*
X010954Y004560D01*
X010954Y004532D01*
X010950Y004505D01*
X010942Y004479D01*
X010931Y004454D01*
X010916Y004430D01*
X010899Y004409D01*
X010878Y004391D01*
X010856Y004375D01*
X010831Y004363D01*
X010805Y004355D01*
X010778Y004350D01*
X010750Y004349D01*
X010723Y004352D01*
X010696Y004359D01*
X010671Y004369D01*
X010647Y004383D01*
X010625Y004400D01*
X010606Y004419D01*
X010590Y004442D01*
X010577Y004466D01*
X010568Y004492D01*
X010562Y004519D01*
X010560Y004546D01*
M02*
