G75*
%MOIN*%
%OFA0B0*%
%FSLAX24Y24*%
%IPPOS*%
%LPD*%
%AMOC8*
5,1,8,0,0,1.08239X$1,22.5*
%
%ADD10C,0.0060*%
%ADD11C,0.0020*%
%ADD12C,0.0050*%
%ADD13C,0.0030*%
%ADD14C,0.0080*%
%ADD15C,0.0040*%
%ADD16C,0.0200*%
D10*
X014063Y005580D02*
X014163Y005480D01*
X014963Y005480D01*
X015063Y005580D01*
X015063Y006380D01*
X014963Y006480D01*
X015063Y006580D01*
X015063Y007380D01*
X014963Y007480D01*
X014163Y007480D01*
X014063Y007380D01*
X014063Y006580D01*
X014163Y006480D01*
X014063Y006380D01*
X014063Y005580D01*
X011023Y009910D02*
X010983Y009910D01*
X010743Y009910D01*
X010703Y009910D01*
X010743Y009910D02*
X010745Y009931D01*
X010750Y009951D01*
X010759Y009970D01*
X010771Y009987D01*
X010786Y010002D01*
X010803Y010014D01*
X010822Y010023D01*
X010842Y010028D01*
X010863Y010030D01*
X010884Y010028D01*
X010904Y010023D01*
X010923Y010014D01*
X010940Y010002D01*
X010955Y009987D01*
X010967Y009970D01*
X010976Y009951D01*
X010981Y009931D01*
X010983Y009910D01*
X010523Y010340D02*
X010523Y010620D01*
X010703Y011050D02*
X011023Y011050D01*
X015393Y012380D02*
X015393Y015580D01*
X015395Y015603D01*
X015400Y015626D01*
X015409Y015648D01*
X015422Y015668D01*
X015437Y015686D01*
X015455Y015701D01*
X015475Y015714D01*
X015497Y015723D01*
X015520Y015728D01*
X015543Y015730D01*
X016783Y015730D01*
X016806Y015728D01*
X016829Y015723D01*
X016851Y015714D01*
X016871Y015701D01*
X016889Y015686D01*
X016904Y015668D01*
X016917Y015648D01*
X016926Y015626D01*
X016931Y015603D01*
X016933Y015580D01*
X016933Y012380D01*
X016931Y012357D01*
X016926Y012334D01*
X016917Y012312D01*
X016904Y012292D01*
X016889Y012274D01*
X016871Y012259D01*
X016851Y012246D01*
X016829Y012237D01*
X016806Y012232D01*
X016783Y012230D01*
X016363Y012230D01*
X015963Y012230D01*
X015543Y012230D01*
X015520Y012232D01*
X015497Y012237D01*
X015475Y012246D01*
X015455Y012259D01*
X015437Y012274D01*
X015422Y012292D01*
X015409Y012312D01*
X015400Y012334D01*
X015395Y012357D01*
X015393Y012380D01*
X015963Y012230D02*
X015965Y012257D01*
X015970Y012284D01*
X015980Y012310D01*
X015992Y012334D01*
X016008Y012356D01*
X016026Y012376D01*
X016048Y012393D01*
X016071Y012408D01*
X016096Y012418D01*
X016122Y012426D01*
X016149Y012430D01*
X016177Y012430D01*
X016204Y012426D01*
X016230Y012418D01*
X016255Y012408D01*
X016278Y012393D01*
X016300Y012376D01*
X016318Y012356D01*
X016334Y012334D01*
X016346Y012310D01*
X016356Y012284D01*
X016361Y012257D01*
X016363Y012230D01*
X020363Y011880D02*
X020363Y012680D01*
X020463Y012780D01*
X021263Y012780D01*
X021363Y012680D01*
X021463Y012780D01*
X022263Y012780D01*
X022363Y012680D01*
X022363Y011880D01*
X022263Y011780D01*
X021463Y011780D01*
X021363Y011880D01*
X021263Y011780D01*
X020463Y011780D01*
X020363Y011880D01*
X023463Y006580D02*
X023363Y006480D01*
X023363Y005680D01*
X023463Y005580D01*
X024263Y005580D01*
X024363Y005680D01*
X024463Y005580D01*
X025263Y005580D01*
X025363Y005680D01*
X025363Y006480D01*
X025263Y006580D01*
X024463Y006580D01*
X024363Y006480D01*
X024263Y006580D01*
X023463Y006580D01*
X031363Y007280D02*
X031463Y007180D01*
X032263Y007180D01*
X032363Y007280D01*
X032463Y007180D01*
X033263Y007180D01*
X033363Y007280D01*
X033363Y008080D01*
X033263Y008180D01*
X032463Y008180D01*
X032363Y008080D01*
X032263Y008180D01*
X031463Y008180D01*
X031363Y008080D01*
X031363Y007280D01*
X032763Y005280D02*
X033563Y005280D01*
X033663Y005180D01*
X033663Y004380D01*
X033563Y004280D01*
X033663Y004180D01*
X033663Y003380D01*
X033563Y003280D01*
X032763Y003280D01*
X032663Y003380D01*
X032663Y004180D01*
X032763Y004280D01*
X032663Y004380D01*
X032663Y005180D01*
X032763Y005280D01*
D11*
X016793Y012230D02*
X016793Y015730D01*
D12*
X008552Y005215D02*
X008552Y002145D01*
X010127Y002145D02*
X011190Y002145D01*
X012174Y002145D02*
X012174Y005215D01*
X012174Y004940D02*
X012174Y004507D01*
X011190Y005215D02*
X010127Y005215D01*
X012174Y002853D02*
X012174Y002420D01*
X013438Y005655D02*
X013438Y005805D01*
X013438Y005730D02*
X013813Y005730D01*
X013888Y005655D01*
X013888Y005580D01*
X013813Y005505D01*
X013888Y005965D02*
X013438Y005965D01*
X013438Y006191D01*
X013513Y006266D01*
X013663Y006266D01*
X013738Y006191D01*
X013738Y005965D01*
X013663Y006426D02*
X013813Y006426D01*
X013888Y006501D01*
X013888Y006651D01*
X013813Y006726D01*
X013738Y006726D01*
X013663Y006651D01*
X013663Y006426D01*
X013513Y006576D01*
X013438Y006726D01*
X012178Y009765D02*
X011728Y009765D01*
X011728Y009990D01*
X011803Y010065D01*
X011953Y010065D01*
X012028Y009990D01*
X012028Y009765D01*
X012028Y009915D02*
X012178Y010065D01*
X012103Y010225D02*
X012178Y010300D01*
X012178Y010451D01*
X012103Y010526D01*
X012028Y010526D01*
X011953Y010451D01*
X011953Y010225D01*
X012103Y010225D01*
X011953Y010225D02*
X011803Y010376D01*
X011728Y010526D01*
X011948Y012924D02*
X011948Y013149D01*
X012023Y013224D01*
X012173Y013224D01*
X012248Y013149D01*
X012248Y012924D01*
X012398Y012924D02*
X011948Y012924D01*
X012248Y013074D02*
X012398Y013224D01*
X012323Y013385D02*
X012398Y013460D01*
X012398Y013610D01*
X012323Y013685D01*
X012023Y013685D01*
X011948Y013610D01*
X011948Y013460D01*
X012023Y013385D01*
X012098Y013385D01*
X012173Y013460D01*
X012173Y013685D01*
X012807Y013795D02*
X012807Y013345D01*
X012807Y013495D02*
X013032Y013495D01*
X013107Y013570D01*
X013107Y013720D01*
X013032Y013795D01*
X012807Y013795D01*
X012957Y013495D02*
X013107Y013345D01*
X013268Y013420D02*
X013268Y013495D01*
X013343Y013570D01*
X013493Y013570D01*
X013568Y013495D01*
X013568Y013420D01*
X013493Y013345D01*
X013343Y013345D01*
X013268Y013420D01*
X013343Y013570D02*
X013268Y013645D01*
X013268Y013720D01*
X013343Y013795D01*
X013493Y013795D01*
X013568Y013720D01*
X013568Y013645D01*
X013493Y013570D01*
X015660Y012105D02*
X015810Y012105D01*
X015735Y012105D02*
X015735Y011655D01*
X015660Y011655D02*
X015810Y011655D01*
X015967Y011730D02*
X016042Y011655D01*
X016192Y011655D01*
X016267Y011730D01*
X016428Y011655D02*
X016728Y011655D01*
X016578Y011655D02*
X016578Y012105D01*
X016428Y011955D01*
X016267Y012030D02*
X016192Y012105D01*
X016042Y012105D01*
X015967Y012030D01*
X015967Y011730D01*
X018648Y013965D02*
X018648Y014415D01*
X018873Y014415D01*
X018948Y014340D01*
X018948Y014190D01*
X018873Y014115D01*
X018648Y014115D01*
X018798Y014115D02*
X018948Y013965D01*
X019108Y013965D02*
X019409Y013965D01*
X019258Y013965D02*
X019258Y014415D01*
X019108Y014265D01*
X019048Y015165D02*
X018898Y015315D01*
X018973Y015315D02*
X018748Y015315D01*
X018748Y015165D02*
X018748Y015615D01*
X018973Y015615D01*
X019048Y015540D01*
X019048Y015390D01*
X018973Y015315D01*
X019208Y015165D02*
X019509Y015465D01*
X019509Y015540D01*
X019434Y015615D01*
X019283Y015615D01*
X019208Y015540D01*
X019208Y015165D02*
X019509Y015165D01*
X019008Y016665D02*
X019008Y016740D01*
X019309Y017040D01*
X019309Y017115D01*
X019008Y017115D01*
X018848Y017040D02*
X018848Y016890D01*
X018773Y016815D01*
X018548Y016815D01*
X018548Y016665D02*
X018548Y017115D01*
X018773Y017115D01*
X018848Y017040D01*
X018698Y016815D02*
X018848Y016665D01*
X020538Y013405D02*
X020688Y013405D01*
X020613Y013405D02*
X020613Y013030D01*
X020538Y012955D01*
X020463Y012955D01*
X020388Y013030D01*
X020848Y012955D02*
X020848Y013405D01*
X021074Y013405D01*
X021149Y013330D01*
X021149Y013180D01*
X021074Y013105D01*
X020848Y013105D01*
X021309Y013030D02*
X021384Y012955D01*
X021534Y012955D01*
X021609Y013030D01*
X021609Y013180D01*
X021534Y013255D01*
X021459Y013255D01*
X021309Y013180D01*
X021309Y013405D01*
X021609Y013405D01*
X028607Y008695D02*
X028832Y008695D01*
X028907Y008620D01*
X028907Y008470D01*
X028832Y008395D01*
X028607Y008395D01*
X028607Y008245D02*
X028607Y008695D01*
X028757Y008395D02*
X028907Y008245D01*
X029068Y008470D02*
X029368Y008470D01*
X029293Y008245D02*
X029293Y008695D01*
X029068Y008470D01*
X029848Y007185D02*
X029848Y006885D01*
X030073Y006885D01*
X029998Y007035D01*
X029998Y007110D01*
X030073Y007185D01*
X030223Y007185D01*
X030298Y007110D01*
X030298Y006960D01*
X030223Y006885D01*
X030298Y006724D02*
X030148Y006574D01*
X030148Y006649D02*
X030148Y006424D01*
X030298Y006424D02*
X029848Y006424D01*
X029848Y006649D01*
X029923Y006724D01*
X030073Y006724D01*
X030148Y006649D01*
X032007Y006630D02*
X032082Y006555D01*
X032157Y006555D01*
X032232Y006630D01*
X032232Y007005D01*
X032157Y007005D02*
X032307Y007005D01*
X032467Y007005D02*
X032692Y007005D01*
X032767Y006930D01*
X032767Y006780D01*
X032692Y006705D01*
X032467Y006705D01*
X032467Y006555D02*
X032467Y007005D01*
X032928Y006930D02*
X033003Y007005D01*
X033153Y007005D01*
X033228Y006930D01*
X033228Y006855D01*
X032928Y006555D01*
X033228Y006555D01*
X034288Y005145D02*
X034288Y004845D01*
X034288Y004995D02*
X033838Y004995D01*
X033988Y004845D01*
X034063Y004684D02*
X034138Y004609D01*
X034138Y004384D01*
X034288Y004384D02*
X033838Y004384D01*
X033838Y004609D01*
X033913Y004684D01*
X034063Y004684D01*
X033838Y004224D02*
X033838Y004074D01*
X033838Y004149D02*
X034213Y004149D01*
X034288Y004074D01*
X034288Y003999D01*
X034213Y003924D01*
X024609Y006980D02*
X024309Y006980D01*
X024534Y007205D01*
X024534Y006755D01*
X024149Y006980D02*
X024149Y007130D01*
X024074Y007205D01*
X023848Y007205D01*
X023848Y006755D01*
X023848Y006905D02*
X024074Y006905D01*
X024149Y006980D01*
X023688Y007205D02*
X023538Y007205D01*
X023613Y007205D02*
X023613Y006830D01*
X023538Y006755D01*
X023463Y006755D01*
X023388Y006830D01*
X012468Y015520D02*
X012393Y015445D01*
X012243Y015445D01*
X012168Y015520D01*
X012007Y015445D02*
X011857Y015595D01*
X011932Y015595D02*
X011707Y015595D01*
X011707Y015445D02*
X011707Y015895D01*
X011932Y015895D01*
X012007Y015820D01*
X012007Y015670D01*
X011932Y015595D01*
X012168Y015820D02*
X012243Y015895D01*
X012393Y015895D01*
X012468Y015820D01*
X012468Y015745D01*
X012393Y015670D01*
X012468Y015595D01*
X012468Y015520D01*
X012393Y015670D02*
X012318Y015670D01*
D13*
X011658Y009867D02*
X011344Y009553D01*
X011344Y009710D02*
X011658Y009710D01*
X011658Y009553D02*
X011344Y009867D01*
X011501Y009867D02*
X011501Y009553D01*
X015411Y004303D02*
X015411Y004057D01*
X015596Y004057D01*
X015534Y004180D01*
X015534Y004242D01*
X015596Y004303D01*
X015719Y004303D01*
X015781Y004242D01*
X015781Y004118D01*
X015719Y004057D01*
X015719Y003935D02*
X015781Y003873D01*
X015781Y003750D01*
X015719Y003688D01*
X015472Y003688D01*
X015411Y003750D01*
X015411Y003873D01*
X015472Y003935D01*
X017311Y003873D02*
X017311Y003750D01*
X017372Y003688D01*
X017619Y003688D01*
X017681Y003750D01*
X017681Y003873D01*
X017619Y003935D01*
X017681Y004057D02*
X017434Y004303D01*
X017372Y004303D01*
X017311Y004242D01*
X017311Y004118D01*
X017372Y004057D01*
X017372Y003935D02*
X017311Y003873D01*
X017681Y004057D02*
X017681Y004303D01*
X019211Y004180D02*
X019581Y004180D01*
X019581Y004057D02*
X019581Y004303D01*
X019334Y004057D02*
X019211Y004180D01*
X019272Y003935D02*
X019211Y003873D01*
X019211Y003750D01*
X019272Y003688D01*
X019519Y003688D01*
X019581Y003750D01*
X019581Y003873D01*
X019519Y003935D01*
X021011Y004018D02*
X021072Y003957D01*
X021011Y004018D02*
X021011Y004142D01*
X021072Y004203D01*
X021134Y004203D01*
X021196Y004142D01*
X021258Y004203D01*
X021319Y004203D01*
X021381Y004142D01*
X021381Y004018D01*
X021319Y003957D01*
X021319Y003835D02*
X021381Y003773D01*
X021381Y003650D01*
X021319Y003588D01*
X021072Y003588D01*
X021011Y003650D01*
X021011Y003773D01*
X021072Y003835D01*
X021196Y004080D02*
X021196Y004142D01*
X022911Y004142D02*
X023096Y003957D01*
X023096Y004203D01*
X023281Y004142D02*
X022911Y004142D01*
X022972Y003835D02*
X022911Y003773D01*
X022911Y003650D01*
X022972Y003588D01*
X023219Y003588D01*
X023281Y003650D01*
X023281Y003773D01*
X023219Y003835D01*
D14*
X012183Y008699D02*
X012183Y009317D01*
X012060Y009440D01*
X011813Y009440D01*
X011689Y009317D01*
X011689Y008699D01*
X011428Y008946D02*
X011181Y008699D01*
X011181Y009440D01*
X011428Y009440D02*
X010934Y009440D01*
D15*
X012489Y004850D02*
X012489Y004696D01*
X012489Y004773D02*
X012949Y004773D01*
X012949Y004696D02*
X012949Y004850D01*
X012949Y004543D02*
X012489Y004543D01*
X012489Y004236D02*
X012949Y004543D01*
X012949Y004236D02*
X012489Y004236D01*
X012489Y004082D02*
X012489Y003929D01*
X012489Y004006D02*
X012949Y004006D01*
X012949Y004082D02*
X012949Y003929D01*
X012949Y003775D02*
X012489Y003775D01*
X012642Y003622D01*
X012489Y003469D01*
X012949Y003469D01*
X012873Y003315D02*
X012949Y003238D01*
X012949Y003008D01*
X012489Y003008D01*
X012489Y003238D01*
X012566Y003315D01*
X012642Y003315D01*
X012719Y003238D01*
X012719Y003008D01*
X012796Y002855D02*
X012719Y002778D01*
X012719Y002624D01*
X012642Y002548D01*
X012566Y002548D01*
X012489Y002624D01*
X012489Y002778D01*
X012566Y002855D01*
X012796Y002855D02*
X012873Y002855D01*
X012949Y002778D01*
X012949Y002624D01*
X012873Y002548D01*
X012873Y002394D02*
X012489Y002394D01*
X012489Y002087D02*
X012873Y002087D01*
X012949Y002164D01*
X012949Y002318D01*
X012873Y002394D01*
X012719Y003238D02*
X012796Y003315D01*
X012873Y003315D01*
X024505Y007950D02*
X024659Y007950D01*
X024582Y007950D02*
X024582Y008410D01*
X024505Y008410D02*
X024659Y008410D01*
X024812Y008334D02*
X024889Y008410D01*
X025042Y008410D01*
X025119Y008334D01*
X025273Y008334D02*
X025349Y008410D01*
X025503Y008410D01*
X025579Y008334D01*
X025579Y008257D01*
X025273Y007950D01*
X025579Y007950D01*
X025119Y008027D02*
X025042Y007950D01*
X024889Y007950D01*
X024812Y008027D01*
X024812Y008334D01*
D16*
X028613Y009180D02*
X028713Y009180D01*
X029363Y006530D02*
X029363Y006430D01*
X019513Y013480D02*
X019413Y013480D01*
X019513Y014680D02*
X019613Y014680D01*
X019413Y016180D02*
X019313Y016180D01*
X012913Y014280D02*
X012813Y014280D01*
X011463Y013030D02*
X011463Y012930D01*
X012663Y010630D02*
X012663Y010530D01*
X011813Y016380D02*
X011713Y016380D01*
M02*
