G75*
%MOIN*%
%OFA0B0*%
%FSLAX24Y24*%
%IPPOS*%
%LPD*%
%AMOC8*
5,1,8,0,0,1.08239X$1,22.5*
%
%ADD10C,0.0000*%
%ADD11R,0.0800X0.0260*%
%ADD12R,0.0480X0.0200*%
%ADD13R,0.0866X0.0236*%
%ADD14C,0.0560*%
%ADD15R,0.0945X0.0787*%
%ADD16R,0.0909X0.0197*%
%ADD17R,0.0787X0.0591*%
%ADD18OC8,0.0520*%
%ADD19C,0.0160*%
D10*
X008363Y000580D02*
X008363Y017876D01*
X036633Y017876D01*
X036633Y000580D01*
X008363Y000580D01*
X010560Y002814D02*
X010562Y002841D01*
X010568Y002868D01*
X010577Y002894D01*
X010590Y002918D01*
X010606Y002941D01*
X010625Y002960D01*
X010647Y002977D01*
X010671Y002991D01*
X010696Y003001D01*
X010723Y003008D01*
X010750Y003011D01*
X010778Y003010D01*
X010805Y003005D01*
X010831Y002997D01*
X010855Y002985D01*
X010878Y002969D01*
X010899Y002951D01*
X010916Y002930D01*
X010931Y002906D01*
X010942Y002881D01*
X010950Y002855D01*
X010954Y002828D01*
X010954Y002800D01*
X010950Y002773D01*
X010942Y002747D01*
X010931Y002722D01*
X010916Y002698D01*
X010899Y002677D01*
X010878Y002659D01*
X010856Y002643D01*
X010831Y002631D01*
X010805Y002623D01*
X010778Y002618D01*
X010750Y002617D01*
X010723Y002620D01*
X010696Y002627D01*
X010671Y002637D01*
X010647Y002651D01*
X010625Y002668D01*
X010606Y002687D01*
X010590Y002710D01*
X010577Y002734D01*
X010568Y002760D01*
X010562Y002787D01*
X010560Y002814D01*
X010560Y004546D02*
X010562Y004573D01*
X010568Y004600D01*
X010577Y004626D01*
X010590Y004650D01*
X010606Y004673D01*
X010625Y004692D01*
X010647Y004709D01*
X010671Y004723D01*
X010696Y004733D01*
X010723Y004740D01*
X010750Y004743D01*
X010778Y004742D01*
X010805Y004737D01*
X010831Y004729D01*
X010855Y004717D01*
X010878Y004701D01*
X010899Y004683D01*
X010916Y004662D01*
X010931Y004638D01*
X010942Y004613D01*
X010950Y004587D01*
X010954Y004560D01*
X010954Y004532D01*
X010950Y004505D01*
X010942Y004479D01*
X010931Y004454D01*
X010916Y004430D01*
X010899Y004409D01*
X010878Y004391D01*
X010856Y004375D01*
X010831Y004363D01*
X010805Y004355D01*
X010778Y004350D01*
X010750Y004349D01*
X010723Y004352D01*
X010696Y004359D01*
X010671Y004369D01*
X010647Y004383D01*
X010625Y004400D01*
X010606Y004419D01*
X010590Y004442D01*
X010577Y004466D01*
X010568Y004492D01*
X010562Y004519D01*
X010560Y004546D01*
D11*
X014953Y012480D03*
X014953Y012980D03*
X014953Y013480D03*
X014953Y013980D03*
X014953Y014480D03*
X014953Y014980D03*
X014953Y015480D03*
X017373Y015480D03*
X017373Y014980D03*
X017373Y014480D03*
X017373Y013980D03*
X017373Y013480D03*
X017373Y012980D03*
X017373Y012480D03*
D12*
X011343Y010850D03*
X011343Y010480D03*
X011343Y010110D03*
X010383Y010110D03*
X010383Y010850D03*
D13*
X023939Y010230D03*
X023939Y009730D03*
X023939Y009230D03*
X023939Y008730D03*
X025987Y008730D03*
X025987Y009230D03*
X025987Y009730D03*
X025987Y010230D03*
D14*
X021863Y012000D02*
X021863Y012560D01*
X020863Y012560D02*
X020863Y012000D01*
X014843Y006980D02*
X014283Y006980D01*
X014283Y005980D02*
X014843Y005980D01*
X023863Y005800D02*
X023863Y006360D01*
X024863Y006360D02*
X024863Y005800D01*
X031863Y007400D02*
X031863Y007960D01*
X032863Y007960D02*
X032863Y007400D01*
X032883Y004780D02*
X033443Y004780D01*
X033443Y003780D02*
X032883Y003780D01*
D15*
X011741Y005412D03*
X009576Y005412D03*
X009576Y001948D03*
X011741Y001948D03*
D16*
X011963Y003050D03*
X011963Y003365D03*
X011963Y003680D03*
X011963Y003995D03*
X011963Y004310D03*
D17*
X014963Y004371D03*
X014963Y003189D03*
X016863Y003189D03*
X016863Y004371D03*
X018763Y004371D03*
X018763Y003189D03*
X020563Y003089D03*
X020563Y004271D03*
X022463Y004271D03*
X022463Y003089D03*
D18*
X029363Y005980D03*
X029363Y006980D03*
X029163Y009180D03*
X028163Y009180D03*
X019963Y013480D03*
X018963Y013480D03*
X019063Y014680D03*
X020063Y014680D03*
X019863Y016180D03*
X018863Y016180D03*
X013363Y014280D03*
X012363Y014280D03*
X011463Y013480D03*
X011463Y012480D03*
X012663Y011080D03*
X012663Y010080D03*
X012263Y016380D03*
X011263Y016380D03*
D19*
X011703Y016380D01*
X011703Y016562D01*
X011445Y016820D01*
X011263Y016820D01*
X011263Y016380D01*
X011263Y016380D01*
X011703Y016380D01*
X011703Y016198D01*
X011445Y015940D01*
X011263Y015940D01*
X011263Y016380D01*
X011263Y016380D01*
X011263Y016380D01*
X011263Y015940D01*
X011081Y015940D01*
X010823Y016198D01*
X010823Y016380D01*
X011263Y016380D01*
X011263Y016820D01*
X011081Y016820D01*
X010823Y016562D01*
X010823Y016380D01*
X011263Y016380D01*
X011263Y016380D01*
X011263Y016430D02*
X011263Y016430D01*
X011263Y016272D02*
X011263Y016272D01*
X011263Y016113D02*
X011263Y016113D01*
X011263Y015955D02*
X011263Y015955D01*
X011460Y015955D02*
X012038Y015955D01*
X012072Y015920D02*
X012453Y015920D01*
X012633Y016100D01*
X012947Y016100D01*
X013726Y015321D01*
X013804Y015243D01*
X013907Y015200D01*
X014360Y015200D01*
X014353Y015193D01*
X014353Y014767D01*
X014360Y014760D01*
X014107Y014760D01*
X014004Y014717D01*
X013926Y014639D01*
X013847Y014560D01*
X013733Y014560D01*
X013553Y014740D01*
X013172Y014740D01*
X012903Y014471D01*
X012903Y014089D01*
X013172Y013820D01*
X013553Y013820D01*
X013733Y014000D01*
X014019Y014000D01*
X014122Y014043D01*
X014279Y014200D01*
X014360Y014200D01*
X014353Y014193D01*
X014353Y013767D01*
X014360Y013760D01*
X011833Y013760D01*
X011653Y013940D01*
X011272Y013940D01*
X011003Y013671D01*
X011003Y013289D01*
X011272Y013020D01*
X011653Y013020D01*
X011833Y013200D01*
X014360Y013200D01*
X014353Y013193D01*
X014353Y012767D01*
X014390Y012730D01*
X014353Y012693D01*
X014353Y012267D01*
X014470Y012150D01*
X014673Y012150D01*
X014673Y010486D01*
X014547Y010360D01*
X013033Y010360D01*
X012853Y010540D01*
X012472Y010540D01*
X012292Y010360D01*
X011763Y010360D01*
X011763Y010480D01*
X011763Y010570D01*
X012489Y010570D01*
X012592Y010613D01*
X012599Y010620D01*
X012853Y010620D01*
X013123Y010889D01*
X013123Y011271D01*
X012853Y011540D01*
X012472Y011540D01*
X012203Y011271D01*
X012203Y011130D01*
X011686Y011130D01*
X011666Y011150D01*
X011020Y011150D01*
X010910Y011040D01*
X010905Y011046D01*
X010905Y011046D01*
X010742Y011113D01*
X010706Y011150D01*
X010060Y011150D01*
X009943Y011033D01*
X009943Y010667D01*
X010060Y010550D01*
X010583Y010550D01*
X010583Y010431D01*
X010592Y010410D01*
X010060Y010410D01*
X010040Y010390D01*
X009837Y010390D01*
X009734Y010347D01*
X009204Y009817D01*
X009126Y009739D01*
X009083Y009636D01*
X009083Y009024D01*
X009126Y008921D01*
X009626Y008421D01*
X009704Y008343D01*
X009807Y008300D01*
X014519Y008300D01*
X014622Y008343D01*
X015363Y009084D01*
X017483Y006964D01*
X017483Y006580D01*
X015071Y006580D01*
X015084Y006587D01*
X015143Y006629D01*
X015194Y006680D01*
X015236Y006739D01*
X015269Y006803D01*
X015292Y006872D01*
X015303Y006944D01*
X015303Y006970D01*
X014573Y006970D01*
X014573Y006990D01*
X015303Y006990D01*
X015303Y007016D01*
X015292Y007088D01*
X015269Y007157D01*
X015236Y007221D01*
X015194Y007280D01*
X015143Y007331D01*
X015084Y007373D01*
X015020Y007406D01*
X014951Y007429D01*
X014879Y007440D01*
X014573Y007440D01*
X014573Y006990D01*
X014553Y006990D01*
X014553Y007440D01*
X014247Y007440D01*
X014175Y007429D01*
X014106Y007406D01*
X014042Y007373D01*
X013983Y007331D01*
X013932Y007280D01*
X013890Y007221D01*
X013857Y007157D01*
X013834Y007088D01*
X013823Y007016D01*
X013823Y006990D01*
X014553Y006990D01*
X014553Y006970D01*
X013823Y006970D01*
X013823Y006944D01*
X013834Y006872D01*
X013857Y006803D01*
X013890Y006739D01*
X013932Y006680D01*
X013983Y006629D01*
X014042Y006587D01*
X014055Y006580D01*
X008843Y006580D01*
X008843Y017396D01*
X036153Y017396D01*
X036153Y016580D01*
X021163Y016580D01*
X021163Y012911D01*
X021104Y012953D01*
X021040Y012986D01*
X020971Y013009D01*
X020899Y013020D01*
X020873Y013020D01*
X020873Y012290D01*
X020853Y012290D01*
X020853Y013020D01*
X020827Y013020D01*
X020755Y013009D01*
X020686Y012986D01*
X020622Y012953D01*
X020563Y012911D01*
X020512Y012860D01*
X020470Y012801D01*
X020437Y012737D01*
X020414Y012668D01*
X020403Y012596D01*
X020403Y012290D01*
X020853Y012290D01*
X020853Y012270D01*
X020873Y012270D01*
X020873Y011540D01*
X020899Y011540D01*
X020971Y011551D01*
X021040Y011574D01*
X021104Y011607D01*
X021163Y011649D01*
X021163Y011649D01*
X021163Y006580D01*
X018043Y006580D01*
X018043Y007136D01*
X018000Y007239D01*
X017922Y007317D01*
X015759Y009480D01*
X016200Y009921D01*
X016243Y010024D01*
X016243Y010864D01*
X016400Y011021D01*
X016443Y011124D01*
X016443Y012200D01*
X016840Y012200D01*
X016890Y012150D01*
X017856Y012150D01*
X017973Y012267D01*
X017973Y012693D01*
X017966Y012700D01*
X018119Y012700D01*
X018222Y012743D01*
X018379Y012900D01*
X018719Y012900D01*
X018822Y012943D01*
X020608Y012943D01*
X020461Y012785D02*
X018263Y012785D01*
X018063Y012980D02*
X018263Y013180D01*
X018663Y013180D01*
X018963Y013480D01*
X018503Y013460D02*
X018207Y013460D01*
X018104Y013417D01*
X018026Y013339D01*
X017973Y013286D01*
X017973Y013693D01*
X017966Y013700D01*
X018419Y013700D01*
X018522Y013743D01*
X018999Y014220D01*
X019253Y014220D01*
X019523Y014489D01*
X019523Y014871D01*
X019253Y015140D01*
X018872Y015140D01*
X018603Y014871D01*
X018603Y014616D01*
X018247Y014260D01*
X017966Y014260D01*
X017973Y014267D01*
X017973Y014693D01*
X017966Y014700D01*
X018219Y014700D01*
X018322Y014743D01*
X018422Y014843D01*
X018500Y014921D01*
X018543Y015024D01*
X018543Y015464D01*
X018799Y015720D01*
X019053Y015720D01*
X019323Y015989D01*
X019323Y016371D01*
X019053Y016640D01*
X018672Y016640D01*
X018403Y016371D01*
X018403Y016116D01*
X018026Y015739D01*
X017983Y015636D01*
X017983Y015260D01*
X017929Y015260D01*
X017941Y015281D01*
X017953Y015326D01*
X017953Y015480D01*
X017953Y015634D01*
X017941Y015679D01*
X017917Y015721D01*
X017883Y015754D01*
X017842Y015778D01*
X017797Y015790D01*
X017373Y015790D01*
X017373Y015480D01*
X017953Y015480D01*
X017373Y015480D01*
X017373Y015480D01*
X017373Y015480D01*
X017373Y015790D01*
X016949Y015790D01*
X016903Y015778D01*
X016862Y015754D01*
X016829Y015721D01*
X016805Y015679D01*
X016793Y015634D01*
X016793Y015480D01*
X016793Y015326D01*
X016805Y015281D01*
X016826Y015245D01*
X016773Y015193D01*
X016773Y014767D01*
X016780Y014760D01*
X016443Y014760D01*
X016443Y014936D01*
X016400Y015039D01*
X016322Y015117D01*
X016222Y015217D01*
X016119Y015260D01*
X015546Y015260D01*
X015553Y015267D01*
X015553Y015693D01*
X015436Y015810D01*
X015019Y015810D01*
X015012Y015817D01*
X014909Y015860D01*
X014797Y015860D01*
X014694Y015817D01*
X014687Y015810D01*
X014470Y015810D01*
X014420Y015760D01*
X014079Y015760D01*
X013222Y016617D01*
X013119Y016660D01*
X012633Y016660D01*
X012453Y016840D01*
X012072Y016840D01*
X011803Y016571D01*
X011803Y016189D01*
X012072Y015920D01*
X011879Y016113D02*
X011618Y016113D01*
X011703Y016272D02*
X011803Y016272D01*
X011803Y016430D02*
X011703Y016430D01*
X011677Y016589D02*
X011821Y016589D01*
X011979Y016747D02*
X011518Y016747D01*
X011263Y016747D02*
X011263Y016747D01*
X011263Y016589D02*
X011263Y016589D01*
X011008Y016747D02*
X008843Y016747D01*
X008843Y016589D02*
X010849Y016589D01*
X010823Y016430D02*
X008843Y016430D01*
X008843Y016272D02*
X010823Y016272D01*
X010908Y016113D02*
X008843Y016113D01*
X008843Y015955D02*
X011066Y015955D01*
X012263Y016380D02*
X013063Y016380D01*
X013963Y015480D01*
X014953Y015480D01*
X014853Y015580D01*
X014456Y015796D02*
X014043Y015796D01*
X013884Y015955D02*
X018242Y015955D01*
X018400Y016113D02*
X013726Y016113D01*
X013567Y016272D02*
X018403Y016272D01*
X018462Y016430D02*
X013409Y016430D01*
X013250Y016589D02*
X018621Y016589D01*
X018863Y016180D02*
X018263Y015580D01*
X018263Y015080D01*
X018163Y014980D01*
X017373Y014980D01*
X017373Y014480D02*
X016463Y014480D01*
X016163Y014180D01*
X016163Y013880D01*
X016013Y013730D01*
X016163Y013580D01*
X016163Y012980D01*
X016463Y013280D01*
X016463Y013380D01*
X016563Y013480D01*
X017373Y013480D01*
X017373Y013980D02*
X018363Y013980D01*
X019063Y014680D01*
X019390Y015004D02*
X019764Y015004D01*
X019881Y015120D02*
X019623Y014862D01*
X019623Y014680D01*
X019623Y014498D01*
X019881Y014240D01*
X020063Y014240D01*
X020245Y014240D01*
X020503Y014498D01*
X020503Y014680D01*
X020503Y014862D01*
X020245Y015120D01*
X020063Y015120D01*
X020063Y014680D01*
X020503Y014680D01*
X020063Y014680D01*
X020063Y014680D01*
X020063Y014680D01*
X020063Y014240D01*
X020063Y014680D01*
X020063Y014680D01*
X020063Y015120D01*
X019881Y015120D01*
X020063Y015004D02*
X020063Y015004D01*
X020063Y014845D02*
X020063Y014845D01*
X020063Y014687D02*
X020063Y014687D01*
X020063Y014680D02*
X020063Y014680D01*
X019623Y014680D01*
X020063Y014680D01*
X020063Y014528D02*
X020063Y014528D01*
X020063Y014370D02*
X020063Y014370D01*
X020375Y014370D02*
X021163Y014370D01*
X021163Y014528D02*
X020503Y014528D01*
X020503Y014687D02*
X021163Y014687D01*
X021163Y014845D02*
X020503Y014845D01*
X020362Y015004D02*
X021163Y015004D01*
X021163Y015162D02*
X018543Y015162D01*
X018543Y015321D02*
X021163Y015321D01*
X021163Y015479D02*
X018558Y015479D01*
X018716Y015638D02*
X021163Y015638D01*
X021163Y015796D02*
X020101Y015796D01*
X020045Y015740D02*
X020303Y015998D01*
X020303Y016180D01*
X020303Y016362D01*
X020045Y016620D01*
X019863Y016620D01*
X019863Y016180D01*
X020303Y016180D01*
X019863Y016180D01*
X019863Y016180D01*
X019863Y016180D01*
X019863Y015740D01*
X020045Y015740D01*
X019863Y015740D02*
X019863Y016180D01*
X019863Y016180D01*
X019863Y016620D01*
X019681Y016620D01*
X019423Y016362D01*
X019423Y016180D01*
X019423Y015998D01*
X019681Y015740D01*
X019863Y015740D01*
X019863Y015796D02*
X019863Y015796D01*
X019863Y015955D02*
X019863Y015955D01*
X019863Y016113D02*
X019863Y016113D01*
X019863Y016180D02*
X019423Y016180D01*
X019863Y016180D01*
X019863Y016180D01*
X019863Y016272D02*
X019863Y016272D01*
X019863Y016430D02*
X019863Y016430D01*
X019863Y016589D02*
X019863Y016589D01*
X020077Y016589D02*
X036153Y016589D01*
X036153Y016747D02*
X012546Y016747D01*
X012488Y015955D02*
X013092Y015955D01*
X013251Y015796D02*
X008843Y015796D01*
X008843Y015638D02*
X013409Y015638D01*
X013568Y015479D02*
X008843Y015479D01*
X008843Y015321D02*
X013726Y015321D01*
X013607Y014687D02*
X013974Y014687D01*
X014163Y014480D02*
X014953Y014480D01*
X014853Y014580D01*
X014953Y014980D02*
X016063Y014980D01*
X016163Y014880D01*
X016163Y014180D01*
X015763Y013980D02*
X016013Y013730D01*
X015763Y013980D02*
X014953Y013980D01*
X014953Y013480D02*
X011463Y013480D01*
X011003Y013419D02*
X008843Y013419D01*
X008843Y013577D02*
X011003Y013577D01*
X011068Y013736D02*
X008843Y013736D01*
X008843Y013894D02*
X011226Y013894D01*
X011699Y013894D02*
X012127Y013894D01*
X012181Y013840D02*
X012363Y013840D01*
X012545Y013840D01*
X012803Y014098D01*
X012803Y014280D01*
X012803Y014462D01*
X012545Y014720D01*
X012363Y014720D01*
X012363Y014280D01*
X012803Y014280D01*
X012363Y014280D01*
X012363Y014280D01*
X012363Y014280D01*
X012363Y013840D01*
X012363Y014280D01*
X012363Y014280D01*
X012363Y014720D01*
X012181Y014720D01*
X011923Y014462D01*
X011923Y014280D01*
X011923Y014098D01*
X012181Y013840D01*
X012363Y013894D02*
X012363Y013894D01*
X012363Y014053D02*
X012363Y014053D01*
X012363Y014211D02*
X012363Y014211D01*
X012363Y014280D02*
X011923Y014280D01*
X012363Y014280D01*
X012363Y014280D01*
X012363Y014370D02*
X012363Y014370D01*
X012363Y014528D02*
X012363Y014528D01*
X012363Y014687D02*
X012363Y014687D01*
X012579Y014687D02*
X013119Y014687D01*
X012960Y014528D02*
X012737Y014528D01*
X012803Y014370D02*
X012903Y014370D01*
X012903Y014211D02*
X012803Y014211D01*
X012758Y014053D02*
X012940Y014053D01*
X013098Y013894D02*
X012599Y013894D01*
X011968Y014053D02*
X008843Y014053D01*
X008843Y014211D02*
X011923Y014211D01*
X011923Y014370D02*
X008843Y014370D01*
X008843Y014528D02*
X011989Y014528D01*
X012147Y014687D02*
X008843Y014687D01*
X008843Y014845D02*
X014353Y014845D01*
X014353Y015004D02*
X008843Y015004D01*
X008843Y015162D02*
X014353Y015162D01*
X014163Y014480D02*
X013963Y014280D01*
X013363Y014280D01*
X013628Y013894D02*
X014353Y013894D01*
X014353Y014053D02*
X014131Y014053D01*
X014353Y013102D02*
X011735Y013102D01*
X011645Y012920D02*
X011463Y012920D01*
X011463Y012480D01*
X011903Y012480D01*
X011903Y012662D01*
X011645Y012920D01*
X011463Y012920D02*
X011281Y012920D01*
X011023Y012662D01*
X011023Y012480D01*
X011023Y012298D01*
X011281Y012040D01*
X011463Y012040D01*
X011645Y012040D01*
X011903Y012298D01*
X011903Y012480D01*
X011463Y012480D01*
X011463Y012480D01*
X011463Y012480D01*
X011463Y012040D01*
X011463Y012480D01*
X011463Y012480D01*
X011463Y012920D01*
X011463Y012785D02*
X011463Y012785D01*
X011463Y012626D02*
X011463Y012626D01*
X011463Y012480D02*
X011463Y012480D01*
X011023Y012480D01*
X011463Y012480D01*
X011463Y012468D02*
X011463Y012468D01*
X011463Y012309D02*
X011463Y012309D01*
X011463Y012151D02*
X011463Y012151D01*
X011756Y012151D02*
X014470Y012151D01*
X014353Y012309D02*
X011903Y012309D01*
X011903Y012468D02*
X014353Y012468D01*
X014353Y012626D02*
X011903Y012626D01*
X011781Y012785D02*
X014353Y012785D01*
X014353Y012943D02*
X008843Y012943D01*
X008843Y012785D02*
X011145Y012785D01*
X011023Y012626D02*
X008843Y012626D01*
X008843Y012468D02*
X011023Y012468D01*
X011023Y012309D02*
X008843Y012309D01*
X008843Y012151D02*
X011170Y012151D01*
X011191Y013102D02*
X008843Y013102D01*
X008843Y013260D02*
X011032Y013260D01*
X012449Y011517D02*
X008843Y011517D01*
X008843Y011675D02*
X014673Y011675D01*
X014673Y011517D02*
X012877Y011517D01*
X013035Y011358D02*
X014673Y011358D01*
X014673Y011200D02*
X013123Y011200D01*
X013123Y011041D02*
X014673Y011041D01*
X014673Y010883D02*
X013116Y010883D01*
X012958Y010724D02*
X014673Y010724D01*
X014673Y010566D02*
X011763Y010566D01*
X011763Y010480D02*
X011343Y010480D01*
X011343Y010480D01*
X011763Y010480D01*
X011763Y010407D02*
X012339Y010407D01*
X012433Y010850D02*
X012663Y011080D01*
X012433Y010850D02*
X011343Y010850D01*
X010863Y010580D02*
X010865Y010539D01*
X010870Y010498D01*
X010879Y010458D01*
X010891Y010419D01*
X010907Y010381D01*
X010926Y010345D01*
X010948Y010310D01*
X010973Y010278D01*
X011001Y010248D01*
X011031Y010220D01*
X011063Y010195D01*
X011098Y010173D01*
X011134Y010154D01*
X011172Y010138D01*
X011211Y010126D01*
X011251Y010117D01*
X011292Y010112D01*
X011333Y010110D01*
X011343Y010110D01*
X011373Y010080D01*
X012663Y010080D01*
X014663Y010080D01*
X014953Y010370D01*
X014953Y012480D01*
X014953Y012980D02*
X016063Y012980D01*
X016163Y012880D01*
X016163Y012480D01*
X017373Y012480D01*
X017373Y012980D02*
X018063Y012980D01*
X017973Y012626D02*
X020408Y012626D01*
X020403Y012468D02*
X017973Y012468D01*
X017973Y012309D02*
X020403Y012309D01*
X020403Y012270D02*
X020403Y011964D01*
X020414Y011892D01*
X020437Y011823D01*
X020470Y011759D01*
X020512Y011700D01*
X020563Y011649D01*
X020622Y011607D01*
X020686Y011574D01*
X020755Y011551D01*
X020827Y011540D01*
X020853Y011540D01*
X020853Y012270D01*
X020403Y012270D01*
X020403Y012151D02*
X017856Y012151D01*
X016890Y012151D02*
X016443Y012151D01*
X016443Y011992D02*
X020403Y011992D01*
X020433Y011834D02*
X016443Y011834D01*
X016443Y011675D02*
X020537Y011675D01*
X020853Y011675D02*
X020873Y011675D01*
X020873Y011834D02*
X020853Y011834D01*
X020853Y011992D02*
X020873Y011992D01*
X020873Y012151D02*
X020853Y012151D01*
X020853Y012309D02*
X020873Y012309D01*
X020873Y012468D02*
X020853Y012468D01*
X020853Y012626D02*
X020873Y012626D01*
X020873Y012785D02*
X020853Y012785D01*
X020853Y012943D02*
X020873Y012943D01*
X021118Y012943D02*
X021163Y012943D01*
X021163Y012911D02*
X021163Y012911D01*
X021163Y013102D02*
X020207Y013102D01*
X020145Y013040D02*
X020403Y013298D01*
X020403Y013480D01*
X020403Y013662D01*
X020145Y013920D01*
X019963Y013920D01*
X019963Y013480D01*
X020403Y013480D01*
X019963Y013480D01*
X019963Y013480D01*
X019963Y013480D01*
X019963Y013040D01*
X020145Y013040D01*
X019963Y013040D02*
X019963Y013480D01*
X019963Y013480D01*
X019963Y013920D01*
X019781Y013920D01*
X019523Y013662D01*
X019523Y013480D01*
X019523Y013298D01*
X019781Y013040D01*
X019963Y013040D01*
X019963Y013102D02*
X019963Y013102D01*
X019963Y013260D02*
X019963Y013260D01*
X019963Y013419D02*
X019963Y013419D01*
X019963Y013480D02*
X019523Y013480D01*
X019963Y013480D01*
X019963Y013480D01*
X019963Y013577D02*
X019963Y013577D01*
X019963Y013736D02*
X019963Y013736D01*
X019963Y013894D02*
X019963Y013894D01*
X020171Y013894D02*
X021163Y013894D01*
X021163Y013736D02*
X020330Y013736D01*
X020403Y013577D02*
X021163Y013577D01*
X021163Y013419D02*
X020403Y013419D01*
X020365Y013260D02*
X021163Y013260D01*
X021593Y013260D02*
X036153Y013260D01*
X036153Y013102D02*
X021595Y013102D01*
X021686Y012986D02*
X021622Y012953D01*
X021596Y012935D01*
X021563Y016280D01*
X036153Y016280D01*
X036153Y001060D01*
X008843Y001060D01*
X008843Y006280D01*
X013932Y006280D01*
X013890Y006221D01*
X013857Y006157D01*
X013834Y006088D01*
X013823Y006016D01*
X013823Y005990D01*
X014553Y005990D01*
X014553Y005970D01*
X014573Y005970D01*
X014573Y005990D01*
X015303Y005990D01*
X015303Y006016D01*
X015292Y006088D01*
X015269Y006157D01*
X015236Y006221D01*
X015194Y006280D01*
X015193Y006280D01*
X017503Y006280D01*
X017503Y004631D01*
X017437Y004631D01*
X017437Y004740D01*
X017331Y004846D01*
X016395Y004846D01*
X016289Y004740D01*
X016289Y004631D01*
X015537Y004631D01*
X015537Y004740D01*
X015431Y004846D01*
X014495Y004846D01*
X014389Y004740D01*
X014389Y004570D01*
X012510Y004570D01*
X012492Y004588D01*
X011434Y004588D01*
X011434Y004588D01*
X011434Y004681D01*
X011368Y004839D01*
X012288Y004839D01*
X012393Y004944D01*
X012393Y005881D01*
X012288Y005986D01*
X011194Y005986D01*
X011088Y005881D01*
X011088Y005141D01*
X010891Y005223D01*
X010622Y005223D01*
X010373Y005120D01*
X010228Y004975D01*
X010228Y005881D01*
X010123Y005986D01*
X009029Y005986D01*
X008923Y005881D01*
X008923Y004944D01*
X009029Y004839D01*
X010123Y004839D01*
X010161Y004877D01*
X010080Y004681D01*
X010080Y004412D01*
X010183Y004163D01*
X010373Y003972D01*
X010622Y003869D01*
X010891Y003869D01*
X011140Y003972D01*
X011329Y004161D01*
X011329Y003199D01*
X011140Y003388D01*
X010891Y003491D01*
X010622Y003491D01*
X010373Y003388D01*
X010183Y003197D01*
X010080Y002948D01*
X010080Y002679D01*
X010161Y002483D01*
X010123Y002521D01*
X009029Y002521D01*
X008923Y002416D01*
X008923Y001479D01*
X009029Y001374D01*
X010123Y001374D01*
X010228Y001479D01*
X010228Y002385D01*
X010373Y002240D01*
X010622Y002137D01*
X010891Y002137D01*
X011088Y002219D01*
X011088Y001479D01*
X011194Y001374D01*
X012288Y001374D01*
X012393Y001479D01*
X012393Y002416D01*
X012288Y002521D01*
X011368Y002521D01*
X011434Y002679D01*
X011434Y002787D01*
X011439Y002784D01*
X011485Y002772D01*
X011963Y002772D01*
X012441Y002772D01*
X012487Y002784D01*
X012528Y002808D01*
X012561Y002841D01*
X012585Y002882D01*
X012597Y002928D01*
X012597Y003050D01*
X011963Y003050D01*
X011963Y002772D01*
X011963Y003050D01*
X011963Y003050D01*
X011963Y003050D01*
X012597Y003050D01*
X012597Y003172D01*
X012593Y003188D01*
X012597Y003192D01*
X012597Y004050D01*
X014389Y004050D01*
X014389Y004001D01*
X014495Y003895D01*
X015431Y003895D01*
X015537Y004001D01*
X015537Y004111D01*
X016289Y004111D01*
X016289Y004001D01*
X016395Y003895D01*
X017331Y003895D01*
X017437Y004001D01*
X017437Y004111D01*
X018189Y004111D01*
X018189Y004001D01*
X018295Y003895D01*
X019231Y003895D01*
X019337Y004001D01*
X019337Y004111D01*
X019989Y004111D01*
X019989Y003901D01*
X020095Y003795D01*
X021031Y003795D01*
X021137Y003901D01*
X021137Y004011D01*
X021889Y004011D01*
X021889Y003901D01*
X021995Y003795D01*
X022931Y003795D01*
X023037Y003901D01*
X023037Y004011D01*
X023505Y004011D01*
X023601Y004050D01*
X024010Y004460D01*
X024083Y004533D01*
X024123Y004628D01*
X024123Y005410D01*
X024124Y005410D01*
X024253Y005539D01*
X024323Y005708D01*
X024323Y006451D01*
X024253Y006621D01*
X024124Y006750D01*
X024123Y006750D01*
X024123Y006932D01*
X024083Y007027D01*
X024010Y007100D01*
X022923Y008188D01*
X026987Y008188D01*
X027003Y008172D02*
X027003Y007728D01*
X027043Y007633D01*
X027116Y007560D01*
X028916Y005760D01*
X028993Y005727D01*
X029181Y005540D01*
X029545Y005540D01*
X029725Y005720D01*
X030755Y005720D01*
X031843Y004633D01*
X031843Y004633D01*
X031916Y004560D01*
X032011Y004520D01*
X032493Y004520D01*
X032493Y004519D01*
X032622Y004390D01*
X032791Y004320D01*
X033534Y004320D01*
X033704Y004390D01*
X033833Y004519D01*
X033903Y004688D01*
X033903Y004871D01*
X033833Y005041D01*
X033704Y005170D01*
X033534Y005240D01*
X032791Y005240D01*
X032622Y005170D01*
X032493Y005041D01*
X032493Y005040D01*
X032171Y005040D01*
X031010Y006200D01*
X030915Y006240D01*
X029725Y006240D01*
X029545Y006420D01*
X029181Y006420D01*
X029086Y006325D01*
X027523Y007888D01*
X027523Y008332D01*
X027483Y008427D01*
X027083Y008827D01*
X027010Y008900D01*
X026915Y008940D01*
X026582Y008940D01*
X026552Y008970D01*
X027751Y008970D01*
X027981Y008740D01*
X028345Y008740D01*
X028603Y008998D01*
X028603Y009362D01*
X028345Y009620D01*
X027981Y009620D01*
X027851Y009490D01*
X026552Y009490D01*
X026564Y009501D01*
X026587Y009542D01*
X026600Y009588D01*
X026600Y009730D01*
X026600Y009872D01*
X026587Y009918D01*
X026564Y009959D01*
X026542Y009980D01*
X026564Y010001D01*
X026587Y010042D01*
X026600Y010088D01*
X026600Y010230D01*
X026600Y010372D01*
X026587Y010418D01*
X026564Y010459D01*
X026530Y010492D01*
X026489Y010516D01*
X026443Y010528D01*
X025987Y010528D01*
X025987Y010230D01*
X026600Y010230D01*
X025987Y010230D01*
X025987Y010230D01*
X025987Y010230D01*
X025987Y010028D01*
X025987Y009730D01*
X026600Y009730D01*
X025987Y009730D01*
X025987Y009730D01*
X025987Y009730D01*
X025987Y010230D01*
X025987Y010230D01*
X025987Y010528D01*
X025530Y010528D01*
X025484Y010516D01*
X025443Y010492D01*
X025409Y010459D01*
X025386Y010418D01*
X025374Y010372D01*
X025374Y010230D01*
X025374Y010088D01*
X025386Y010042D01*
X025409Y010001D01*
X025431Y009980D01*
X025409Y009959D01*
X025386Y009918D01*
X025374Y009872D01*
X025374Y009730D01*
X025374Y009588D01*
X025386Y009542D01*
X025409Y009501D01*
X025431Y009480D01*
X025374Y009423D01*
X025374Y009037D01*
X025431Y008980D01*
X025374Y008923D01*
X025374Y008537D01*
X025479Y008432D01*
X025956Y008432D01*
X025985Y008420D01*
X026755Y008420D01*
X027003Y008172D01*
X027003Y008030D02*
X023081Y008030D01*
X022923Y008188D02*
X022923Y008420D01*
X023941Y008420D01*
X023970Y008432D01*
X024447Y008432D01*
X024552Y008537D01*
X024552Y008923D01*
X024495Y008980D01*
X024552Y009037D01*
X024552Y009423D01*
X024495Y009480D01*
X024552Y009537D01*
X024552Y009923D01*
X024495Y009980D01*
X024552Y010037D01*
X024552Y010423D01*
X024447Y010528D01*
X023432Y010528D01*
X023326Y010423D01*
X023326Y010037D01*
X023384Y009980D01*
X023326Y009923D01*
X023326Y009537D01*
X023384Y009480D01*
X023326Y009423D01*
X023326Y009037D01*
X023384Y008980D01*
X023344Y008940D01*
X022711Y008940D01*
X022616Y008900D01*
X022543Y008827D01*
X022443Y008727D01*
X022403Y008632D01*
X022403Y008028D01*
X022443Y007933D01*
X022516Y007860D01*
X023603Y006772D01*
X023603Y006750D01*
X023602Y006750D01*
X023473Y006621D01*
X023403Y006451D01*
X023403Y005708D01*
X023473Y005539D01*
X023602Y005410D01*
X023603Y005410D01*
X023603Y004788D01*
X023346Y004531D01*
X023037Y004531D01*
X023037Y004640D01*
X022931Y004746D01*
X021995Y004746D01*
X021889Y004640D01*
X021889Y004531D01*
X021137Y004531D01*
X021137Y004640D01*
X021031Y004746D01*
X020095Y004746D01*
X019989Y004640D01*
X019989Y004631D01*
X019337Y004631D01*
X019337Y004740D01*
X019231Y004846D01*
X018295Y004846D01*
X018189Y004740D01*
X018189Y004631D01*
X018023Y004631D01*
X018023Y006280D01*
X021663Y006280D01*
X021610Y011615D01*
X021622Y011607D01*
X021686Y011574D01*
X021755Y011551D01*
X021827Y011540D01*
X021853Y011540D01*
X021853Y012270D01*
X021873Y012270D01*
X021873Y012290D01*
X022323Y012290D01*
X022323Y012596D01*
X022312Y012668D01*
X022289Y012737D01*
X022256Y012801D01*
X022214Y012860D01*
X022163Y012911D01*
X022104Y012953D01*
X022040Y012986D01*
X021971Y013009D01*
X021899Y013020D01*
X021873Y013020D01*
X021873Y012290D01*
X021853Y012290D01*
X021853Y013020D01*
X021827Y013020D01*
X021755Y013009D01*
X021686Y012986D01*
X021608Y012943D02*
X021596Y012943D01*
X021853Y012943D02*
X021873Y012943D01*
X021873Y012785D02*
X021853Y012785D01*
X021853Y012626D02*
X021873Y012626D01*
X021873Y012468D02*
X021853Y012468D01*
X021853Y012309D02*
X021873Y012309D01*
X021873Y012270D02*
X022323Y012270D01*
X022323Y011964D01*
X022312Y011892D01*
X022289Y011823D01*
X022256Y011759D01*
X022214Y011700D01*
X022163Y011649D01*
X022104Y011607D01*
X022040Y011574D01*
X021971Y011551D01*
X021899Y011540D01*
X021873Y011540D01*
X021873Y012270D01*
X021873Y012151D02*
X021853Y012151D01*
X021853Y011992D02*
X021873Y011992D01*
X021873Y011834D02*
X021853Y011834D01*
X021853Y011675D02*
X021873Y011675D01*
X021611Y011517D02*
X036153Y011517D01*
X036153Y011675D02*
X022189Y011675D01*
X022293Y011834D02*
X036153Y011834D01*
X036153Y011992D02*
X022323Y011992D01*
X022323Y012151D02*
X036153Y012151D01*
X036153Y012309D02*
X022323Y012309D01*
X022323Y012468D02*
X036153Y012468D01*
X036153Y012626D02*
X022318Y012626D01*
X022265Y012785D02*
X036153Y012785D01*
X036153Y012943D02*
X022118Y012943D01*
X021592Y013419D02*
X036153Y013419D01*
X036153Y013577D02*
X021590Y013577D01*
X021588Y013736D02*
X036153Y013736D01*
X036153Y013894D02*
X021587Y013894D01*
X021585Y014053D02*
X036153Y014053D01*
X036153Y014211D02*
X021584Y014211D01*
X021582Y014370D02*
X036153Y014370D01*
X036153Y014528D02*
X021580Y014528D01*
X021579Y014687D02*
X036153Y014687D01*
X036153Y014845D02*
X021577Y014845D01*
X021576Y015004D02*
X036153Y015004D01*
X036153Y015162D02*
X021574Y015162D01*
X021573Y015321D02*
X036153Y015321D01*
X036153Y015479D02*
X021571Y015479D01*
X021569Y015638D02*
X036153Y015638D01*
X036153Y015796D02*
X021568Y015796D01*
X021566Y015955D02*
X036153Y015955D01*
X036153Y016113D02*
X021565Y016113D01*
X021563Y016272D02*
X036153Y016272D01*
X036153Y016906D02*
X008843Y016906D01*
X008843Y017064D02*
X036153Y017064D01*
X036153Y017223D02*
X008843Y017223D01*
X008843Y017381D02*
X036153Y017381D01*
X036153Y011358D02*
X021612Y011358D01*
X021614Y011200D02*
X036153Y011200D01*
X036153Y011041D02*
X021615Y011041D01*
X021617Y010883D02*
X036153Y010883D01*
X036153Y010724D02*
X021619Y010724D01*
X021620Y010566D02*
X036153Y010566D01*
X036153Y010407D02*
X026590Y010407D01*
X026600Y010249D02*
X036153Y010249D01*
X036153Y010090D02*
X026600Y010090D01*
X026579Y009932D02*
X036153Y009932D01*
X036153Y009773D02*
X026600Y009773D01*
X026600Y009615D02*
X027975Y009615D01*
X028351Y009615D02*
X028975Y009615D01*
X028981Y009620D02*
X028723Y009362D01*
X028723Y008998D01*
X028903Y008818D01*
X028903Y007128D01*
X028923Y007080D01*
X028923Y006798D01*
X029181Y006540D01*
X029545Y006540D01*
X029725Y006720D01*
X030855Y006720D01*
X030916Y006660D01*
X031011Y006620D01*
X031115Y006620D01*
X031210Y006660D01*
X031582Y007031D01*
X031602Y007010D01*
X031771Y006940D01*
X031954Y006940D01*
X032124Y007010D01*
X032253Y007139D01*
X032323Y007308D01*
X032323Y008051D01*
X032253Y008221D01*
X032124Y008350D01*
X031954Y008420D01*
X031771Y008420D01*
X031602Y008350D01*
X031473Y008221D01*
X031403Y008051D01*
X031403Y007588D01*
X031043Y007228D01*
X031015Y007240D01*
X029725Y007240D01*
X029545Y007420D01*
X029423Y007420D01*
X029423Y008818D01*
X029603Y008998D01*
X029603Y009362D01*
X029345Y009620D01*
X028981Y009620D01*
X028817Y009456D02*
X028509Y009456D01*
X028603Y009298D02*
X028723Y009298D01*
X028723Y009139D02*
X028603Y009139D01*
X028586Y008981D02*
X028740Y008981D01*
X028899Y008822D02*
X028427Y008822D01*
X028163Y009180D02*
X028113Y009230D01*
X025987Y009230D01*
X025987Y008730D02*
X026037Y008680D01*
X026863Y008680D01*
X027263Y008280D01*
X027263Y007780D01*
X029063Y005980D01*
X029363Y005980D01*
X030863Y005980D01*
X032063Y004780D01*
X033163Y004780D01*
X033688Y005177D02*
X036153Y005177D01*
X036153Y005335D02*
X031876Y005335D01*
X032034Y005177D02*
X032638Y005177D01*
X032637Y004384D02*
X023935Y004384D01*
X024087Y004543D02*
X031957Y004543D01*
X031774Y004701D02*
X024123Y004701D01*
X024123Y004860D02*
X031616Y004860D01*
X031457Y005018D02*
X024123Y005018D01*
X024123Y005177D02*
X031299Y005177D01*
X031140Y005335D02*
X024123Y005335D01*
X024207Y005494D02*
X024519Y005494D01*
X024512Y005500D02*
X024563Y005449D01*
X024622Y005407D01*
X024686Y005374D01*
X024755Y005351D01*
X024827Y005340D01*
X024853Y005340D01*
X024853Y006070D01*
X024873Y006070D01*
X024873Y006090D01*
X025323Y006090D01*
X025323Y006396D01*
X025312Y006468D01*
X025289Y006537D01*
X025256Y006601D01*
X025214Y006660D01*
X025163Y006711D01*
X025104Y006753D01*
X025040Y006786D01*
X024971Y006809D01*
X024899Y006820D01*
X024873Y006820D01*
X024873Y006090D01*
X024853Y006090D01*
X024853Y006820D01*
X024827Y006820D01*
X024755Y006809D01*
X024686Y006786D01*
X024622Y006753D01*
X024563Y006711D01*
X024512Y006660D01*
X024470Y006601D01*
X024437Y006537D01*
X024414Y006468D01*
X024403Y006396D01*
X024403Y006090D01*
X024853Y006090D01*
X024853Y006070D01*
X024403Y006070D01*
X024403Y005764D01*
X024414Y005692D01*
X024437Y005623D01*
X024470Y005559D01*
X024512Y005500D01*
X024427Y005652D02*
X024300Y005652D01*
X024323Y005811D02*
X024403Y005811D01*
X024403Y005969D02*
X024323Y005969D01*
X024323Y006128D02*
X024403Y006128D01*
X024403Y006286D02*
X024323Y006286D01*
X024323Y006445D02*
X024411Y006445D01*
X024471Y006603D02*
X024260Y006603D01*
X024123Y006762D02*
X024638Y006762D01*
X024853Y006762D02*
X024873Y006762D01*
X024873Y006603D02*
X024853Y006603D01*
X024853Y006445D02*
X024873Y006445D01*
X024873Y006286D02*
X024853Y006286D01*
X024853Y006128D02*
X024873Y006128D01*
X024873Y006070D02*
X025323Y006070D01*
X025323Y005764D01*
X025312Y005692D01*
X025289Y005623D01*
X025256Y005559D01*
X025214Y005500D01*
X025163Y005449D01*
X025104Y005407D01*
X025040Y005374D01*
X024971Y005351D01*
X024899Y005340D01*
X024873Y005340D01*
X024873Y006070D01*
X024873Y005969D02*
X024853Y005969D01*
X024853Y005811D02*
X024873Y005811D01*
X024873Y005652D02*
X024853Y005652D01*
X024853Y005494D02*
X024873Y005494D01*
X025207Y005494D02*
X030982Y005494D01*
X030823Y005652D02*
X029657Y005652D01*
X029069Y005652D02*
X025299Y005652D01*
X025323Y005811D02*
X028865Y005811D01*
X028706Y005969D02*
X025323Y005969D01*
X025323Y006128D02*
X028548Y006128D01*
X028389Y006286D02*
X025323Y006286D01*
X025315Y006445D02*
X028231Y006445D01*
X028072Y006603D02*
X025255Y006603D01*
X025088Y006762D02*
X027914Y006762D01*
X027755Y006920D02*
X024123Y006920D01*
X024032Y007079D02*
X027597Y007079D01*
X027438Y007237D02*
X023874Y007237D01*
X024010Y007100D02*
X024010Y007100D01*
X023863Y006880D02*
X022663Y008080D01*
X022663Y008580D01*
X022763Y008680D01*
X023889Y008680D01*
X023939Y008730D01*
X023383Y008981D02*
X021636Y008981D01*
X021634Y009139D02*
X023326Y009139D01*
X023326Y009298D02*
X021633Y009298D01*
X021631Y009456D02*
X023360Y009456D01*
X023326Y009615D02*
X021630Y009615D01*
X021628Y009773D02*
X023326Y009773D01*
X023335Y009932D02*
X021626Y009932D01*
X021625Y010090D02*
X023326Y010090D01*
X023326Y010249D02*
X021623Y010249D01*
X021622Y010407D02*
X023326Y010407D01*
X024552Y010407D02*
X025383Y010407D01*
X025374Y010249D02*
X024552Y010249D01*
X024552Y010090D02*
X025374Y010090D01*
X025374Y010230D02*
X025987Y010230D01*
X025987Y010230D01*
X025374Y010230D01*
X025394Y009932D02*
X024544Y009932D01*
X024552Y009773D02*
X025374Y009773D01*
X025374Y009730D02*
X025987Y009730D01*
X025374Y009730D01*
X025374Y009615D02*
X024552Y009615D01*
X024519Y009456D02*
X025407Y009456D01*
X025374Y009298D02*
X024552Y009298D01*
X024552Y009139D02*
X025374Y009139D01*
X025430Y008981D02*
X024496Y008981D01*
X024552Y008822D02*
X025374Y008822D01*
X025374Y008664D02*
X024552Y008664D01*
X024520Y008505D02*
X025406Y008505D01*
X026829Y008347D02*
X022923Y008347D01*
X022403Y008347D02*
X021642Y008347D01*
X021641Y008505D02*
X022403Y008505D01*
X022416Y008664D02*
X021639Y008664D01*
X021638Y008822D02*
X022537Y008822D01*
X022543Y008827D02*
X022543Y008827D01*
X022403Y008188D02*
X021644Y008188D01*
X021645Y008030D02*
X022403Y008030D01*
X022504Y007871D02*
X021647Y007871D01*
X021649Y007713D02*
X022663Y007713D01*
X022516Y007860D02*
X022516Y007860D01*
X022821Y007554D02*
X021650Y007554D01*
X021652Y007396D02*
X022980Y007396D01*
X023138Y007237D02*
X021653Y007237D01*
X021655Y007079D02*
X023297Y007079D01*
X023455Y006920D02*
X021657Y006920D01*
X021658Y006762D02*
X023603Y006762D01*
X023466Y006603D02*
X021660Y006603D01*
X021661Y006445D02*
X023403Y006445D01*
X023403Y006286D02*
X021663Y006286D01*
X021163Y006603D02*
X018043Y006603D01*
X018043Y006762D02*
X021163Y006762D01*
X021163Y006920D02*
X018043Y006920D01*
X018043Y007079D02*
X021163Y007079D01*
X021163Y007237D02*
X018001Y007237D01*
X017843Y007396D02*
X021163Y007396D01*
X021163Y007554D02*
X017685Y007554D01*
X017526Y007713D02*
X021163Y007713D01*
X021163Y007871D02*
X017368Y007871D01*
X017209Y008030D02*
X021163Y008030D01*
X021163Y008188D02*
X017051Y008188D01*
X016892Y008347D02*
X021163Y008347D01*
X021163Y008505D02*
X016734Y008505D01*
X016575Y008664D02*
X021163Y008664D01*
X021163Y008822D02*
X016417Y008822D01*
X016258Y008981D02*
X021163Y008981D01*
X021163Y009139D02*
X016100Y009139D01*
X015941Y009298D02*
X021163Y009298D01*
X021163Y009456D02*
X015783Y009456D01*
X015893Y009615D02*
X021163Y009615D01*
X021163Y009773D02*
X016052Y009773D01*
X016205Y009932D02*
X021163Y009932D01*
X021163Y010090D02*
X016243Y010090D01*
X016243Y010249D02*
X021163Y010249D01*
X021163Y010407D02*
X016243Y010407D01*
X016243Y010566D02*
X021163Y010566D01*
X021163Y010724D02*
X016243Y010724D01*
X016261Y010883D02*
X021163Y010883D01*
X021163Y011041D02*
X016408Y011041D01*
X016443Y011200D02*
X021163Y011200D01*
X021163Y011358D02*
X016443Y011358D01*
X016443Y011517D02*
X021163Y011517D01*
X019719Y013102D02*
X019235Y013102D01*
X019153Y013020D02*
X019423Y013289D01*
X019423Y013671D01*
X019153Y013940D01*
X018772Y013940D01*
X018503Y013671D01*
X018503Y013460D01*
X018503Y013577D02*
X017973Y013577D01*
X017973Y013419D02*
X018107Y013419D01*
X018504Y013736D02*
X018568Y013736D01*
X018673Y013894D02*
X018726Y013894D01*
X018831Y014053D02*
X021163Y014053D01*
X021163Y014211D02*
X018990Y014211D01*
X019199Y013894D02*
X019755Y013894D01*
X019596Y013736D02*
X019358Y013736D01*
X019423Y013577D02*
X019523Y013577D01*
X019523Y013419D02*
X019423Y013419D01*
X019394Y013260D02*
X019561Y013260D01*
X019153Y013020D02*
X018899Y013020D01*
X018822Y012943D01*
X018357Y014370D02*
X017973Y014370D01*
X017973Y014528D02*
X018515Y014528D01*
X018603Y014687D02*
X017973Y014687D01*
X018424Y014845D02*
X018603Y014845D01*
X018534Y015004D02*
X018736Y015004D01*
X017983Y015321D02*
X017951Y015321D01*
X017953Y015479D02*
X017983Y015479D01*
X017984Y015638D02*
X017952Y015638D01*
X018083Y015796D02*
X015450Y015796D01*
X015553Y015638D02*
X016794Y015638D01*
X016793Y015480D02*
X017373Y015480D01*
X016793Y015480D01*
X016793Y015479D02*
X015553Y015479D01*
X015553Y015321D02*
X016795Y015321D01*
X016773Y015162D02*
X016277Y015162D01*
X016415Y015004D02*
X016773Y015004D01*
X016773Y014845D02*
X016443Y014845D01*
X017373Y015480D02*
X017373Y015480D01*
X017373Y015638D02*
X017373Y015638D01*
X019130Y015796D02*
X019625Y015796D01*
X019466Y015955D02*
X019288Y015955D01*
X019323Y016113D02*
X019423Y016113D01*
X019423Y016272D02*
X019323Y016272D01*
X019263Y016430D02*
X019491Y016430D01*
X019649Y016589D02*
X019105Y016589D01*
X020235Y016430D02*
X021163Y016430D01*
X021163Y016272D02*
X020303Y016272D01*
X020303Y016113D02*
X021163Y016113D01*
X021163Y015955D02*
X020260Y015955D01*
X019623Y014845D02*
X019523Y014845D01*
X019523Y014687D02*
X019623Y014687D01*
X019623Y014528D02*
X019523Y014528D01*
X019403Y014370D02*
X019751Y014370D01*
X016163Y012980D02*
X016163Y012880D01*
X016163Y012480D02*
X016163Y011180D01*
X015963Y010980D01*
X015963Y010080D01*
X014463Y008580D01*
X009863Y008580D01*
X009363Y009080D01*
X009363Y009580D01*
X009893Y010110D01*
X010383Y010110D01*
X010057Y010407D02*
X008843Y010407D01*
X008843Y010249D02*
X009635Y010249D01*
X009477Y010090D02*
X008843Y010090D01*
X008843Y009932D02*
X009318Y009932D01*
X009160Y009773D02*
X008843Y009773D01*
X008843Y009615D02*
X009083Y009615D01*
X009083Y009456D02*
X008843Y009456D01*
X008843Y009298D02*
X009083Y009298D01*
X009083Y009139D02*
X008843Y009139D01*
X008843Y008981D02*
X009101Y008981D01*
X009225Y008822D02*
X008843Y008822D01*
X008843Y008664D02*
X009383Y008664D01*
X009542Y008505D02*
X008843Y008505D01*
X008843Y008347D02*
X009700Y008347D01*
X008843Y008188D02*
X016259Y008188D01*
X016417Y008030D02*
X008843Y008030D01*
X008843Y007871D02*
X016576Y007871D01*
X016734Y007713D02*
X008843Y007713D01*
X008843Y007554D02*
X016893Y007554D01*
X017051Y007396D02*
X015041Y007396D01*
X015225Y007237D02*
X017210Y007237D01*
X017368Y007079D02*
X015293Y007079D01*
X015299Y006920D02*
X017483Y006920D01*
X017483Y006762D02*
X015248Y006762D01*
X015107Y006603D02*
X017483Y006603D01*
X017503Y006128D02*
X015279Y006128D01*
X015303Y005970D02*
X014573Y005970D01*
X014573Y005520D01*
X014879Y005520D01*
X014951Y005531D01*
X015020Y005554D01*
X015084Y005587D01*
X015143Y005629D01*
X015194Y005680D01*
X015236Y005739D01*
X015269Y005803D01*
X015292Y005872D01*
X015303Y005944D01*
X015303Y005970D01*
X015303Y005969D02*
X017503Y005969D01*
X017503Y005811D02*
X015272Y005811D01*
X015166Y005652D02*
X017503Y005652D01*
X017503Y005494D02*
X012393Y005494D01*
X012393Y005652D02*
X013960Y005652D01*
X013983Y005629D02*
X014042Y005587D01*
X014106Y005554D01*
X014175Y005531D01*
X014247Y005520D01*
X014553Y005520D01*
X014553Y005970D01*
X013823Y005970D01*
X013823Y005944D01*
X013834Y005872D01*
X013857Y005803D01*
X013890Y005739D01*
X013932Y005680D01*
X013983Y005629D01*
X013854Y005811D02*
X012393Y005811D01*
X012305Y005969D02*
X013823Y005969D01*
X013847Y006128D02*
X008843Y006128D01*
X008843Y005969D02*
X009012Y005969D01*
X008923Y005811D02*
X008843Y005811D01*
X008843Y005652D02*
X008923Y005652D01*
X008923Y005494D02*
X008843Y005494D01*
X008843Y005335D02*
X008923Y005335D01*
X008923Y005177D02*
X008843Y005177D01*
X008843Y005018D02*
X008923Y005018D01*
X008843Y004860D02*
X009008Y004860D01*
X008843Y004701D02*
X010088Y004701D01*
X010080Y004543D02*
X008843Y004543D01*
X008843Y004384D02*
X010091Y004384D01*
X010157Y004226D02*
X008843Y004226D01*
X008843Y004067D02*
X010279Y004067D01*
X010527Y003909D02*
X008843Y003909D01*
X008843Y003750D02*
X011329Y003750D01*
X011329Y003592D02*
X008843Y003592D01*
X008843Y003433D02*
X010483Y003433D01*
X010260Y003275D02*
X008843Y003275D01*
X008843Y003116D02*
X010149Y003116D01*
X010084Y002958D02*
X008843Y002958D01*
X008843Y002799D02*
X010080Y002799D01*
X010096Y002641D02*
X008843Y002641D01*
X008843Y002482D02*
X008989Y002482D01*
X008923Y002324D02*
X008843Y002324D01*
X008843Y002165D02*
X008923Y002165D01*
X008923Y002007D02*
X008843Y002007D01*
X008843Y001848D02*
X008923Y001848D01*
X008923Y001690D02*
X008843Y001690D01*
X008843Y001531D02*
X008923Y001531D01*
X008843Y001373D02*
X036153Y001373D01*
X036153Y001531D02*
X012393Y001531D01*
X012393Y001690D02*
X036153Y001690D01*
X036153Y001848D02*
X012393Y001848D01*
X012393Y002007D02*
X036153Y002007D01*
X036153Y002165D02*
X012393Y002165D01*
X012393Y002324D02*
X036153Y002324D01*
X036153Y002482D02*
X012327Y002482D01*
X012513Y002799D02*
X014416Y002799D01*
X014425Y002784D02*
X014459Y002750D01*
X014500Y002726D01*
X014546Y002714D01*
X014895Y002714D01*
X014895Y003122D01*
X014389Y003122D01*
X014389Y002870D01*
X014402Y002825D01*
X014425Y002784D01*
X014389Y002958D02*
X012597Y002958D01*
X012597Y003116D02*
X014389Y003116D01*
X014389Y003257D02*
X014895Y003257D01*
X014895Y003122D01*
X015031Y003122D01*
X015031Y003257D01*
X015537Y003257D01*
X015537Y003508D01*
X015524Y003554D01*
X015501Y003595D01*
X015467Y003629D01*
X015426Y003652D01*
X015380Y003665D01*
X015031Y003665D01*
X015031Y003257D01*
X014895Y003257D01*
X014895Y003665D01*
X014546Y003665D01*
X014500Y003652D01*
X014459Y003629D01*
X014425Y003595D01*
X014402Y003554D01*
X014389Y003508D01*
X014389Y003257D01*
X014389Y003275D02*
X012597Y003275D01*
X012597Y003433D02*
X014389Y003433D01*
X014423Y003592D02*
X012597Y003592D01*
X012597Y003750D02*
X032423Y003750D01*
X032423Y003744D02*
X032434Y003672D01*
X032457Y003603D01*
X032490Y003539D01*
X032532Y003480D01*
X032583Y003429D01*
X032642Y003387D01*
X032706Y003354D01*
X032775Y003331D01*
X032847Y003320D01*
X033153Y003320D01*
X033153Y003770D01*
X033173Y003770D01*
X033173Y003790D01*
X033903Y003790D01*
X033903Y003816D01*
X033892Y003888D01*
X033869Y003957D01*
X033836Y004021D01*
X033794Y004080D01*
X033743Y004131D01*
X033684Y004173D01*
X033620Y004206D01*
X033551Y004229D01*
X033479Y004240D01*
X033173Y004240D01*
X033173Y003790D01*
X033153Y003790D01*
X033153Y004240D01*
X032847Y004240D01*
X032775Y004229D01*
X032706Y004206D01*
X032642Y004173D01*
X032583Y004131D01*
X032532Y004080D01*
X032490Y004021D01*
X032457Y003957D01*
X032434Y003888D01*
X032423Y003816D01*
X032423Y003790D01*
X033153Y003790D01*
X033153Y003770D01*
X032423Y003770D01*
X032423Y003744D01*
X032463Y003592D02*
X019304Y003592D01*
X019337Y003559D02*
X019231Y003665D01*
X018295Y003665D01*
X018189Y003559D01*
X018189Y002820D01*
X018295Y002714D01*
X019231Y002714D01*
X019337Y002820D01*
X019337Y003559D01*
X019337Y003433D02*
X019996Y003433D01*
X020002Y003454D02*
X019989Y003408D01*
X019989Y003157D01*
X020495Y003157D01*
X020495Y003022D01*
X019989Y003022D01*
X019989Y002770D01*
X020002Y002725D01*
X020025Y002684D01*
X020059Y002650D01*
X020100Y002626D01*
X020146Y002614D01*
X020495Y002614D01*
X020495Y003022D01*
X020631Y003022D01*
X020631Y003157D01*
X021137Y003157D01*
X021137Y003408D01*
X021124Y003454D01*
X021101Y003495D01*
X021067Y003529D01*
X021026Y003552D01*
X020980Y003565D01*
X020631Y003565D01*
X020631Y003157D01*
X020495Y003157D01*
X020495Y003565D01*
X020146Y003565D01*
X020100Y003552D01*
X020059Y003529D01*
X020025Y003495D01*
X020002Y003454D01*
X019989Y003275D02*
X019337Y003275D01*
X019337Y003116D02*
X020495Y003116D01*
X020631Y003116D02*
X022395Y003116D01*
X022395Y003157D02*
X022395Y003022D01*
X021889Y003022D01*
X021889Y002770D01*
X021902Y002725D01*
X021925Y002684D01*
X021959Y002650D01*
X022000Y002626D01*
X022046Y002614D01*
X022395Y002614D01*
X022395Y003022D01*
X022531Y003022D01*
X022531Y003157D01*
X023037Y003157D01*
X023037Y003408D01*
X023024Y003454D01*
X023001Y003495D01*
X022967Y003529D01*
X022926Y003552D01*
X022880Y003565D01*
X022531Y003565D01*
X022531Y003157D01*
X022395Y003157D01*
X021889Y003157D01*
X021889Y003408D01*
X021902Y003454D01*
X021925Y003495D01*
X021959Y003529D01*
X022000Y003552D01*
X022046Y003565D01*
X022395Y003565D01*
X022395Y003157D01*
X022395Y003275D02*
X022531Y003275D01*
X022531Y003433D02*
X022395Y003433D01*
X022531Y003116D02*
X036153Y003116D01*
X036153Y002958D02*
X023037Y002958D01*
X023037Y003022D02*
X023037Y002770D01*
X023024Y002725D01*
X023001Y002684D01*
X022967Y002650D01*
X022926Y002626D01*
X022880Y002614D01*
X022531Y002614D01*
X022531Y003022D01*
X023037Y003022D01*
X023037Y002799D02*
X036153Y002799D01*
X036153Y002641D02*
X022950Y002641D01*
X022531Y002641D02*
X022395Y002641D01*
X022395Y002799D02*
X022531Y002799D01*
X022531Y002958D02*
X022395Y002958D01*
X021889Y002958D02*
X021137Y002958D01*
X021137Y003022D02*
X021137Y002770D01*
X021124Y002725D01*
X021101Y002684D01*
X021067Y002650D01*
X021026Y002626D01*
X020980Y002614D01*
X020631Y002614D01*
X020631Y003022D01*
X021137Y003022D01*
X021137Y002799D02*
X021889Y002799D01*
X021975Y002641D02*
X021050Y002641D01*
X020631Y002641D02*
X020495Y002641D01*
X020495Y002799D02*
X020631Y002799D01*
X020631Y002958D02*
X020495Y002958D01*
X020495Y003275D02*
X020631Y003275D01*
X020631Y003433D02*
X020495Y003433D01*
X021130Y003433D02*
X021896Y003433D01*
X021889Y003275D02*
X021137Y003275D01*
X021137Y003909D02*
X021889Y003909D01*
X022463Y004271D02*
X023454Y004271D01*
X023863Y004680D01*
X023863Y006080D01*
X023863Y006880D01*
X023715Y007396D02*
X027280Y007396D01*
X027121Y007554D02*
X023557Y007554D01*
X023398Y007713D02*
X027009Y007713D01*
X027003Y007871D02*
X023240Y007871D01*
X023403Y006128D02*
X018023Y006128D01*
X018023Y005969D02*
X023403Y005969D01*
X023403Y005811D02*
X018023Y005811D01*
X018023Y005652D02*
X023426Y005652D01*
X023519Y005494D02*
X018023Y005494D01*
X018023Y005335D02*
X023603Y005335D01*
X023603Y005177D02*
X018023Y005177D01*
X018023Y005018D02*
X023603Y005018D01*
X023603Y004860D02*
X018023Y004860D01*
X018023Y004701D02*
X018189Y004701D01*
X017763Y004371D02*
X017763Y007080D01*
X014763Y010080D01*
X014663Y010080D01*
X014594Y010407D02*
X012986Y010407D01*
X012203Y011200D02*
X008843Y011200D01*
X008843Y011358D02*
X012290Y011358D01*
X010911Y011041D02*
X010910Y011041D01*
X010593Y010850D02*
X010383Y010850D01*
X010593Y010850D02*
X010623Y010848D01*
X010653Y010843D01*
X010682Y010835D01*
X010710Y010823D01*
X010737Y010809D01*
X010761Y010791D01*
X010784Y010771D01*
X010804Y010748D01*
X010822Y010724D01*
X010836Y010697D01*
X010848Y010669D01*
X010856Y010640D01*
X010861Y010610D01*
X010863Y010580D01*
X010045Y010566D02*
X008843Y010566D01*
X008843Y010724D02*
X009943Y010724D01*
X009943Y010883D02*
X008843Y010883D01*
X008843Y011041D02*
X009951Y011041D01*
X008843Y011834D02*
X014673Y011834D01*
X014673Y011992D02*
X008843Y011992D01*
X008843Y007396D02*
X014085Y007396D01*
X013901Y007237D02*
X008843Y007237D01*
X008843Y007079D02*
X013833Y007079D01*
X013827Y006920D02*
X008843Y006920D01*
X008843Y006762D02*
X013878Y006762D01*
X014019Y006603D02*
X008843Y006603D01*
X010140Y005969D02*
X011177Y005969D01*
X011088Y005811D02*
X010228Y005811D01*
X010228Y005652D02*
X011088Y005652D01*
X011088Y005494D02*
X010228Y005494D01*
X010228Y005335D02*
X011088Y005335D01*
X011088Y005177D02*
X011004Y005177D01*
X010510Y005177D02*
X010228Y005177D01*
X010228Y005018D02*
X010271Y005018D01*
X010154Y004860D02*
X010143Y004860D01*
X011235Y004067D02*
X011329Y004067D01*
X011329Y003909D02*
X010986Y003909D01*
X011031Y003433D02*
X011329Y003433D01*
X011329Y003275D02*
X011253Y003275D01*
X011417Y002641D02*
X020075Y002641D01*
X019989Y002799D02*
X019316Y002799D01*
X019337Y002958D02*
X019989Y002958D01*
X019989Y003909D02*
X019244Y003909D01*
X019337Y004067D02*
X019989Y004067D01*
X020463Y004371D02*
X020563Y004271D01*
X022463Y004271D01*
X023037Y004543D02*
X023358Y004543D01*
X023516Y004701D02*
X022976Y004701D01*
X023618Y004067D02*
X032523Y004067D01*
X032441Y003909D02*
X023037Y003909D01*
X023030Y003433D02*
X032579Y003433D01*
X033153Y003433D02*
X033173Y003433D01*
X033173Y003320D02*
X033479Y003320D01*
X033551Y003331D01*
X033620Y003354D01*
X033684Y003387D01*
X033743Y003429D01*
X033794Y003480D01*
X033836Y003539D01*
X033869Y003603D01*
X033892Y003672D01*
X033903Y003744D01*
X033903Y003770D01*
X033173Y003770D01*
X033173Y003320D01*
X033153Y003592D02*
X033173Y003592D01*
X033173Y003750D02*
X033153Y003750D01*
X033153Y003909D02*
X033173Y003909D01*
X033173Y004067D02*
X033153Y004067D01*
X033153Y004226D02*
X033173Y004226D01*
X033560Y004226D02*
X036153Y004226D01*
X036153Y004384D02*
X033689Y004384D01*
X033842Y004543D02*
X036153Y004543D01*
X036153Y004701D02*
X033903Y004701D01*
X033903Y004860D02*
X036153Y004860D01*
X036153Y005018D02*
X033842Y005018D01*
X033803Y004067D02*
X036153Y004067D01*
X036153Y003909D02*
X033885Y003909D01*
X033903Y003750D02*
X036153Y003750D01*
X036153Y003592D02*
X033863Y003592D01*
X033747Y003433D02*
X036153Y003433D01*
X036153Y003275D02*
X023037Y003275D01*
X023776Y004226D02*
X032765Y004226D01*
X031717Y005494D02*
X036153Y005494D01*
X036153Y005652D02*
X031559Y005652D01*
X031400Y005811D02*
X036153Y005811D01*
X036153Y005969D02*
X031242Y005969D01*
X031083Y006128D02*
X036153Y006128D01*
X036153Y006286D02*
X029679Y006286D01*
X029608Y006603D02*
X036153Y006603D01*
X036153Y006445D02*
X028966Y006445D01*
X029118Y006603D02*
X028808Y006603D01*
X028959Y006762D02*
X028649Y006762D01*
X028491Y006920D02*
X028923Y006920D01*
X028923Y007079D02*
X028332Y007079D01*
X028174Y007237D02*
X028903Y007237D01*
X028903Y007396D02*
X028015Y007396D01*
X027857Y007554D02*
X028903Y007554D01*
X028903Y007713D02*
X027698Y007713D01*
X027540Y007871D02*
X028903Y007871D01*
X028903Y008030D02*
X027523Y008030D01*
X027523Y008188D02*
X028903Y008188D01*
X028903Y008347D02*
X027517Y008347D01*
X027406Y008505D02*
X028903Y008505D01*
X028903Y008664D02*
X027247Y008664D01*
X027089Y008822D02*
X027899Y008822D01*
X029163Y009180D02*
X029163Y007180D01*
X029363Y006980D01*
X030963Y006980D01*
X031063Y006880D01*
X031863Y007680D01*
X032323Y007713D02*
X032403Y007713D01*
X032403Y007690D02*
X032853Y007690D01*
X032853Y008420D01*
X032827Y008420D01*
X032755Y008409D01*
X032686Y008386D01*
X032622Y008353D01*
X032563Y008311D01*
X032512Y008260D01*
X032470Y008201D01*
X032437Y008137D01*
X032414Y008068D01*
X032403Y007996D01*
X032403Y007690D01*
X032403Y007670D02*
X032403Y007364D01*
X032414Y007292D01*
X032437Y007223D01*
X032470Y007159D01*
X032512Y007100D01*
X032563Y007049D01*
X032622Y007007D01*
X032686Y006974D01*
X032755Y006951D01*
X032827Y006940D01*
X032853Y006940D01*
X032853Y007670D01*
X032873Y007670D01*
X032873Y007690D01*
X033323Y007690D01*
X033323Y007996D01*
X033312Y008068D01*
X033289Y008137D01*
X033256Y008201D01*
X033214Y008260D01*
X033163Y008311D01*
X033104Y008353D01*
X033040Y008386D01*
X032971Y008409D01*
X032899Y008420D01*
X032873Y008420D01*
X032873Y007690D01*
X032853Y007690D01*
X032853Y007670D01*
X032403Y007670D01*
X032403Y007554D02*
X032323Y007554D01*
X032323Y007396D02*
X032403Y007396D01*
X032432Y007237D02*
X032293Y007237D01*
X032192Y007079D02*
X032534Y007079D01*
X032853Y007079D02*
X032873Y007079D01*
X032873Y006940D02*
X032899Y006940D01*
X032971Y006951D01*
X033040Y006974D01*
X033104Y007007D01*
X033163Y007049D01*
X033214Y007100D01*
X033256Y007159D01*
X033289Y007223D01*
X033312Y007292D01*
X033323Y007364D01*
X033323Y007670D01*
X032873Y007670D01*
X032873Y006940D01*
X032853Y007237D02*
X032873Y007237D01*
X032873Y007396D02*
X032853Y007396D01*
X032853Y007554D02*
X032873Y007554D01*
X032873Y007713D02*
X032853Y007713D01*
X032853Y007871D02*
X032873Y007871D01*
X032873Y008030D02*
X032853Y008030D01*
X032853Y008188D02*
X032873Y008188D01*
X032873Y008347D02*
X032853Y008347D01*
X032612Y008347D02*
X032127Y008347D01*
X032266Y008188D02*
X032463Y008188D01*
X032408Y008030D02*
X032323Y008030D01*
X032323Y007871D02*
X032403Y007871D01*
X033114Y008347D02*
X036153Y008347D01*
X036153Y008505D02*
X029423Y008505D01*
X029423Y008347D02*
X031599Y008347D01*
X031460Y008188D02*
X029423Y008188D01*
X029423Y008030D02*
X031403Y008030D01*
X031403Y007871D02*
X029423Y007871D01*
X029423Y007713D02*
X031403Y007713D01*
X031369Y007554D02*
X029423Y007554D01*
X029570Y007396D02*
X031211Y007396D01*
X031052Y007237D02*
X031022Y007237D01*
X031471Y006920D02*
X036153Y006920D01*
X036153Y006762D02*
X031312Y006762D01*
X033192Y007079D02*
X036153Y007079D01*
X036153Y007237D02*
X033294Y007237D01*
X033323Y007396D02*
X036153Y007396D01*
X036153Y007554D02*
X033323Y007554D01*
X033323Y007713D02*
X036153Y007713D01*
X036153Y007871D02*
X033323Y007871D01*
X033318Y008030D02*
X036153Y008030D01*
X036153Y008188D02*
X033263Y008188D01*
X036153Y008664D02*
X029423Y008664D01*
X029427Y008822D02*
X036153Y008822D01*
X036153Y008981D02*
X029586Y008981D01*
X029603Y009139D02*
X036153Y009139D01*
X036153Y009298D02*
X029603Y009298D01*
X029509Y009456D02*
X036153Y009456D01*
X036153Y009615D02*
X029351Y009615D01*
X025987Y009730D02*
X025987Y009730D01*
X025987Y009773D02*
X025987Y009773D01*
X025987Y009932D02*
X025987Y009932D01*
X025987Y010090D02*
X025987Y010090D01*
X025987Y010249D02*
X025987Y010249D01*
X025987Y010407D02*
X025987Y010407D01*
X021950Y004701D02*
X021076Y004701D01*
X021137Y004543D02*
X021889Y004543D01*
X020463Y004371D02*
X018763Y004371D01*
X017763Y004371D01*
X016863Y004371D01*
X014963Y004371D01*
X014902Y004310D01*
X011963Y004310D01*
X012597Y003909D02*
X014481Y003909D01*
X014895Y003592D02*
X015031Y003592D01*
X015031Y003433D02*
X014895Y003433D01*
X014895Y003275D02*
X015031Y003275D01*
X015031Y003122D02*
X015537Y003122D01*
X015537Y002870D01*
X015524Y002825D01*
X015501Y002784D01*
X015467Y002750D01*
X015426Y002726D01*
X015380Y002714D01*
X015031Y002714D01*
X015031Y003122D01*
X015031Y003116D02*
X014895Y003116D01*
X014895Y002958D02*
X015031Y002958D01*
X015031Y002799D02*
X014895Y002799D01*
X015510Y002799D02*
X016316Y002799D01*
X016325Y002784D02*
X016359Y002750D01*
X016400Y002726D01*
X016446Y002714D01*
X016795Y002714D01*
X016795Y003122D01*
X016289Y003122D01*
X016289Y002870D01*
X016302Y002825D01*
X016325Y002784D01*
X016289Y002958D02*
X015537Y002958D01*
X015537Y003116D02*
X016289Y003116D01*
X016289Y003257D02*
X016795Y003257D01*
X016795Y003122D01*
X016931Y003122D01*
X016931Y003257D01*
X017437Y003257D01*
X017437Y003508D01*
X017424Y003554D01*
X017401Y003595D01*
X017367Y003629D01*
X017326Y003652D01*
X017280Y003665D01*
X016931Y003665D01*
X016931Y003257D01*
X016795Y003257D01*
X016795Y003665D01*
X016446Y003665D01*
X016400Y003652D01*
X016359Y003629D01*
X016325Y003595D01*
X016302Y003554D01*
X016289Y003508D01*
X016289Y003257D01*
X016289Y003275D02*
X015537Y003275D01*
X015537Y003433D02*
X016289Y003433D01*
X016323Y003592D02*
X015503Y003592D01*
X015444Y003909D02*
X016381Y003909D01*
X016289Y004067D02*
X015537Y004067D01*
X015537Y004701D02*
X016289Y004701D01*
X017437Y004701D02*
X017503Y004701D01*
X017503Y004860D02*
X012309Y004860D01*
X012393Y005018D02*
X017503Y005018D01*
X017503Y005177D02*
X012393Y005177D01*
X012393Y005335D02*
X017503Y005335D01*
X017437Y004067D02*
X018189Y004067D01*
X018281Y003909D02*
X017344Y003909D01*
X017403Y003592D02*
X018221Y003592D01*
X018189Y003433D02*
X017437Y003433D01*
X017437Y003275D02*
X018189Y003275D01*
X018189Y003116D02*
X017437Y003116D01*
X017437Y003122D02*
X017437Y002870D01*
X017424Y002825D01*
X017401Y002784D01*
X017367Y002750D01*
X017326Y002726D01*
X017280Y002714D01*
X016931Y002714D01*
X016931Y003122D01*
X017437Y003122D01*
X017437Y002958D02*
X018189Y002958D01*
X018210Y002799D02*
X017410Y002799D01*
X016931Y002799D02*
X016795Y002799D01*
X016795Y002958D02*
X016931Y002958D01*
X016931Y003116D02*
X016795Y003116D01*
X016795Y003275D02*
X016931Y003275D01*
X016931Y003433D02*
X016795Y003433D01*
X016795Y003592D02*
X016931Y003592D01*
X014389Y004701D02*
X011425Y004701D01*
X013932Y006280D02*
X013932Y006280D01*
X014553Y005969D02*
X014573Y005969D01*
X014573Y005811D02*
X014553Y005811D01*
X014553Y005652D02*
X014573Y005652D01*
X014553Y007079D02*
X014573Y007079D01*
X014573Y007237D02*
X014553Y007237D01*
X014553Y007396D02*
X014573Y007396D01*
X014625Y008347D02*
X016100Y008347D01*
X015942Y008505D02*
X014784Y008505D01*
X014942Y008664D02*
X015783Y008664D01*
X015625Y008822D02*
X015101Y008822D01*
X015259Y008981D02*
X015466Y008981D01*
X019337Y004701D02*
X020050Y004701D01*
X011963Y002958D02*
X011963Y002958D01*
X011963Y002799D02*
X011963Y002799D01*
X011088Y002165D02*
X010959Y002165D01*
X011088Y002007D02*
X010228Y002007D01*
X010228Y002165D02*
X010554Y002165D01*
X010290Y002324D02*
X010228Y002324D01*
X010228Y001848D02*
X011088Y001848D01*
X011088Y001690D02*
X010228Y001690D01*
X010228Y001531D02*
X011088Y001531D01*
X008843Y001214D02*
X036153Y001214D01*
M02*
