%
M48
M72
T01C0.0320
T02C0.0360
T03C0.0394
%
T01
X4300Y9500
X4300Y10500
X3100Y11900
X3100Y12900
X4000Y13700
X5000Y13700
X3900Y15800
X2900Y15800
X10500Y15600
X11500Y15600
X11700Y14100
X10700Y14100
X10600Y12900
X11600Y12900
X19800Y8600
X20800Y8600
X21000Y6400
X21000Y5400
T02
X23500Y7100
X24500Y7100
X24800Y4200
X24800Y3200
X16500Y5500
X15500Y5500
X13500Y11700
X12500Y11700
X6200Y6400
X6200Y5400
T03
X2394Y2234
X2394Y3966
M30
