G75*
%MOIN*%
%OFA0B0*%
%FSLAX24Y24*%
%IPPOS*%
%LPD*%
%AMOC8*
5,1,8,0,0,1.08239X$1,22.5*
%
%ADD10R,0.0880X0.0340*%
%ADD11R,0.0560X0.0280*%
%ADD12C,0.0640*%
%ADD13OC8,0.0600*%
%ADD14C,0.1080*%
%ADD15C,0.0555*%
%ADD16C,0.0516*%
D10*
X014956Y012480D03*
X014956Y012980D03*
X014956Y013480D03*
X014956Y013980D03*
X014956Y014480D03*
X014956Y014980D03*
X014956Y015480D03*
X017376Y015480D03*
X017376Y014980D03*
X017376Y014480D03*
X017376Y013980D03*
X017376Y013480D03*
X017376Y012980D03*
X017376Y012480D03*
D11*
X011346Y010850D03*
X011346Y010480D03*
X011346Y010110D03*
X010386Y010110D03*
X010386Y010850D03*
D12*
X014286Y006980D02*
X014846Y006980D01*
X014846Y005980D02*
X014286Y005980D01*
X017866Y008300D02*
X017866Y008860D01*
X018866Y008860D02*
X018866Y008300D01*
X020866Y012000D02*
X020866Y012560D01*
X021866Y012560D02*
X021866Y012000D01*
D13*
X019966Y013480D03*
X018966Y013480D03*
X019066Y014680D03*
X020066Y014680D03*
X019866Y016180D03*
X018866Y016180D03*
X013366Y014280D03*
X012366Y014280D03*
X011466Y013480D03*
X011466Y012480D03*
X012666Y011080D03*
X012666Y010080D03*
X012366Y015580D03*
X011366Y015580D03*
D14*
X009866Y007580D03*
X009866Y012580D03*
X009866Y016080D03*
X013366Y016686D03*
X018866Y010580D03*
X020866Y004580D03*
D15*
X014866Y011080D03*
D16*
X014366Y010080D03*
M02*
