%
M48
M72
T01C0.0276
T02C0.0315
T03C0.0320
T04C0.0360
%
T01
X14366Y10080
T02
X14866Y11080
T03
X12666Y11080
X12666Y10080
X11466Y12480
X11466Y13480
X12366Y14280
X13366Y14280
X12366Y15580
X11366Y15580
X18866Y16180
X19866Y16180
X20066Y14680
X19066Y14680
X18966Y13480
X19966Y13480
T04
X14566Y5980
X14566Y6980
X17866Y8580
X18866Y8580
X20866Y12280
X21866Y12280
M30
