G75*
%MOIN*%
%OFA0B0*%
%FSLAX24Y24*%
%IPPOS*%
%LPD*%
%AMOC8*
5,1,8,0,0,1.08239X$1,22.5*
%
%ADD10R,0.0800X0.0260*%
%ADD11R,0.0480X0.0200*%
%ADD12C,0.0560*%
%ADD13OC8,0.0520*%
%ADD14C,0.1000*%
%ADD15C,0.0160*%
%ADD16C,0.0475*%
%ADD17C,0.0436*%
D10*
X014956Y012480D03*
X014956Y012980D03*
X014956Y013480D03*
X014956Y013980D03*
X014956Y014480D03*
X014956Y014980D03*
X014956Y015480D03*
X017376Y015480D03*
X017376Y014980D03*
X017376Y014480D03*
X017376Y013980D03*
X017376Y013480D03*
X017376Y012980D03*
X017376Y012480D03*
D11*
X011346Y010850D03*
X011346Y010480D03*
X011346Y010110D03*
X010386Y010110D03*
X010386Y010850D03*
D12*
X014286Y006980D02*
X014846Y006980D01*
X014846Y005980D02*
X014286Y005980D01*
X017866Y008300D02*
X017866Y008860D01*
X018866Y008860D02*
X018866Y008300D01*
X020866Y012000D02*
X020866Y012560D01*
X021866Y012560D02*
X021866Y012000D01*
D13*
X019966Y013480D03*
X018966Y013480D03*
X019066Y014680D03*
X020066Y014680D03*
X019866Y016180D03*
X018866Y016180D03*
X013366Y014280D03*
X012366Y014280D03*
X011466Y013480D03*
X011466Y012480D03*
X012666Y011080D03*
X012666Y010080D03*
X012366Y015580D03*
X011366Y015580D03*
D14*
X009866Y016080D03*
X013366Y016686D03*
X009866Y012580D03*
X009866Y007580D03*
X018866Y010580D03*
X020866Y004580D03*
D15*
X008846Y006280D02*
X008846Y001060D01*
X036157Y001060D01*
X036157Y016280D01*
X021566Y016280D01*
X021600Y012935D01*
X021625Y012953D01*
X021690Y012986D01*
X021759Y013009D01*
X021830Y013020D01*
X021856Y013020D01*
X021856Y012290D01*
X021876Y012290D01*
X021876Y013020D01*
X021903Y013020D01*
X021974Y013009D01*
X022043Y012986D01*
X022108Y012953D01*
X022166Y012911D01*
X022217Y012860D01*
X022260Y012801D01*
X022293Y012737D01*
X022315Y012668D01*
X022326Y012596D01*
X022326Y012290D01*
X021876Y012290D01*
X021876Y012270D01*
X021876Y011540D01*
X021903Y011540D01*
X021974Y011551D01*
X022043Y011574D01*
X022108Y011607D01*
X022166Y011649D01*
X022217Y011700D01*
X022260Y011759D01*
X022293Y011823D01*
X022315Y011892D01*
X022326Y011964D01*
X022326Y012270D01*
X021876Y012270D01*
X021856Y012270D01*
X021856Y011540D01*
X021830Y011540D01*
X021759Y011551D01*
X021690Y011574D01*
X021625Y011607D01*
X021613Y011615D01*
X021666Y006280D01*
X015197Y006280D01*
X015197Y006280D01*
X015240Y006221D01*
X015273Y006157D01*
X015295Y006088D01*
X015306Y006016D01*
X015306Y005990D01*
X014576Y005990D01*
X014576Y005970D01*
X014576Y005520D01*
X014883Y005520D01*
X014954Y005531D01*
X015023Y005554D01*
X015088Y005587D01*
X015146Y005629D01*
X015197Y005680D01*
X015240Y005739D01*
X015273Y005803D01*
X015295Y005872D01*
X015306Y005944D01*
X015306Y005970D01*
X014576Y005970D01*
X014556Y005970D01*
X013826Y005970D01*
X013826Y005944D01*
X013838Y005872D01*
X013860Y005803D01*
X013893Y005739D01*
X013936Y005680D01*
X013987Y005629D01*
X014045Y005587D01*
X014110Y005554D01*
X014179Y005531D01*
X014250Y005520D01*
X014556Y005520D01*
X014556Y005970D01*
X014556Y005990D01*
X013826Y005990D01*
X013826Y006016D01*
X013838Y006088D01*
X013860Y006157D01*
X013893Y006221D01*
X013936Y006280D01*
X013936Y006280D01*
X008846Y006280D01*
X008846Y006128D02*
X013851Y006128D01*
X013826Y005969D02*
X008846Y005969D01*
X008846Y005811D02*
X013858Y005811D01*
X013964Y005652D02*
X008846Y005652D01*
X008846Y005494D02*
X036157Y005494D01*
X036157Y005652D02*
X015169Y005652D01*
X015275Y005811D02*
X036157Y005811D01*
X036157Y005969D02*
X015306Y005969D01*
X015282Y006128D02*
X036157Y006128D01*
X036157Y006286D02*
X021666Y006286D01*
X021665Y006445D02*
X036157Y006445D01*
X036157Y006603D02*
X021663Y006603D01*
X021662Y006762D02*
X036157Y006762D01*
X036157Y006920D02*
X021660Y006920D01*
X021658Y007079D02*
X036157Y007079D01*
X036157Y007237D02*
X021657Y007237D01*
X021655Y007396D02*
X036157Y007396D01*
X036157Y007554D02*
X021654Y007554D01*
X021652Y007713D02*
X036157Y007713D01*
X036157Y007871D02*
X021651Y007871D01*
X021649Y008030D02*
X036157Y008030D01*
X036157Y008188D02*
X021647Y008188D01*
X021646Y008347D02*
X036157Y008347D01*
X036157Y008505D02*
X021644Y008505D01*
X021643Y008664D02*
X036157Y008664D01*
X036157Y008822D02*
X021641Y008822D01*
X021639Y008981D02*
X036157Y008981D01*
X036157Y009139D02*
X021638Y009139D01*
X021636Y009298D02*
X036157Y009298D01*
X036157Y009456D02*
X021635Y009456D01*
X021633Y009615D02*
X036157Y009615D01*
X036157Y009773D02*
X021632Y009773D01*
X021630Y009932D02*
X036157Y009932D01*
X036157Y010090D02*
X021628Y010090D01*
X021627Y010249D02*
X036157Y010249D01*
X036157Y010407D02*
X021625Y010407D01*
X021624Y010566D02*
X036157Y010566D01*
X036157Y010724D02*
X021622Y010724D01*
X021620Y010883D02*
X036157Y010883D01*
X036157Y011041D02*
X021619Y011041D01*
X021617Y011200D02*
X036157Y011200D01*
X036157Y011358D02*
X021616Y011358D01*
X021614Y011517D02*
X036157Y011517D01*
X036157Y011675D02*
X022192Y011675D01*
X022296Y011834D02*
X036157Y011834D01*
X036157Y011992D02*
X022326Y011992D01*
X022326Y012151D02*
X036157Y012151D01*
X036157Y012309D02*
X022326Y012309D01*
X022326Y012468D02*
X036157Y012468D01*
X036157Y012626D02*
X022322Y012626D01*
X022268Y012785D02*
X036157Y012785D01*
X036157Y012943D02*
X022122Y012943D01*
X021876Y012943D02*
X021856Y012943D01*
X021856Y012785D02*
X021876Y012785D01*
X021876Y012626D02*
X021856Y012626D01*
X021856Y012468D02*
X021876Y012468D01*
X021876Y012309D02*
X021856Y012309D01*
X021856Y012151D02*
X021876Y012151D01*
X021876Y011992D02*
X021856Y011992D01*
X021856Y011834D02*
X021876Y011834D01*
X021876Y011675D02*
X021856Y011675D01*
X021166Y011649D02*
X021166Y006580D01*
X015075Y006580D01*
X015088Y006587D01*
X015146Y006629D01*
X015197Y006680D01*
X015240Y006739D01*
X015273Y006803D01*
X015295Y006872D01*
X015306Y006944D01*
X015306Y006970D01*
X014576Y006970D01*
X014576Y006990D01*
X014556Y006990D01*
X014556Y006970D01*
X013826Y006970D01*
X013826Y006944D01*
X013838Y006872D01*
X013860Y006803D01*
X013893Y006739D01*
X013936Y006680D01*
X013987Y006629D01*
X014045Y006587D01*
X014058Y006580D01*
X008846Y006580D01*
X008846Y017396D01*
X036157Y017396D01*
X036157Y016580D01*
X021166Y016580D01*
X021166Y012911D01*
X021108Y012953D01*
X021043Y012986D01*
X020974Y013009D01*
X020903Y013020D01*
X020876Y013020D01*
X020876Y012290D01*
X020856Y012290D01*
X020856Y012270D01*
X020406Y012270D01*
X020406Y011964D01*
X020418Y011892D01*
X020440Y011823D01*
X020473Y011759D01*
X020516Y011700D01*
X020567Y011649D01*
X020625Y011607D01*
X020690Y011574D01*
X020759Y011551D01*
X020830Y011540D01*
X020856Y011540D01*
X020856Y012270D01*
X020876Y012270D01*
X020876Y011540D01*
X020903Y011540D01*
X020974Y011551D01*
X021043Y011574D01*
X021108Y011607D01*
X021166Y011649D01*
X021166Y011649D01*
X021166Y011517D02*
X019179Y011517D01*
X019184Y011675D02*
X020541Y011675D01*
X020437Y011834D02*
X019190Y011834D01*
X019195Y011992D02*
X020406Y011992D01*
X020406Y012151D02*
X019201Y012151D01*
X019206Y012309D02*
X020406Y012309D01*
X020406Y012290D02*
X020856Y012290D01*
X020856Y013020D01*
X020830Y013020D01*
X020759Y013009D01*
X020690Y012986D01*
X020625Y012953D01*
X020567Y012911D01*
X020516Y012860D01*
X020473Y012801D01*
X020440Y012737D01*
X020418Y012668D01*
X020406Y012596D01*
X020406Y012290D01*
X020406Y012468D02*
X019212Y012468D01*
X019217Y012626D02*
X020411Y012626D01*
X020465Y012785D02*
X019223Y012785D01*
X019228Y012943D02*
X020611Y012943D01*
X020856Y012943D02*
X020876Y012943D01*
X020876Y012785D02*
X020856Y012785D01*
X020856Y012626D02*
X020876Y012626D01*
X020876Y012468D02*
X020856Y012468D01*
X020856Y012309D02*
X020876Y012309D01*
X020876Y012151D02*
X020856Y012151D01*
X020856Y011992D02*
X020876Y011992D01*
X020876Y011834D02*
X020856Y011834D01*
X020856Y011675D02*
X020876Y011675D01*
X021166Y011358D02*
X019173Y011358D01*
X019168Y011213D02*
X019233Y013096D01*
X019426Y013289D01*
X019426Y013671D01*
X019157Y013940D01*
X018776Y013940D01*
X018506Y013671D01*
X018506Y013460D01*
X018211Y013460D01*
X018108Y013417D01*
X018029Y013339D01*
X017976Y013286D01*
X017976Y013693D01*
X017969Y013700D01*
X018422Y013700D01*
X018525Y013743D01*
X019002Y014220D01*
X019257Y014220D01*
X019526Y014489D01*
X019526Y014871D01*
X019257Y015140D01*
X018876Y015140D01*
X018606Y014871D01*
X018606Y014616D01*
X018250Y014260D01*
X017969Y014260D01*
X017976Y014267D01*
X017976Y014693D01*
X017969Y014700D01*
X018222Y014700D01*
X018325Y014743D01*
X018425Y014843D01*
X018504Y014921D01*
X018546Y015024D01*
X018546Y015464D01*
X018802Y015720D01*
X019057Y015720D01*
X019326Y015989D01*
X019326Y016371D01*
X019057Y016640D01*
X018676Y016640D01*
X018406Y016371D01*
X018406Y016116D01*
X018029Y015739D01*
X017986Y015636D01*
X017986Y015260D01*
X017932Y015260D01*
X017944Y015281D01*
X017956Y015326D01*
X017956Y015480D01*
X017956Y015634D01*
X017944Y015679D01*
X017921Y015721D01*
X017887Y015754D01*
X017846Y015778D01*
X017800Y015790D01*
X017376Y015790D01*
X016953Y015790D01*
X016907Y015778D01*
X016866Y015754D01*
X016832Y015721D01*
X016809Y015679D01*
X016796Y015634D01*
X016796Y015480D01*
X016796Y015326D01*
X016809Y015281D01*
X016829Y015245D01*
X016776Y015193D01*
X016776Y014767D01*
X016784Y014760D01*
X016446Y014760D01*
X016446Y014936D01*
X016404Y015039D01*
X016325Y015117D01*
X016225Y015217D01*
X016122Y015260D01*
X015549Y015260D01*
X015556Y015267D01*
X015556Y015693D01*
X015439Y015810D01*
X014474Y015810D01*
X014424Y015760D01*
X012907Y015760D01*
X013143Y016021D01*
X013227Y015986D01*
X013506Y015986D01*
X013763Y016093D01*
X013960Y016290D01*
X014066Y016547D01*
X014066Y016826D01*
X013960Y017083D01*
X013763Y017280D01*
X013506Y017386D01*
X013227Y017386D01*
X012970Y017280D01*
X012773Y017083D01*
X012666Y016826D01*
X012666Y016547D01*
X012728Y016398D01*
X012405Y016040D01*
X012176Y016040D01*
X011906Y015771D01*
X011906Y015389D01*
X012176Y015120D01*
X012557Y015120D01*
X012637Y015200D01*
X014364Y015200D01*
X014356Y015193D01*
X014356Y014767D01*
X014364Y014760D01*
X014111Y014760D01*
X014008Y014717D01*
X013929Y014639D01*
X013850Y014560D01*
X013737Y014560D01*
X013557Y014740D01*
X013176Y014740D01*
X012906Y014471D01*
X012906Y014089D01*
X013176Y013820D01*
X013557Y013820D01*
X013737Y014000D01*
X014022Y014000D01*
X014125Y014043D01*
X014282Y014200D01*
X014364Y014200D01*
X014356Y014193D01*
X014356Y013767D01*
X014364Y013760D01*
X011837Y013760D01*
X011657Y013940D01*
X011512Y013940D01*
X010447Y015671D01*
X010460Y015683D01*
X010566Y015941D01*
X010566Y016219D01*
X010460Y016477D01*
X010263Y016673D01*
X010006Y016780D01*
X009727Y016780D01*
X009470Y016673D01*
X009273Y016477D01*
X009166Y016219D01*
X009166Y015941D01*
X009273Y015683D01*
X009470Y015487D01*
X009727Y015380D01*
X009968Y015380D01*
X011015Y013679D01*
X011006Y013671D01*
X011006Y013289D01*
X011276Y013020D01*
X011657Y013020D01*
X011837Y013200D01*
X014364Y013200D01*
X014356Y013193D01*
X014356Y012767D01*
X014364Y012760D01*
X014211Y012760D01*
X014108Y012717D01*
X013708Y012317D01*
X013629Y012239D01*
X013586Y012136D01*
X013586Y010524D01*
X013629Y010421D01*
X013690Y010360D01*
X013037Y010360D01*
X012857Y010540D01*
X012476Y010540D01*
X012296Y010360D01*
X011766Y010360D01*
X011766Y010480D01*
X011766Y010570D01*
X012492Y010570D01*
X012595Y010613D01*
X012602Y010620D01*
X012857Y010620D01*
X013126Y010889D01*
X013126Y011271D01*
X012857Y011540D01*
X012476Y011540D01*
X012206Y011271D01*
X012206Y011130D01*
X011689Y011130D01*
X011669Y011150D01*
X011024Y011150D01*
X010914Y011040D01*
X010908Y011046D01*
X010908Y011046D01*
X010746Y011113D01*
X010709Y011150D01*
X010064Y011150D01*
X010044Y011130D01*
X009712Y011130D01*
X009646Y011196D01*
X009646Y011913D01*
X009727Y011880D01*
X010006Y011880D01*
X010263Y011987D01*
X010460Y012183D01*
X010566Y012441D01*
X010566Y012719D01*
X010460Y012977D01*
X010263Y013173D01*
X010006Y013280D01*
X009727Y013280D01*
X009470Y013173D01*
X009273Y012977D01*
X009166Y012719D01*
X009166Y012441D01*
X009215Y012324D01*
X009129Y012239D01*
X009086Y012136D01*
X009086Y011024D01*
X009129Y010921D01*
X009208Y010843D01*
X009438Y010613D01*
X009541Y010570D01*
X010044Y010570D01*
X010064Y010550D01*
X010586Y010550D01*
X010586Y010431D01*
X010595Y010410D01*
X010064Y010410D01*
X010044Y010390D01*
X009841Y010390D01*
X009738Y010347D01*
X009208Y009817D01*
X009129Y009739D01*
X009086Y009636D01*
X009086Y009024D01*
X009129Y008921D01*
X009586Y008464D01*
X009586Y008222D01*
X009470Y008173D01*
X009273Y007977D01*
X009166Y007719D01*
X009166Y007441D01*
X009273Y007183D01*
X009470Y006987D01*
X009727Y006880D01*
X010006Y006880D01*
X010263Y006987D01*
X010460Y007183D01*
X010566Y007441D01*
X010566Y007719D01*
X010460Y007977D01*
X010263Y008173D01*
X010146Y008222D01*
X010146Y008300D01*
X014522Y008300D01*
X014625Y008343D01*
X016204Y009921D01*
X016246Y010024D01*
X016246Y010864D01*
X016404Y011021D01*
X016446Y011124D01*
X016446Y012200D01*
X016844Y012200D01*
X016894Y012150D01*
X017859Y012150D01*
X017976Y012267D01*
X017976Y012693D01*
X017969Y012700D01*
X018122Y012700D01*
X018225Y012743D01*
X018382Y012900D01*
X018666Y012900D01*
X018609Y011231D01*
X018470Y011173D01*
X018273Y010977D01*
X018166Y010719D01*
X018166Y010441D01*
X018273Y010183D01*
X018470Y009987D01*
X018727Y009880D01*
X019006Y009880D01*
X019263Y009987D01*
X019460Y010183D01*
X019566Y010441D01*
X019566Y010719D01*
X019460Y010977D01*
X019263Y011173D01*
X019168Y011213D01*
X019200Y011200D02*
X021166Y011200D01*
X021166Y011041D02*
X019395Y011041D01*
X019499Y010883D02*
X021166Y010883D01*
X021166Y010724D02*
X019564Y010724D01*
X019566Y010566D02*
X021166Y010566D01*
X021166Y010407D02*
X019552Y010407D01*
X019487Y010249D02*
X021166Y010249D01*
X021166Y010090D02*
X019366Y010090D01*
X019130Y009932D02*
X021166Y009932D01*
X021166Y009773D02*
X016055Y009773D01*
X016208Y009932D02*
X018603Y009932D01*
X018367Y010090D02*
X016246Y010090D01*
X016246Y010249D02*
X018246Y010249D01*
X018180Y010407D02*
X016246Y010407D01*
X016246Y010566D02*
X018166Y010566D01*
X018168Y010724D02*
X016246Y010724D01*
X016265Y010883D02*
X018234Y010883D01*
X018338Y011041D02*
X016412Y011041D01*
X016446Y011200D02*
X018533Y011200D01*
X018613Y011358D02*
X016446Y011358D01*
X016446Y011517D02*
X018619Y011517D01*
X018624Y011675D02*
X016446Y011675D01*
X016446Y011834D02*
X018630Y011834D01*
X018635Y011992D02*
X016446Y011992D01*
X016446Y012151D02*
X016893Y012151D01*
X017376Y012480D02*
X016166Y012480D01*
X016166Y011180D01*
X015966Y010980D01*
X015966Y010080D01*
X014466Y008580D01*
X009941Y008580D01*
X009866Y008505D01*
X009866Y007580D01*
X009378Y007079D02*
X008846Y007079D01*
X008846Y007237D02*
X009251Y007237D01*
X009185Y007396D02*
X008846Y007396D01*
X008846Y007554D02*
X009166Y007554D01*
X009166Y007713D02*
X008846Y007713D01*
X008846Y007871D02*
X009229Y007871D01*
X009326Y008030D02*
X008846Y008030D01*
X008846Y008188D02*
X009505Y008188D01*
X009586Y008347D02*
X008846Y008347D01*
X008846Y008505D02*
X009545Y008505D01*
X009387Y008664D02*
X008846Y008664D01*
X008846Y008822D02*
X009228Y008822D01*
X009105Y008981D02*
X008846Y008981D01*
X008846Y009139D02*
X009086Y009139D01*
X009086Y009298D02*
X008846Y009298D01*
X008846Y009456D02*
X009086Y009456D01*
X009086Y009615D02*
X008846Y009615D01*
X008846Y009773D02*
X009164Y009773D01*
X009322Y009932D02*
X008846Y009932D01*
X008846Y010090D02*
X009481Y010090D01*
X009639Y010249D02*
X008846Y010249D01*
X008846Y010407D02*
X010061Y010407D01*
X010048Y010566D02*
X008846Y010566D01*
X008846Y010724D02*
X009326Y010724D01*
X009168Y010883D02*
X008846Y010883D01*
X008846Y011041D02*
X009086Y011041D01*
X009086Y011200D02*
X008846Y011200D01*
X008846Y011358D02*
X009086Y011358D01*
X009086Y011517D02*
X008846Y011517D01*
X008846Y011675D02*
X009086Y011675D01*
X009086Y011834D02*
X008846Y011834D01*
X008846Y011992D02*
X009086Y011992D01*
X009093Y012151D02*
X008846Y012151D01*
X008846Y012309D02*
X009200Y012309D01*
X009166Y012468D02*
X008846Y012468D01*
X008846Y012626D02*
X009166Y012626D01*
X009194Y012785D02*
X008846Y012785D01*
X008846Y012943D02*
X009259Y012943D01*
X009398Y013102D02*
X008846Y013102D01*
X008846Y013260D02*
X009679Y013260D01*
X010054Y013260D02*
X011036Y013260D01*
X011006Y013419D02*
X008846Y013419D01*
X008846Y013577D02*
X011006Y013577D01*
X010980Y013736D02*
X008846Y013736D01*
X008846Y013894D02*
X010883Y013894D01*
X010785Y014053D02*
X008846Y014053D01*
X008846Y014211D02*
X010688Y014211D01*
X010590Y014370D02*
X008846Y014370D01*
X008846Y014528D02*
X010493Y014528D01*
X010395Y014687D02*
X008846Y014687D01*
X008846Y014845D02*
X010298Y014845D01*
X010200Y015004D02*
X008846Y015004D01*
X008846Y015162D02*
X010103Y015162D01*
X010005Y015321D02*
X008846Y015321D01*
X008846Y015479D02*
X009488Y015479D01*
X009319Y015638D02*
X008846Y015638D01*
X008846Y015796D02*
X009226Y015796D01*
X009166Y015955D02*
X008846Y015955D01*
X008846Y016113D02*
X009166Y016113D01*
X009188Y016272D02*
X008846Y016272D01*
X008846Y016430D02*
X009254Y016430D01*
X009385Y016589D02*
X008846Y016589D01*
X008846Y016747D02*
X009648Y016747D01*
X010085Y016747D02*
X012666Y016747D01*
X012666Y016589D02*
X010348Y016589D01*
X010479Y016430D02*
X012715Y016430D01*
X012614Y016272D02*
X010545Y016272D01*
X010566Y016113D02*
X012471Y016113D01*
X012090Y015955D02*
X011614Y015955D01*
X011549Y016020D02*
X011366Y016020D01*
X011184Y016020D01*
X010926Y015762D01*
X010926Y015580D01*
X011366Y015580D01*
X010926Y015580D01*
X010926Y015398D01*
X011184Y015140D01*
X011366Y015140D01*
X011366Y015580D01*
X011366Y015580D01*
X011366Y015580D01*
X011366Y016020D01*
X011366Y015580D01*
X011366Y015580D01*
X011366Y015140D01*
X011549Y015140D01*
X011806Y015398D01*
X011806Y015580D01*
X011806Y015762D01*
X011549Y016020D01*
X011366Y015955D02*
X011366Y015955D01*
X011366Y015796D02*
X011366Y015796D01*
X011366Y015638D02*
X011366Y015638D01*
X011366Y015580D02*
X011806Y015580D01*
X011366Y015580D01*
X011366Y015580D01*
X011366Y015479D02*
X011366Y015479D01*
X011366Y015321D02*
X011366Y015321D01*
X011366Y015162D02*
X011366Y015162D01*
X011162Y015162D02*
X010760Y015162D01*
X010663Y015321D02*
X011004Y015321D01*
X010926Y015479D02*
X010565Y015479D01*
X010468Y015638D02*
X010926Y015638D01*
X010960Y015796D02*
X010507Y015796D01*
X010566Y015955D02*
X011119Y015955D01*
X011773Y015796D02*
X011932Y015796D01*
X011906Y015638D02*
X011806Y015638D01*
X011806Y015479D02*
X011906Y015479D01*
X011975Y015321D02*
X011729Y015321D01*
X011571Y015162D02*
X012134Y015162D01*
X012184Y014720D02*
X011926Y014462D01*
X011926Y014280D01*
X012366Y014280D01*
X011926Y014280D01*
X011926Y014098D01*
X012184Y013840D01*
X012366Y013840D01*
X012366Y014280D01*
X012366Y014280D01*
X012366Y014280D01*
X012366Y014720D01*
X012184Y014720D01*
X012151Y014687D02*
X011053Y014687D01*
X010955Y014845D02*
X014356Y014845D01*
X014356Y015004D02*
X010858Y015004D01*
X011150Y014528D02*
X011992Y014528D01*
X011926Y014370D02*
X011248Y014370D01*
X011345Y014211D02*
X011926Y014211D01*
X011972Y014053D02*
X011443Y014053D01*
X011703Y013894D02*
X012130Y013894D01*
X012366Y013894D02*
X012366Y013894D01*
X012366Y013840D02*
X012549Y013840D01*
X012806Y014098D01*
X012806Y014280D01*
X012806Y014462D01*
X012549Y014720D01*
X012366Y014720D01*
X012366Y014280D01*
X012366Y014280D01*
X012366Y013840D01*
X012366Y014053D02*
X012366Y014053D01*
X012366Y014211D02*
X012366Y014211D01*
X012366Y014280D02*
X012366Y014280D01*
X012806Y014280D01*
X012366Y014280D01*
X012366Y014370D02*
X012366Y014370D01*
X012366Y014528D02*
X012366Y014528D01*
X012366Y014687D02*
X012366Y014687D01*
X012582Y014687D02*
X013122Y014687D01*
X012964Y014528D02*
X012741Y014528D01*
X012806Y014370D02*
X012906Y014370D01*
X012906Y014211D02*
X012806Y014211D01*
X012761Y014053D02*
X012943Y014053D01*
X013102Y013894D02*
X012603Y013894D01*
X013366Y014280D02*
X013966Y014280D01*
X014166Y014480D01*
X014956Y014480D01*
X014856Y014580D01*
X014956Y014980D02*
X016066Y014980D01*
X016166Y014880D01*
X016166Y014180D01*
X016466Y014480D01*
X017376Y014480D01*
X017376Y014980D02*
X018166Y014980D01*
X018266Y015080D01*
X018266Y015580D01*
X018866Y016180D01*
X019326Y016113D02*
X019426Y016113D01*
X019426Y016180D02*
X019426Y015998D01*
X019684Y015740D01*
X019866Y015740D01*
X019866Y016180D01*
X019426Y016180D01*
X019866Y016180D01*
X019866Y016180D01*
X019866Y016180D01*
X019866Y016620D01*
X019684Y016620D01*
X019426Y016362D01*
X019426Y016180D01*
X019426Y016272D02*
X019326Y016272D01*
X019267Y016430D02*
X019494Y016430D01*
X019653Y016589D02*
X019108Y016589D01*
X018624Y016589D02*
X014066Y016589D01*
X014066Y016747D02*
X036157Y016747D01*
X036157Y016589D02*
X020080Y016589D01*
X020049Y016620D02*
X019866Y016620D01*
X019866Y016180D01*
X019866Y016180D01*
X019866Y015740D01*
X020049Y015740D01*
X020306Y015998D01*
X020306Y016180D01*
X020306Y016362D01*
X020049Y016620D01*
X019866Y016589D02*
X019866Y016589D01*
X019866Y016430D02*
X019866Y016430D01*
X019866Y016272D02*
X019866Y016272D01*
X019866Y016180D02*
X020306Y016180D01*
X019866Y016180D01*
X019866Y016180D01*
X019866Y016113D02*
X019866Y016113D01*
X019866Y015955D02*
X019866Y015955D01*
X019866Y015796D02*
X019866Y015796D01*
X019628Y015796D02*
X019133Y015796D01*
X019292Y015955D02*
X019470Y015955D01*
X020105Y015796D02*
X021166Y015796D01*
X021166Y015638D02*
X018720Y015638D01*
X018561Y015479D02*
X021166Y015479D01*
X021166Y015321D02*
X018546Y015321D01*
X018546Y015162D02*
X021166Y015162D01*
X021166Y015004D02*
X020365Y015004D01*
X020249Y015120D02*
X020506Y014862D01*
X020506Y014680D01*
X020066Y014680D01*
X019626Y014680D01*
X020066Y014680D01*
X020066Y014680D01*
X020066Y014680D01*
X020066Y014240D01*
X019884Y014240D01*
X019626Y014498D01*
X019626Y014680D01*
X019626Y014862D01*
X019884Y015120D01*
X020066Y015120D01*
X020066Y014680D01*
X020066Y014680D01*
X020066Y014240D01*
X020249Y014240D01*
X020506Y014498D01*
X020506Y014680D01*
X020066Y014680D01*
X020066Y015120D01*
X020249Y015120D01*
X020066Y015004D02*
X020066Y015004D01*
X020066Y014845D02*
X020066Y014845D01*
X020066Y014687D02*
X020066Y014687D01*
X020066Y014680D02*
X020066Y014680D01*
X020066Y014528D02*
X020066Y014528D01*
X020066Y014370D02*
X020066Y014370D01*
X019755Y014370D02*
X019407Y014370D01*
X019526Y014528D02*
X019626Y014528D01*
X019626Y014687D02*
X019526Y014687D01*
X019526Y014845D02*
X019626Y014845D01*
X019768Y015004D02*
X019393Y015004D01*
X019066Y014680D02*
X018366Y013980D01*
X017376Y013980D01*
X017376Y013480D02*
X016566Y013480D01*
X016466Y013380D01*
X016466Y013280D01*
X016166Y012980D01*
X016166Y012880D01*
X016066Y012980D01*
X014956Y012980D01*
X014956Y012480D02*
X014266Y012480D01*
X013866Y012080D01*
X013866Y010580D01*
X014366Y010080D01*
X012666Y010080D01*
X011376Y010080D01*
X011346Y010110D01*
X011336Y010110D01*
X011297Y009810D02*
X011321Y009800D01*
X012296Y009800D01*
X012476Y009620D01*
X012857Y009620D01*
X013037Y009800D01*
X014056Y009800D01*
X014130Y009726D01*
X014283Y009662D01*
X014450Y009662D01*
X014603Y009726D01*
X014721Y009843D01*
X014784Y009997D01*
X014784Y010163D01*
X014721Y010317D01*
X014603Y010434D01*
X014450Y010498D01*
X014345Y010498D01*
X014146Y010696D01*
X014146Y011964D01*
X014382Y012200D01*
X014424Y012200D01*
X014474Y012150D01*
X015439Y012150D01*
X015556Y012267D01*
X015556Y012693D01*
X015549Y012700D01*
X015886Y012700D01*
X015886Y011296D01*
X015729Y011139D01*
X015686Y011036D01*
X015686Y010196D01*
X014350Y008860D01*
X009982Y008860D01*
X009646Y009196D01*
X009646Y009464D01*
X010012Y009830D01*
X010044Y009830D01*
X010064Y009810D01*
X010709Y009810D01*
X010826Y009927D01*
X010826Y010029D01*
X010906Y009949D01*
X010906Y009927D01*
X011024Y009810D01*
X011297Y009810D01*
X010906Y009932D02*
X010826Y009932D01*
X010386Y010110D02*
X009896Y010110D01*
X009366Y009580D01*
X009366Y009080D01*
X009866Y008580D01*
X009941Y008580D01*
X009862Y008981D02*
X014471Y008981D01*
X014630Y009139D02*
X009703Y009139D01*
X009646Y009298D02*
X014788Y009298D01*
X014947Y009456D02*
X009646Y009456D01*
X009797Y009615D02*
X015105Y009615D01*
X015264Y009773D02*
X014650Y009773D01*
X014757Y009932D02*
X015422Y009932D01*
X015581Y010090D02*
X014784Y010090D01*
X014749Y010249D02*
X015686Y010249D01*
X015686Y010407D02*
X014630Y010407D01*
X014277Y010566D02*
X015686Y010566D01*
X015686Y010724D02*
X014146Y010724D01*
X014146Y010883D02*
X015686Y010883D01*
X015689Y011041D02*
X014146Y011041D01*
X014146Y011200D02*
X015790Y011200D01*
X015886Y011358D02*
X014146Y011358D01*
X014146Y011517D02*
X015886Y011517D01*
X015886Y011675D02*
X014146Y011675D01*
X014146Y011834D02*
X015886Y011834D01*
X015886Y011992D02*
X014174Y011992D01*
X014333Y012151D02*
X014473Y012151D01*
X014017Y012626D02*
X011906Y012626D01*
X011906Y012662D02*
X011649Y012920D01*
X011466Y012920D01*
X011284Y012920D01*
X011026Y012662D01*
X011026Y012480D01*
X011026Y012298D01*
X011284Y012040D01*
X011466Y012040D01*
X011466Y012480D01*
X011026Y012480D01*
X011466Y012480D01*
X011466Y012480D01*
X011466Y012920D01*
X011466Y012480D01*
X011466Y012480D01*
X011466Y012480D01*
X011466Y012040D01*
X011649Y012040D01*
X011906Y012298D01*
X011906Y012480D01*
X011906Y012662D01*
X011784Y012785D02*
X014356Y012785D01*
X014356Y012943D02*
X010474Y012943D01*
X010539Y012785D02*
X011149Y012785D01*
X011026Y012626D02*
X010566Y012626D01*
X010566Y012468D02*
X011026Y012468D01*
X011026Y012309D02*
X010512Y012309D01*
X010427Y012151D02*
X011174Y012151D01*
X011466Y012151D02*
X011466Y012151D01*
X011466Y012309D02*
X011466Y012309D01*
X011466Y012468D02*
X011466Y012468D01*
X011466Y012480D02*
X011466Y012480D01*
X011906Y012480D01*
X011466Y012480D01*
X011466Y012626D02*
X011466Y012626D01*
X011466Y012785D02*
X011466Y012785D01*
X011194Y013102D02*
X010335Y013102D01*
X009866Y012580D02*
X009366Y012080D01*
X009366Y011080D01*
X009596Y010850D01*
X010386Y010850D01*
X010596Y010850D01*
X010626Y010848D01*
X010656Y010843D01*
X010685Y010835D01*
X010713Y010823D01*
X010740Y010809D01*
X010764Y010791D01*
X010787Y010771D01*
X010807Y010748D01*
X010825Y010724D01*
X010839Y010697D01*
X010851Y010669D01*
X010859Y010640D01*
X010864Y010610D01*
X010866Y010580D01*
X010868Y010539D01*
X010873Y010498D01*
X010882Y010458D01*
X010894Y010419D01*
X010910Y010381D01*
X010929Y010345D01*
X010951Y010310D01*
X010976Y010278D01*
X011004Y010248D01*
X011034Y010220D01*
X011066Y010195D01*
X011101Y010173D01*
X011137Y010154D01*
X011175Y010138D01*
X011214Y010126D01*
X011254Y010117D01*
X011295Y010112D01*
X011336Y010110D01*
X011346Y010480D02*
X011346Y010480D01*
X011766Y010480D01*
X011346Y010480D01*
X011346Y010850D02*
X012436Y010850D01*
X012666Y011080D01*
X013126Y011041D02*
X013586Y011041D01*
X013586Y010883D02*
X013120Y010883D01*
X012961Y010724D02*
X013586Y010724D01*
X013586Y010566D02*
X011766Y010566D01*
X011766Y010407D02*
X012343Y010407D01*
X012990Y010407D02*
X013643Y010407D01*
X014083Y009773D02*
X013010Y009773D01*
X012323Y009773D02*
X009955Y009773D01*
X009646Y011200D02*
X012206Y011200D01*
X012294Y011358D02*
X009646Y011358D01*
X009646Y011517D02*
X012452Y011517D01*
X012880Y011517D02*
X013586Y011517D01*
X013586Y011675D02*
X009646Y011675D01*
X009646Y011834D02*
X013586Y011834D01*
X013586Y011992D02*
X010268Y011992D01*
X010908Y011046D02*
X010908Y011046D01*
X010913Y011041D02*
X010915Y011041D01*
X011759Y012151D02*
X013593Y012151D01*
X013700Y012309D02*
X011906Y012309D01*
X011906Y012468D02*
X013858Y012468D01*
X014356Y013102D02*
X011739Y013102D01*
X011466Y013480D02*
X009866Y016080D01*
X008846Y016906D02*
X012700Y016906D01*
X012765Y017064D02*
X008846Y017064D01*
X008846Y017223D02*
X012913Y017223D01*
X013215Y017381D02*
X008846Y017381D01*
X012366Y015580D02*
X012466Y015480D01*
X014956Y015480D01*
X014460Y015796D02*
X012939Y015796D01*
X013082Y015955D02*
X018245Y015955D01*
X018404Y016113D02*
X013783Y016113D01*
X013942Y016272D02*
X018406Y016272D01*
X018466Y016430D02*
X014018Y016430D01*
X014033Y016906D02*
X036157Y016906D01*
X036157Y017064D02*
X013968Y017064D01*
X013820Y017223D02*
X036157Y017223D01*
X036157Y017381D02*
X013518Y017381D01*
X013366Y016686D02*
X012366Y015580D01*
X012599Y015162D02*
X014356Y015162D01*
X013977Y014687D02*
X013610Y014687D01*
X014135Y014053D02*
X014356Y014053D01*
X014356Y013894D02*
X013631Y013894D01*
X014956Y013980D02*
X015766Y013980D01*
X016016Y013730D01*
X016166Y013880D01*
X016166Y014180D01*
X016016Y013730D02*
X016166Y013580D01*
X016166Y012980D01*
X016166Y012880D02*
X016166Y012480D01*
X015886Y012468D02*
X015556Y012468D01*
X015556Y012626D02*
X015886Y012626D01*
X015886Y012309D02*
X015556Y012309D01*
X015440Y012151D02*
X015886Y012151D01*
X017376Y012980D02*
X018066Y012980D01*
X018266Y013180D01*
X018666Y013180D01*
X018966Y013480D01*
X018866Y010580D01*
X018856Y009320D02*
X018830Y009320D01*
X018759Y009309D01*
X018690Y009286D01*
X018625Y009253D01*
X018567Y009211D01*
X018516Y009160D01*
X018473Y009101D01*
X018440Y009037D01*
X018418Y008968D01*
X018406Y008896D01*
X018406Y008590D01*
X018856Y008590D01*
X018856Y008570D01*
X018406Y008570D01*
X018406Y008264D01*
X018418Y008192D01*
X018440Y008123D01*
X018473Y008059D01*
X018516Y008000D01*
X018567Y007949D01*
X018625Y007907D01*
X018690Y007874D01*
X018759Y007851D01*
X018830Y007840D01*
X018856Y007840D01*
X018856Y008570D01*
X018876Y008570D01*
X018876Y007840D01*
X018903Y007840D01*
X018974Y007851D01*
X019043Y007874D01*
X019108Y007907D01*
X019166Y007949D01*
X019217Y008000D01*
X019260Y008059D01*
X019293Y008123D01*
X019315Y008192D01*
X019326Y008264D01*
X019326Y008570D01*
X018876Y008570D01*
X018876Y008590D01*
X018856Y008590D01*
X018856Y009320D01*
X018876Y009320D02*
X018876Y008590D01*
X019326Y008590D01*
X019326Y008896D01*
X019315Y008968D01*
X019293Y009037D01*
X019260Y009101D01*
X019217Y009160D01*
X019166Y009211D01*
X019108Y009253D01*
X019043Y009286D01*
X018974Y009309D01*
X018903Y009320D01*
X018876Y009320D01*
X018876Y009298D02*
X018856Y009298D01*
X018724Y009298D02*
X018065Y009298D01*
X018138Y009267D02*
X017962Y009340D01*
X017771Y009340D01*
X017595Y009267D01*
X017460Y009132D01*
X017386Y008955D01*
X017386Y008205D01*
X017460Y008028D01*
X017595Y007893D01*
X017771Y007820D01*
X017962Y007820D01*
X018138Y007893D01*
X018273Y008028D01*
X018346Y008205D01*
X018346Y008955D01*
X018273Y009132D01*
X018138Y009267D01*
X018266Y009139D02*
X018501Y009139D01*
X018422Y008981D02*
X018336Y008981D01*
X018346Y008822D02*
X018406Y008822D01*
X018406Y008664D02*
X018346Y008664D01*
X018346Y008505D02*
X018406Y008505D01*
X018406Y008347D02*
X018346Y008347D01*
X018340Y008188D02*
X018419Y008188D01*
X018494Y008030D02*
X018274Y008030D01*
X018085Y007871D02*
X018698Y007871D01*
X018856Y007871D02*
X018876Y007871D01*
X018876Y008030D02*
X018856Y008030D01*
X018856Y008188D02*
X018876Y008188D01*
X018876Y008347D02*
X018856Y008347D01*
X018856Y008505D02*
X018876Y008505D01*
X018876Y008664D02*
X018856Y008664D01*
X018856Y008822D02*
X018876Y008822D01*
X018876Y008981D02*
X018856Y008981D01*
X018856Y009139D02*
X018876Y009139D01*
X019009Y009298D02*
X021166Y009298D01*
X021166Y009456D02*
X015738Y009456D01*
X015580Y009298D02*
X017668Y009298D01*
X017467Y009139D02*
X015421Y009139D01*
X015263Y008981D02*
X017397Y008981D01*
X017386Y008822D02*
X015104Y008822D01*
X014946Y008664D02*
X017386Y008664D01*
X017386Y008505D02*
X014787Y008505D01*
X014629Y008347D02*
X017386Y008347D01*
X017393Y008188D02*
X010228Y008188D01*
X010407Y008030D02*
X017459Y008030D01*
X017648Y007871D02*
X010504Y007871D01*
X010566Y007713D02*
X021166Y007713D01*
X021166Y007871D02*
X019035Y007871D01*
X019239Y008030D02*
X021166Y008030D01*
X021166Y008188D02*
X019314Y008188D01*
X019326Y008347D02*
X021166Y008347D01*
X021166Y008505D02*
X019326Y008505D01*
X019326Y008664D02*
X021166Y008664D01*
X021166Y008822D02*
X019326Y008822D01*
X019311Y008981D02*
X021166Y008981D01*
X021166Y009139D02*
X019232Y009139D01*
X021166Y009615D02*
X015897Y009615D01*
X013586Y011200D02*
X013126Y011200D01*
X013039Y011358D02*
X013586Y011358D01*
X014956Y013480D02*
X011466Y013480D01*
X015556Y015321D02*
X016798Y015321D01*
X016796Y015479D02*
X015556Y015479D01*
X015556Y015638D02*
X016797Y015638D01*
X016796Y015480D02*
X017376Y015480D01*
X016796Y015480D01*
X016776Y015162D02*
X016280Y015162D01*
X016418Y015004D02*
X016776Y015004D01*
X016776Y014845D02*
X016446Y014845D01*
X017376Y015480D02*
X017376Y015480D01*
X017376Y015790D01*
X017376Y015480D01*
X017376Y015480D01*
X017956Y015480D01*
X017376Y015480D01*
X017376Y015480D01*
X017376Y015638D02*
X017376Y015638D01*
X017955Y015638D02*
X017987Y015638D01*
X017986Y015479D02*
X017956Y015479D01*
X017955Y015321D02*
X017986Y015321D01*
X017976Y014687D02*
X018606Y014687D01*
X018606Y014845D02*
X018427Y014845D01*
X018425Y014843D02*
X018425Y014843D01*
X018538Y015004D02*
X018739Y015004D01*
X018519Y014528D02*
X017976Y014528D01*
X017976Y014370D02*
X018360Y014370D01*
X018835Y014053D02*
X021166Y014053D01*
X021166Y014211D02*
X018993Y014211D01*
X019203Y013894D02*
X019758Y013894D01*
X019784Y013920D02*
X019526Y013662D01*
X019526Y013480D01*
X019966Y013480D01*
X019526Y013480D01*
X019526Y013298D01*
X019784Y013040D01*
X019966Y013040D01*
X019966Y013480D01*
X019966Y013480D01*
X019966Y013480D01*
X019966Y013920D01*
X019784Y013920D01*
X019966Y013920D02*
X019966Y013480D01*
X019966Y013480D01*
X019966Y013040D01*
X020149Y013040D01*
X020406Y013298D01*
X020406Y013480D01*
X020406Y013662D01*
X020149Y013920D01*
X019966Y013920D01*
X019966Y013894D02*
X019966Y013894D01*
X019966Y013736D02*
X019966Y013736D01*
X019966Y013577D02*
X019966Y013577D01*
X019966Y013480D02*
X020406Y013480D01*
X019966Y013480D01*
X019966Y013480D01*
X019966Y013419D02*
X019966Y013419D01*
X019966Y013260D02*
X019966Y013260D01*
X019966Y013102D02*
X019966Y013102D01*
X019723Y013102D02*
X019239Y013102D01*
X019397Y013260D02*
X019564Y013260D01*
X019526Y013419D02*
X019426Y013419D01*
X019426Y013577D02*
X019526Y013577D01*
X019600Y013736D02*
X019361Y013736D01*
X020175Y013894D02*
X021166Y013894D01*
X021166Y013736D02*
X020333Y013736D01*
X020406Y013577D02*
X021166Y013577D01*
X021166Y013419D02*
X020406Y013419D01*
X020369Y013260D02*
X021166Y013260D01*
X021166Y013102D02*
X020210Y013102D01*
X021122Y012943D02*
X021166Y012943D01*
X021166Y012911D02*
X021166Y012911D01*
X021600Y012943D02*
X021611Y012943D01*
X021598Y013102D02*
X036157Y013102D01*
X036157Y013260D02*
X021597Y013260D01*
X021595Y013419D02*
X036157Y013419D01*
X036157Y013577D02*
X021594Y013577D01*
X021592Y013736D02*
X036157Y013736D01*
X036157Y013894D02*
X021590Y013894D01*
X021589Y014053D02*
X036157Y014053D01*
X036157Y014211D02*
X021587Y014211D01*
X021586Y014370D02*
X036157Y014370D01*
X036157Y014528D02*
X021584Y014528D01*
X021582Y014687D02*
X036157Y014687D01*
X036157Y014845D02*
X021581Y014845D01*
X021579Y015004D02*
X036157Y015004D01*
X036157Y015162D02*
X021578Y015162D01*
X021576Y015321D02*
X036157Y015321D01*
X036157Y015479D02*
X021574Y015479D01*
X021573Y015638D02*
X036157Y015638D01*
X036157Y015796D02*
X021571Y015796D01*
X021570Y015955D02*
X036157Y015955D01*
X036157Y016113D02*
X021568Y016113D01*
X021567Y016272D02*
X036157Y016272D01*
X021166Y016272D02*
X020306Y016272D01*
X020306Y016113D02*
X021166Y016113D01*
X021166Y015955D02*
X020263Y015955D01*
X020239Y016430D02*
X021166Y016430D01*
X021166Y014845D02*
X020506Y014845D01*
X020506Y014687D02*
X021166Y014687D01*
X021166Y014528D02*
X020506Y014528D01*
X020378Y014370D02*
X021166Y014370D01*
X018730Y013894D02*
X018676Y013894D01*
X018571Y013736D02*
X018508Y013736D01*
X018506Y013577D02*
X017976Y013577D01*
X017976Y013419D02*
X018111Y013419D01*
X018267Y012785D02*
X018662Y012785D01*
X018657Y012626D02*
X017976Y012626D01*
X017976Y012468D02*
X018651Y012468D01*
X018646Y012309D02*
X017976Y012309D01*
X017860Y012151D02*
X018640Y012151D01*
X018087Y015796D02*
X015453Y015796D01*
X014883Y007440D02*
X014576Y007440D01*
X014576Y006990D01*
X015306Y006990D01*
X015306Y007016D01*
X015295Y007088D01*
X015273Y007157D01*
X015240Y007221D01*
X015197Y007280D01*
X015146Y007331D01*
X015088Y007373D01*
X015023Y007406D01*
X014954Y007429D01*
X014883Y007440D01*
X015044Y007396D02*
X021166Y007396D01*
X021166Y007554D02*
X010566Y007554D01*
X010548Y007396D02*
X014089Y007396D01*
X014110Y007406D02*
X014045Y007373D01*
X013987Y007331D01*
X013936Y007280D01*
X013893Y007221D01*
X013860Y007157D01*
X013838Y007088D01*
X013826Y007016D01*
X013826Y006990D01*
X014556Y006990D01*
X014556Y007440D01*
X014250Y007440D01*
X014179Y007429D01*
X014110Y007406D01*
X013905Y007237D02*
X010482Y007237D01*
X010355Y007079D02*
X013836Y007079D01*
X013830Y006920D02*
X010102Y006920D01*
X009631Y006920D02*
X008846Y006920D01*
X008846Y006762D02*
X013882Y006762D01*
X014023Y006603D02*
X008846Y006603D01*
X008846Y005335D02*
X036157Y005335D01*
X036157Y005177D02*
X021193Y005177D01*
X021168Y005191D02*
X021086Y005225D01*
X020999Y005248D01*
X020946Y005255D01*
X020946Y004660D01*
X020786Y004660D01*
X020786Y004500D01*
X020191Y004500D01*
X020198Y004447D01*
X020221Y004361D01*
X020255Y004279D01*
X020300Y004201D01*
X020354Y004131D01*
X020417Y004068D01*
X020488Y004013D01*
X020565Y003969D01*
X020647Y003935D01*
X020734Y003912D01*
X020786Y003905D01*
X020786Y004500D01*
X020946Y004500D01*
X020946Y003905D01*
X020999Y003912D01*
X021086Y003935D01*
X021168Y003969D01*
X021245Y004013D01*
X021316Y004068D01*
X021379Y004131D01*
X021433Y004201D01*
X021478Y004279D01*
X021512Y004361D01*
X021535Y004447D01*
X021542Y004500D01*
X020946Y004500D01*
X020946Y004660D01*
X021542Y004660D01*
X021535Y004713D01*
X021512Y004799D01*
X021478Y004881D01*
X021433Y004959D01*
X021379Y005029D01*
X021316Y005092D01*
X021245Y005147D01*
X021168Y005191D01*
X020946Y005177D02*
X020786Y005177D01*
X020786Y005255D02*
X020734Y005248D01*
X020647Y005225D01*
X020565Y005191D01*
X020488Y005147D01*
X020417Y005092D01*
X020354Y005029D01*
X020300Y004959D01*
X020255Y004881D01*
X020221Y004799D01*
X020198Y004713D01*
X020191Y004660D01*
X020786Y004660D01*
X020786Y005255D01*
X020786Y005018D02*
X020946Y005018D01*
X020946Y004860D02*
X020786Y004860D01*
X020786Y004701D02*
X020946Y004701D01*
X020866Y004580D02*
X015966Y004580D01*
X014566Y005980D01*
X014556Y005969D02*
X014576Y005969D01*
X014576Y005811D02*
X014556Y005811D01*
X014556Y005652D02*
X014576Y005652D01*
X015110Y006603D02*
X021166Y006603D01*
X021166Y006762D02*
X015251Y006762D01*
X015303Y006920D02*
X021166Y006920D01*
X021166Y007079D02*
X015297Y007079D01*
X015228Y007237D02*
X021166Y007237D01*
X020540Y005177D02*
X008846Y005177D01*
X008846Y005018D02*
X020345Y005018D01*
X020246Y004860D02*
X008846Y004860D01*
X008846Y004701D02*
X020197Y004701D01*
X020215Y004384D02*
X008846Y004384D01*
X008846Y004226D02*
X020286Y004226D01*
X020418Y004067D02*
X008846Y004067D01*
X008846Y003909D02*
X020757Y003909D01*
X020786Y003909D02*
X020946Y003909D01*
X020976Y003909D02*
X036157Y003909D01*
X036157Y004067D02*
X021315Y004067D01*
X021447Y004226D02*
X036157Y004226D01*
X036157Y004384D02*
X021518Y004384D01*
X021536Y004701D02*
X036157Y004701D01*
X036157Y004543D02*
X020946Y004543D01*
X020946Y004384D02*
X020786Y004384D01*
X020786Y004226D02*
X020946Y004226D01*
X020946Y004067D02*
X020786Y004067D01*
X020786Y004543D02*
X008846Y004543D01*
X008846Y003750D02*
X036157Y003750D01*
X036157Y003592D02*
X008846Y003592D01*
X008846Y003433D02*
X036157Y003433D01*
X036157Y003275D02*
X008846Y003275D01*
X008846Y003116D02*
X036157Y003116D01*
X036157Y002958D02*
X008846Y002958D01*
X008846Y002799D02*
X036157Y002799D01*
X036157Y002641D02*
X008846Y002641D01*
X008846Y002482D02*
X036157Y002482D01*
X036157Y002324D02*
X008846Y002324D01*
X008846Y002165D02*
X036157Y002165D01*
X036157Y002007D02*
X008846Y002007D01*
X008846Y001848D02*
X036157Y001848D01*
X036157Y001690D02*
X008846Y001690D01*
X008846Y001531D02*
X036157Y001531D01*
X036157Y001373D02*
X008846Y001373D01*
X008846Y001214D02*
X036157Y001214D01*
X036157Y004860D02*
X021487Y004860D01*
X021387Y005018D02*
X036157Y005018D01*
X014576Y007079D02*
X014556Y007079D01*
X014556Y007237D02*
X014576Y007237D01*
X014576Y007396D02*
X014556Y007396D01*
D16*
X014866Y011080D03*
D17*
X014366Y010080D03*
M02*
