G75*
%MOIN*%
%OFA0B0*%
%FSLAX24Y24*%
%IPPOS*%
%LPD*%
%AMOC8*
5,1,8,0,0,1.08239X$1,22.5*
%
%ADD10C,0.0560*%
%ADD11OC8,0.0520*%
%ADD12C,0.0160*%
%ADD13C,0.0475*%
%ADD14C,0.0436*%
D10*
X014286Y005980D02*
X014846Y005980D01*
X014846Y006980D02*
X014286Y006980D01*
X017866Y008300D02*
X017866Y008860D01*
X018866Y008860D02*
X018866Y008300D01*
X020866Y012000D02*
X020866Y012560D01*
X021866Y012560D02*
X021866Y012000D01*
D11*
X019966Y013480D03*
X018966Y013480D03*
X019066Y014680D03*
X020066Y014680D03*
X019866Y016180D03*
X018866Y016180D03*
X013366Y014280D03*
X012366Y014280D03*
X011466Y013480D03*
X011466Y012480D03*
X012666Y011080D03*
X012666Y010080D03*
X012366Y015580D03*
X011366Y015580D03*
D12*
X008846Y006380D02*
X008846Y001060D01*
X036157Y001060D01*
X036157Y016375D01*
X021466Y016280D01*
X021501Y012840D01*
X021516Y012860D01*
X021567Y012911D01*
X021625Y012953D01*
X021690Y012986D01*
X021759Y013009D01*
X021830Y013020D01*
X021856Y013020D01*
X021856Y012290D01*
X021876Y012290D01*
X021876Y013020D01*
X021903Y013020D01*
X021974Y013009D01*
X022043Y012986D01*
X022108Y012953D01*
X022166Y012911D01*
X022217Y012860D01*
X022260Y012801D01*
X022293Y012737D01*
X022315Y012668D01*
X022326Y012596D01*
X022326Y012290D01*
X021876Y012290D01*
X021876Y012270D01*
X021876Y011540D01*
X021903Y011540D01*
X021974Y011551D01*
X022043Y011574D01*
X022108Y011607D01*
X022166Y011649D01*
X022217Y011700D01*
X022260Y011759D01*
X022293Y011823D01*
X022315Y011892D01*
X022326Y011964D01*
X022326Y012270D01*
X021876Y012270D01*
X021856Y012270D01*
X021856Y011540D01*
X021830Y011540D01*
X021759Y011551D01*
X021690Y011574D01*
X021625Y011607D01*
X021567Y011649D01*
X021516Y011700D01*
X021513Y011704D01*
X021566Y006380D01*
X015075Y006380D01*
X015088Y006373D01*
X015146Y006331D01*
X015197Y006280D01*
X015240Y006221D01*
X015273Y006157D01*
X015295Y006088D01*
X015306Y006016D01*
X015306Y005990D01*
X014576Y005990D01*
X014576Y005970D01*
X014576Y005520D01*
X014883Y005520D01*
X014954Y005531D01*
X015023Y005554D01*
X015088Y005587D01*
X015146Y005629D01*
X015197Y005680D01*
X015240Y005739D01*
X015273Y005803D01*
X015295Y005872D01*
X015306Y005944D01*
X015306Y005970D01*
X014576Y005970D01*
X014556Y005970D01*
X013826Y005970D01*
X013826Y005944D01*
X013838Y005872D01*
X013860Y005803D01*
X013893Y005739D01*
X013936Y005680D01*
X013987Y005629D01*
X014045Y005587D01*
X014110Y005554D01*
X014179Y005531D01*
X014250Y005520D01*
X014556Y005520D01*
X014556Y005970D01*
X014556Y005990D01*
X013826Y005990D01*
X013826Y006016D01*
X013838Y006088D01*
X013860Y006157D01*
X013893Y006221D01*
X013936Y006280D01*
X013987Y006331D01*
X014045Y006373D01*
X014058Y006380D01*
X008846Y006380D01*
X008846Y006286D02*
X013942Y006286D01*
X013851Y006128D02*
X008846Y006128D01*
X008846Y005969D02*
X013826Y005969D01*
X013858Y005811D02*
X008846Y005811D01*
X008846Y005652D02*
X013964Y005652D01*
X014556Y005652D02*
X014576Y005652D01*
X014576Y005811D02*
X014556Y005811D01*
X014556Y005969D02*
X014576Y005969D01*
X015169Y005652D02*
X036157Y005652D01*
X036157Y005494D02*
X008846Y005494D01*
X008846Y005335D02*
X036157Y005335D01*
X036157Y005177D02*
X008846Y005177D01*
X008846Y005018D02*
X036157Y005018D01*
X036157Y004860D02*
X008846Y004860D01*
X008846Y004701D02*
X036157Y004701D01*
X036157Y004543D02*
X008846Y004543D01*
X008846Y004384D02*
X036157Y004384D01*
X036157Y004226D02*
X008846Y004226D01*
X008846Y004067D02*
X036157Y004067D01*
X036157Y003909D02*
X008846Y003909D01*
X008846Y003750D02*
X036157Y003750D01*
X036157Y003592D02*
X008846Y003592D01*
X008846Y003433D02*
X036157Y003433D01*
X036157Y003275D02*
X008846Y003275D01*
X008846Y003116D02*
X036157Y003116D01*
X036157Y002958D02*
X008846Y002958D01*
X008846Y002799D02*
X036157Y002799D01*
X036157Y002641D02*
X008846Y002641D01*
X008846Y002482D02*
X036157Y002482D01*
X036157Y002324D02*
X008846Y002324D01*
X008846Y002165D02*
X036157Y002165D01*
X036157Y002007D02*
X008846Y002007D01*
X008846Y001848D02*
X036157Y001848D01*
X036157Y001690D02*
X008846Y001690D01*
X008846Y001531D02*
X036157Y001531D01*
X036157Y001373D02*
X008846Y001373D01*
X008846Y001214D02*
X036157Y001214D01*
X036157Y005811D02*
X015275Y005811D01*
X015306Y005969D02*
X036157Y005969D01*
X036157Y006128D02*
X015282Y006128D01*
X015191Y006286D02*
X036157Y006286D01*
X036157Y006445D02*
X021566Y006445D01*
X021564Y006603D02*
X036157Y006603D01*
X036157Y006762D02*
X021563Y006762D01*
X021561Y006920D02*
X036157Y006920D01*
X036157Y007079D02*
X021559Y007079D01*
X021558Y007237D02*
X036157Y007237D01*
X036157Y007396D02*
X021556Y007396D01*
X021555Y007554D02*
X036157Y007554D01*
X036157Y007713D02*
X021553Y007713D01*
X021551Y007871D02*
X036157Y007871D01*
X036157Y008030D02*
X021550Y008030D01*
X021548Y008188D02*
X036157Y008188D01*
X036157Y008347D02*
X021547Y008347D01*
X021545Y008505D02*
X036157Y008505D01*
X036157Y008664D02*
X021543Y008664D01*
X021542Y008822D02*
X036157Y008822D01*
X036157Y008981D02*
X021540Y008981D01*
X021539Y009139D02*
X036157Y009139D01*
X036157Y009298D02*
X021537Y009298D01*
X021535Y009456D02*
X036157Y009456D01*
X036157Y009615D02*
X021534Y009615D01*
X021532Y009773D02*
X036157Y009773D01*
X036157Y009932D02*
X021531Y009932D01*
X021529Y010090D02*
X036157Y010090D01*
X036157Y010249D02*
X021527Y010249D01*
X021526Y010407D02*
X036157Y010407D01*
X036157Y010566D02*
X021524Y010566D01*
X021523Y010724D02*
X036157Y010724D01*
X036157Y010883D02*
X021521Y010883D01*
X021519Y011041D02*
X036157Y011041D01*
X036157Y011200D02*
X021518Y011200D01*
X021516Y011358D02*
X036157Y011358D01*
X036157Y011517D02*
X021515Y011517D01*
X021513Y011675D02*
X021541Y011675D01*
X021856Y011675D02*
X021876Y011675D01*
X021876Y011834D02*
X021856Y011834D01*
X021856Y011992D02*
X021876Y011992D01*
X021876Y012151D02*
X021856Y012151D01*
X021856Y012309D02*
X021876Y012309D01*
X021876Y012468D02*
X021856Y012468D01*
X021856Y012626D02*
X021876Y012626D01*
X021876Y012785D02*
X021856Y012785D01*
X021856Y012943D02*
X021876Y012943D01*
X022122Y012943D02*
X036157Y012943D01*
X036157Y012785D02*
X022268Y012785D01*
X022322Y012626D02*
X036157Y012626D01*
X036157Y012468D02*
X022326Y012468D01*
X022326Y012309D02*
X036157Y012309D01*
X036157Y012151D02*
X022326Y012151D01*
X022326Y011992D02*
X036157Y011992D01*
X036157Y011834D02*
X022296Y011834D01*
X022192Y011675D02*
X036157Y011675D01*
X036157Y013102D02*
X021499Y013102D01*
X021497Y013260D02*
X036157Y013260D01*
X036157Y013419D02*
X021495Y013419D01*
X021494Y013577D02*
X036157Y013577D01*
X036157Y013736D02*
X021492Y013736D01*
X021491Y013894D02*
X036157Y013894D01*
X036157Y014053D02*
X021489Y014053D01*
X021487Y014211D02*
X036157Y014211D01*
X036157Y014370D02*
X021486Y014370D01*
X021484Y014528D02*
X036157Y014528D01*
X036157Y014687D02*
X021483Y014687D01*
X021481Y014845D02*
X036157Y014845D01*
X036157Y015004D02*
X021479Y015004D01*
X021478Y015162D02*
X036157Y015162D01*
X036157Y015321D02*
X021476Y015321D01*
X021475Y015479D02*
X036157Y015479D01*
X036157Y015638D02*
X021473Y015638D01*
X021471Y015796D02*
X036157Y015796D01*
X036157Y015955D02*
X021470Y015955D01*
X021468Y016113D02*
X036157Y016113D01*
X036157Y016272D02*
X021467Y016272D01*
X021166Y016272D02*
X020306Y016272D01*
X020306Y016362D02*
X020306Y016180D01*
X019866Y016180D01*
X019426Y016180D01*
X019866Y016180D01*
X019866Y016180D01*
X019866Y016180D01*
X019866Y015740D01*
X019684Y015740D01*
X019426Y015998D01*
X019426Y016180D01*
X019426Y016362D01*
X019684Y016620D01*
X019866Y016620D01*
X019866Y016180D01*
X019866Y016180D01*
X019866Y015740D01*
X020049Y015740D01*
X020306Y015998D01*
X020306Y016180D01*
X019866Y016180D01*
X019866Y016620D01*
X020049Y016620D01*
X020306Y016362D01*
X020239Y016430D02*
X021166Y016430D01*
X021166Y016580D02*
X021166Y012911D01*
X021108Y012953D01*
X021043Y012986D01*
X020974Y013009D01*
X020903Y013020D01*
X020876Y013020D01*
X020876Y012290D01*
X020856Y012290D01*
X020856Y012270D01*
X020406Y012270D01*
X020406Y011964D01*
X020418Y011892D01*
X020440Y011823D01*
X020473Y011759D01*
X020516Y011700D01*
X020567Y011649D01*
X020625Y011607D01*
X020690Y011574D01*
X020759Y011551D01*
X020830Y011540D01*
X020856Y011540D01*
X020856Y012270D01*
X020876Y012270D01*
X020876Y011540D01*
X020903Y011540D01*
X020974Y011551D01*
X021043Y011574D01*
X021108Y011607D01*
X021166Y011649D01*
X021166Y011649D01*
X021166Y006580D01*
X015075Y006580D01*
X015088Y006587D01*
X015146Y006629D01*
X015197Y006680D01*
X015240Y006739D01*
X015273Y006803D01*
X015295Y006872D01*
X015306Y006944D01*
X015306Y006970D01*
X014576Y006970D01*
X014576Y006990D01*
X014556Y006990D01*
X014556Y006970D01*
X013826Y006970D01*
X013826Y006944D01*
X013838Y006872D01*
X013860Y006803D01*
X013893Y006739D01*
X013936Y006680D01*
X013987Y006629D01*
X014045Y006587D01*
X014058Y006580D01*
X008846Y006580D01*
X008846Y017396D01*
X036157Y017396D01*
X036157Y016675D01*
X021166Y016580D01*
X021166Y016113D02*
X020306Y016113D01*
X020263Y015955D02*
X021166Y015955D01*
X021166Y015796D02*
X020105Y015796D01*
X019866Y015796D02*
X019866Y015796D01*
X019866Y015955D02*
X019866Y015955D01*
X019866Y016113D02*
X019866Y016113D01*
X019866Y016180D02*
X019866Y016180D01*
X019866Y016272D02*
X019866Y016272D01*
X019866Y016430D02*
X019866Y016430D01*
X019866Y016589D02*
X019866Y016589D01*
X019653Y016589D02*
X019052Y016589D01*
X019040Y016600D02*
X018693Y016600D01*
X018446Y016354D01*
X018446Y016006D01*
X018693Y015760D01*
X019040Y015760D01*
X019286Y016006D01*
X019286Y016354D01*
X019040Y016600D01*
X019210Y016430D02*
X019494Y016430D01*
X019426Y016272D02*
X019286Y016272D01*
X019286Y016113D02*
X019426Y016113D01*
X019470Y015955D02*
X019235Y015955D01*
X019076Y015796D02*
X019628Y015796D01*
X019884Y015120D02*
X019626Y014862D01*
X019626Y014680D01*
X020066Y014680D01*
X019626Y014680D01*
X019626Y014498D01*
X019884Y014240D01*
X020066Y014240D01*
X020066Y014680D01*
X020066Y014680D01*
X020066Y014680D01*
X020066Y015120D01*
X019884Y015120D01*
X019768Y015004D02*
X019337Y015004D01*
X019240Y015100D02*
X019486Y014854D01*
X019486Y014506D01*
X019240Y014260D01*
X018893Y014260D01*
X018646Y014506D01*
X018646Y014854D01*
X018893Y015100D01*
X019240Y015100D01*
X019486Y014845D02*
X019626Y014845D01*
X019626Y014687D02*
X019486Y014687D01*
X019486Y014528D02*
X019626Y014528D01*
X019755Y014370D02*
X019350Y014370D01*
X020066Y014370D02*
X020066Y014370D01*
X020066Y014240D02*
X020249Y014240D01*
X020506Y014498D01*
X020506Y014680D01*
X020506Y014862D01*
X020249Y015120D01*
X020066Y015120D01*
X020066Y014680D01*
X020066Y014680D01*
X020066Y014240D01*
X020066Y014528D02*
X020066Y014528D01*
X020066Y014680D02*
X020066Y014680D01*
X020506Y014680D01*
X020066Y014680D01*
X020066Y014687D02*
X020066Y014687D01*
X020066Y014845D02*
X020066Y014845D01*
X020066Y015004D02*
X020066Y015004D01*
X020365Y015004D02*
X021166Y015004D01*
X021166Y015162D02*
X012542Y015162D01*
X012540Y015160D02*
X012786Y015406D01*
X012786Y015754D01*
X012540Y016000D01*
X012193Y016000D01*
X011946Y015754D01*
X011946Y015406D01*
X012193Y015160D01*
X012540Y015160D01*
X012701Y015321D02*
X021166Y015321D01*
X021166Y015479D02*
X012786Y015479D01*
X012786Y015638D02*
X021166Y015638D01*
X021166Y014845D02*
X020506Y014845D01*
X020506Y014687D02*
X021166Y014687D01*
X021166Y014528D02*
X020506Y014528D01*
X020378Y014370D02*
X021166Y014370D01*
X021166Y014211D02*
X013786Y014211D01*
X013786Y014106D02*
X013540Y013860D01*
X013193Y013860D01*
X012946Y014106D01*
X012946Y014454D01*
X013193Y014700D01*
X013540Y014700D01*
X013786Y014454D01*
X013786Y014106D01*
X013733Y014053D02*
X021166Y014053D01*
X021166Y013894D02*
X020175Y013894D01*
X020149Y013920D02*
X019966Y013920D01*
X019784Y013920D01*
X019526Y013662D01*
X019526Y013480D01*
X019966Y013480D01*
X019526Y013480D01*
X019526Y013298D01*
X019784Y013040D01*
X019966Y013040D01*
X019966Y013480D01*
X019966Y013480D01*
X019966Y013480D01*
X019966Y013920D01*
X019966Y013480D01*
X019966Y013480D01*
X019966Y013040D01*
X020149Y013040D01*
X020406Y013298D01*
X020406Y013480D01*
X020406Y013662D01*
X020149Y013920D01*
X019966Y013894D02*
X019966Y013894D01*
X019966Y013736D02*
X019966Y013736D01*
X019966Y013577D02*
X019966Y013577D01*
X019966Y013480D02*
X020406Y013480D01*
X019966Y013480D01*
X019966Y013480D01*
X019966Y013419D02*
X019966Y013419D01*
X019966Y013260D02*
X019966Y013260D01*
X019966Y013102D02*
X019966Y013102D01*
X019723Y013102D02*
X019182Y013102D01*
X019140Y013060D02*
X019386Y013306D01*
X019386Y013654D01*
X019140Y013900D01*
X018793Y013900D01*
X018546Y013654D01*
X018546Y013306D01*
X018793Y013060D01*
X019140Y013060D01*
X019340Y013260D02*
X019564Y013260D01*
X019526Y013419D02*
X019386Y013419D01*
X019386Y013577D02*
X019526Y013577D01*
X019600Y013736D02*
X019305Y013736D01*
X019146Y013894D02*
X019758Y013894D01*
X020333Y013736D02*
X021166Y013736D01*
X021166Y013577D02*
X020406Y013577D01*
X020406Y013419D02*
X021166Y013419D01*
X021166Y013260D02*
X020369Y013260D01*
X020210Y013102D02*
X021166Y013102D01*
X021166Y012943D02*
X021122Y012943D01*
X021166Y012911D02*
X021166Y012911D01*
X020876Y012943D02*
X020856Y012943D01*
X020856Y013020D02*
X020830Y013020D01*
X020759Y013009D01*
X020690Y012986D01*
X020625Y012953D01*
X020567Y012911D01*
X020516Y012860D01*
X020473Y012801D01*
X020440Y012737D01*
X020418Y012668D01*
X020406Y012596D01*
X020406Y012290D01*
X020856Y012290D01*
X020856Y013020D01*
X020856Y012785D02*
X020876Y012785D01*
X020876Y012626D02*
X020856Y012626D01*
X020856Y012468D02*
X020876Y012468D01*
X020876Y012309D02*
X020856Y012309D01*
X020856Y012151D02*
X020876Y012151D01*
X020876Y011992D02*
X020856Y011992D01*
X020856Y011834D02*
X020876Y011834D01*
X020876Y011675D02*
X020856Y011675D01*
X020541Y011675D02*
X008846Y011675D01*
X008846Y011517D02*
X021166Y011517D01*
X021166Y011358D02*
X012982Y011358D01*
X013086Y011254D02*
X012840Y011500D01*
X012493Y011500D01*
X012246Y011254D01*
X012246Y010906D01*
X012493Y010660D01*
X012840Y010660D01*
X013086Y010906D01*
X013086Y011254D01*
X013086Y011200D02*
X021166Y011200D01*
X021166Y011041D02*
X013086Y011041D01*
X013063Y010883D02*
X021166Y010883D01*
X021166Y010724D02*
X012904Y010724D01*
X012840Y010500D02*
X012493Y010500D01*
X012246Y010254D01*
X012246Y009906D01*
X012493Y009660D01*
X012840Y009660D01*
X013086Y009906D01*
X013086Y010254D01*
X012840Y010500D01*
X012933Y010407D02*
X014169Y010407D01*
X014152Y010400D02*
X014046Y010294D01*
X013989Y010155D01*
X013989Y010005D01*
X014046Y009866D01*
X014152Y009760D01*
X014291Y009702D01*
X014442Y009702D01*
X014580Y009760D01*
X014661Y009840D01*
X016267Y009840D01*
X017426Y008681D01*
X017426Y008212D01*
X017493Y008051D01*
X017617Y007927D01*
X017779Y007860D01*
X017954Y007860D01*
X018116Y007927D01*
X018239Y008051D01*
X018306Y008212D01*
X018306Y008948D01*
X018239Y009109D01*
X018116Y009233D01*
X017954Y009300D01*
X017779Y009300D01*
X017617Y009233D01*
X017585Y009201D01*
X016570Y010216D01*
X016502Y010283D01*
X016414Y010320D01*
X014661Y010320D01*
X014580Y010400D01*
X014442Y010458D01*
X014291Y010458D01*
X014152Y010400D01*
X014027Y010249D02*
X013086Y010249D01*
X013086Y010090D02*
X013989Y010090D01*
X014019Y009932D02*
X013086Y009932D01*
X012953Y009773D02*
X014139Y009773D01*
X014366Y010080D02*
X016366Y010080D01*
X017866Y008580D01*
X017426Y008505D02*
X008846Y008505D01*
X008846Y008347D02*
X017426Y008347D01*
X017437Y008188D02*
X008846Y008188D01*
X008846Y008030D02*
X017515Y008030D01*
X017752Y007871D02*
X008846Y007871D01*
X008846Y007713D02*
X021166Y007713D01*
X021166Y007871D02*
X019035Y007871D01*
X019043Y007874D02*
X019108Y007907D01*
X019166Y007949D01*
X019217Y008000D01*
X019260Y008059D01*
X019293Y008123D01*
X019315Y008192D01*
X019326Y008264D01*
X019326Y008570D01*
X018876Y008570D01*
X018876Y007840D01*
X018903Y007840D01*
X018974Y007851D01*
X019043Y007874D01*
X018876Y007871D02*
X018856Y007871D01*
X018856Y007840D02*
X018856Y008570D01*
X018406Y008570D01*
X018406Y008264D01*
X018418Y008192D01*
X018440Y008123D01*
X018473Y008059D01*
X018516Y008000D01*
X018567Y007949D01*
X018625Y007907D01*
X018690Y007874D01*
X018759Y007851D01*
X018830Y007840D01*
X018856Y007840D01*
X018698Y007871D02*
X017981Y007871D01*
X018218Y008030D02*
X018494Y008030D01*
X018419Y008188D02*
X018296Y008188D01*
X018306Y008347D02*
X018406Y008347D01*
X018406Y008505D02*
X018306Y008505D01*
X018406Y008590D02*
X018406Y008896D01*
X018418Y008968D01*
X018440Y009037D01*
X018473Y009101D01*
X018516Y009160D01*
X018567Y009211D01*
X018625Y009253D01*
X018690Y009286D01*
X018759Y009309D01*
X018830Y009320D01*
X018856Y009320D01*
X018856Y008590D01*
X018856Y008570D01*
X018876Y008570D01*
X018876Y008590D01*
X018856Y008590D01*
X018406Y008590D01*
X018406Y008664D02*
X018306Y008664D01*
X018306Y008822D02*
X018406Y008822D01*
X018422Y008981D02*
X018293Y008981D01*
X018210Y009139D02*
X018501Y009139D01*
X018724Y009298D02*
X017960Y009298D01*
X017773Y009298D02*
X017488Y009298D01*
X017330Y009456D02*
X021166Y009456D01*
X021166Y009298D02*
X019009Y009298D01*
X019043Y009286D02*
X018974Y009309D01*
X018903Y009320D01*
X018876Y009320D01*
X018876Y008590D01*
X019326Y008590D01*
X019326Y008896D01*
X019315Y008968D01*
X019293Y009037D01*
X019260Y009101D01*
X019217Y009160D01*
X019166Y009211D01*
X019108Y009253D01*
X019043Y009286D01*
X018876Y009298D02*
X018856Y009298D01*
X018856Y009139D02*
X018876Y009139D01*
X018876Y008981D02*
X018856Y008981D01*
X018856Y008822D02*
X018876Y008822D01*
X018876Y008664D02*
X018856Y008664D01*
X018856Y008505D02*
X018876Y008505D01*
X018876Y008347D02*
X018856Y008347D01*
X018856Y008188D02*
X018876Y008188D01*
X018876Y008030D02*
X018856Y008030D01*
X019239Y008030D02*
X021166Y008030D01*
X021166Y008188D02*
X019314Y008188D01*
X019326Y008347D02*
X021166Y008347D01*
X021166Y008505D02*
X019326Y008505D01*
X019326Y008664D02*
X021166Y008664D01*
X021166Y008822D02*
X019326Y008822D01*
X019311Y008981D02*
X021166Y008981D01*
X021166Y009139D02*
X019232Y009139D01*
X017426Y008664D02*
X008846Y008664D01*
X008846Y008822D02*
X017285Y008822D01*
X017127Y008981D02*
X008846Y008981D01*
X008846Y009139D02*
X016968Y009139D01*
X016810Y009298D02*
X008846Y009298D01*
X008846Y009456D02*
X016651Y009456D01*
X016493Y009615D02*
X008846Y009615D01*
X008846Y009773D02*
X012379Y009773D01*
X012246Y009932D02*
X008846Y009932D01*
X008846Y010090D02*
X012246Y010090D01*
X012246Y010249D02*
X008846Y010249D01*
X008846Y010407D02*
X012400Y010407D01*
X012428Y010724D02*
X008846Y010724D01*
X008846Y010566D02*
X021166Y010566D01*
X021166Y010407D02*
X014564Y010407D01*
X014594Y009773D02*
X016334Y009773D01*
X016696Y010090D02*
X021166Y010090D01*
X021166Y009932D02*
X016854Y009932D01*
X017013Y009773D02*
X021166Y009773D01*
X021166Y009615D02*
X017171Y009615D01*
X016537Y010249D02*
X021166Y010249D01*
X020437Y011834D02*
X008846Y011834D01*
X008846Y011992D02*
X020406Y011992D01*
X020406Y012151D02*
X011759Y012151D01*
X011649Y012040D02*
X011906Y012298D01*
X011906Y012480D01*
X011906Y012662D01*
X011649Y012920D01*
X011466Y012920D01*
X011284Y012920D01*
X011026Y012662D01*
X011026Y012480D01*
X011026Y012298D01*
X011284Y012040D01*
X011466Y012040D01*
X011466Y012480D01*
X011026Y012480D01*
X011466Y012480D01*
X011466Y012480D01*
X011466Y012920D01*
X011466Y012480D01*
X011466Y012480D01*
X011466Y012480D01*
X011466Y012040D01*
X011649Y012040D01*
X011466Y012151D02*
X011466Y012151D01*
X011466Y012309D02*
X011466Y012309D01*
X011466Y012468D02*
X011466Y012468D01*
X011466Y012480D02*
X011466Y012480D01*
X011906Y012480D01*
X011466Y012480D01*
X011466Y012626D02*
X011466Y012626D01*
X011466Y012785D02*
X011466Y012785D01*
X011149Y012785D02*
X008846Y012785D01*
X008846Y012943D02*
X020611Y012943D01*
X020465Y012785D02*
X011784Y012785D01*
X011906Y012626D02*
X020411Y012626D01*
X020406Y012468D02*
X011906Y012468D01*
X011906Y012309D02*
X020406Y012309D01*
X021500Y012943D02*
X021611Y012943D01*
X018751Y013102D02*
X011682Y013102D01*
X011640Y013060D02*
X011886Y013306D01*
X011886Y013654D01*
X011640Y013900D01*
X011293Y013900D01*
X011046Y013654D01*
X011046Y013306D01*
X011293Y013060D01*
X011640Y013060D01*
X011840Y013260D02*
X018592Y013260D01*
X018546Y013419D02*
X011886Y013419D01*
X011886Y013577D02*
X018546Y013577D01*
X018628Y013736D02*
X011805Y013736D01*
X011646Y013894D02*
X012130Y013894D01*
X012184Y013840D02*
X012366Y013840D01*
X012366Y014280D01*
X011926Y014280D01*
X012366Y014280D01*
X012366Y014280D01*
X012366Y014280D01*
X012366Y014720D01*
X012184Y014720D01*
X011926Y014462D01*
X011926Y014280D01*
X011926Y014098D01*
X012184Y013840D01*
X012366Y013840D02*
X012366Y014280D01*
X012366Y014280D01*
X012366Y014720D01*
X012549Y014720D01*
X012806Y014462D01*
X012806Y014280D01*
X012366Y014280D01*
X012366Y014280D01*
X012806Y014280D01*
X012806Y014098D01*
X012549Y013840D01*
X012366Y013840D01*
X012366Y013894D02*
X012366Y013894D01*
X012366Y014053D02*
X012366Y014053D01*
X012366Y014211D02*
X012366Y014211D01*
X012366Y014370D02*
X012366Y014370D01*
X012366Y014528D02*
X012366Y014528D01*
X012366Y014687D02*
X012366Y014687D01*
X012151Y014687D02*
X008846Y014687D01*
X008846Y014845D02*
X018646Y014845D01*
X018646Y014687D02*
X013554Y014687D01*
X013712Y014528D02*
X018646Y014528D01*
X018783Y014370D02*
X013786Y014370D01*
X013574Y013894D02*
X018787Y013894D01*
X018796Y015004D02*
X008846Y015004D01*
X008846Y015162D02*
X011162Y015162D01*
X011184Y015140D02*
X011366Y015140D01*
X011366Y015580D01*
X010926Y015580D01*
X011366Y015580D01*
X011366Y015580D01*
X011366Y015580D01*
X011366Y016020D01*
X011184Y016020D01*
X010926Y015762D01*
X010926Y015580D01*
X010926Y015398D01*
X011184Y015140D01*
X011366Y015140D02*
X011366Y015580D01*
X011366Y015580D01*
X011366Y016020D01*
X011549Y016020D01*
X011806Y015762D01*
X011806Y015580D01*
X011366Y015580D01*
X011366Y015580D01*
X011806Y015580D01*
X011806Y015398D01*
X011549Y015140D01*
X011366Y015140D01*
X011366Y015162D02*
X011366Y015162D01*
X011366Y015321D02*
X011366Y015321D01*
X011366Y015479D02*
X011366Y015479D01*
X011366Y015638D02*
X011366Y015638D01*
X011366Y015796D02*
X011366Y015796D01*
X011366Y015955D02*
X011366Y015955D01*
X011119Y015955D02*
X008846Y015955D01*
X008846Y016113D02*
X018446Y016113D01*
X018446Y016272D02*
X008846Y016272D01*
X008846Y016430D02*
X018523Y016430D01*
X018681Y016589D02*
X008846Y016589D01*
X008846Y016747D02*
X036157Y016747D01*
X036157Y016906D02*
X008846Y016906D01*
X008846Y017064D02*
X036157Y017064D01*
X036157Y017223D02*
X008846Y017223D01*
X008846Y017381D02*
X036157Y017381D01*
X022513Y016589D02*
X020080Y016589D01*
X018656Y015796D02*
X012744Y015796D01*
X012586Y015955D02*
X018498Y015955D01*
X013179Y014687D02*
X012582Y014687D01*
X012741Y014528D02*
X013021Y014528D01*
X012946Y014370D02*
X012806Y014370D01*
X012806Y014211D02*
X012946Y014211D01*
X013000Y014053D02*
X012761Y014053D01*
X012603Y013894D02*
X013158Y013894D01*
X011972Y014053D02*
X008846Y014053D01*
X008846Y014211D02*
X011926Y014211D01*
X011926Y014370D02*
X008846Y014370D01*
X008846Y014528D02*
X011992Y014528D01*
X012190Y015162D02*
X011571Y015162D01*
X011729Y015321D02*
X012032Y015321D01*
X011946Y015479D02*
X011806Y015479D01*
X011806Y015638D02*
X011946Y015638D01*
X011989Y015796D02*
X011773Y015796D01*
X011614Y015955D02*
X012147Y015955D01*
X010960Y015796D02*
X008846Y015796D01*
X008846Y015638D02*
X010926Y015638D01*
X010926Y015479D02*
X008846Y015479D01*
X008846Y015321D02*
X011004Y015321D01*
X011287Y013894D02*
X008846Y013894D01*
X008846Y013736D02*
X011128Y013736D01*
X011046Y013577D02*
X008846Y013577D01*
X008846Y013419D02*
X011046Y013419D01*
X011092Y013260D02*
X008846Y013260D01*
X008846Y013102D02*
X011251Y013102D01*
X011026Y012626D02*
X008846Y012626D01*
X008846Y012468D02*
X011026Y012468D01*
X011026Y012309D02*
X008846Y012309D01*
X008846Y012151D02*
X011174Y012151D01*
X012351Y011358D02*
X008846Y011358D01*
X008846Y011200D02*
X012246Y011200D01*
X012246Y011041D02*
X008846Y011041D01*
X008846Y010883D02*
X012270Y010883D01*
X014045Y007373D02*
X013987Y007331D01*
X013936Y007280D01*
X013893Y007221D01*
X013860Y007157D01*
X013838Y007088D01*
X013826Y007016D01*
X013826Y006990D01*
X014556Y006990D01*
X014556Y007440D01*
X014250Y007440D01*
X014179Y007429D01*
X014110Y007406D01*
X014045Y007373D01*
X014089Y007396D02*
X008846Y007396D01*
X008846Y007554D02*
X021166Y007554D01*
X021166Y007396D02*
X015044Y007396D01*
X015023Y007406D02*
X014954Y007429D01*
X014883Y007440D01*
X014576Y007440D01*
X014576Y006990D01*
X015306Y006990D01*
X015306Y007016D01*
X015295Y007088D01*
X015273Y007157D01*
X015240Y007221D01*
X015197Y007280D01*
X015146Y007331D01*
X015088Y007373D01*
X015023Y007406D01*
X015228Y007237D02*
X021166Y007237D01*
X021166Y007079D02*
X015297Y007079D01*
X015303Y006920D02*
X021166Y006920D01*
X021166Y006762D02*
X015251Y006762D01*
X015110Y006603D02*
X021166Y006603D01*
X014576Y007079D02*
X014556Y007079D01*
X014556Y007237D02*
X014576Y007237D01*
X014576Y007396D02*
X014556Y007396D01*
X013905Y007237D02*
X008846Y007237D01*
X008846Y007079D02*
X013836Y007079D01*
X013830Y006920D02*
X008846Y006920D01*
X008846Y006762D02*
X013882Y006762D01*
X014023Y006603D02*
X008846Y006603D01*
D13*
X014866Y011080D03*
D14*
X014366Y010080D03*
M02*
